<svg xmlns="http://www.w3.org/2000/svg" viewBox="0 0 147.29 139.69"><defs><style>.cls-1{fill:none;stroke:#000;stroke-miterlimit:10;stroke-width:4px;}</style></defs><title>chlote</title><g id="Capa_2" data-name="Capa 2"><g id="Capa_1-2" data-name="Capa 1"><path d="M51.39,73.79l5.36-16.08A12.13,12.13,0,0,0,51,50.22v-7H45.29v5.57a11.81,11.81,0,0,0-5.65,1.45A11.81,11.81,0,0,0,34,48.77V43.2H28.33v7a12.16,12.16,0,0,0-5.8,7.49l5.36,16.08A85.13,85.13,0,0,0,0,132.06a17,17,0,0,0,22.68,5.35,16.93,16.93,0,0,0,17,0,16.93,16.93,0,0,0,17,0,17.05,17.05,0,0,0,8.48,2.28c9.45,0,14-7.47,14.2-7.63A84.77,84.77,0,0,0,51.39,73.79ZM39.64,57.26c1.21-.8,2.63-2.83,5.65-2.83a6.08,6.08,0,0,1,5.47,3.38l-4.68,14H33.2l-4.68-14A6.08,6.08,0,0,1,34,54.43C37,54.43,38.46,56.47,39.64,57.26ZM32.22,77.49H47.06a80,80,0,0,1,23.74,38,11.27,11.27,0,0,1-12.5-.7l-1.7-1.27-1.7,1.27a11.31,11.31,0,0,1-13.56,0l-1.7-1.27-1.7,1.27a11.31,11.31,0,0,1-13.56,0l-1.7-1.27L21,114.81a11.29,11.29,0,0,1-12.5.7A80,80,0,0,1,32.22,77.49ZM58.3,131.77l-1.7-1.27-1.7,1.27a11.31,11.31,0,0,1-13.56,0l-1.7-1.27-1.7,1.27a11.31,11.31,0,0,1-13.56,0l-1.7-1.27L21,131.77A11.31,11.31,0,0,1,5.8,130.29a75.29,75.29,0,0,1,1.31-9.12,16.92,16.92,0,0,0,15.57-.72,17,17,0,0,0,17,0,17,17,0,0,0,17,0,16.92,16.92,0,0,0,15.57.72,75.29,75.29,0,0,1,1.31,9.12A11.3,11.3,0,0,1,58.3,131.77Z"/><path d="M147.29,57.83a14.1,14.1,0,0,0-9.66-13.41L128,41.2H104.43l-9.66,3.22a14.1,14.1,0,0,0-9.66,13.41v45.55H96.84l5.65,34.3h27.42l5.65-34.3h11.73Zm-5.65,0V86.42H136V66.64h-5.66v23L119,82.08V80.77h5.65V75.12H119V72.83l10.11-25.28,6.7,2.23A8.47,8.47,0,0,1,141.64,57.83ZM116.2,64.68l-7.13-17.83h14.26ZM96.56,49.78l6.7-2.23,10.11,25.28v9.25l-11.3,7.54v-23H96.41V86.42H90.76V57.83A8.47,8.47,0,0,1,96.56,49.78Zm-5.8,48V92.08h5.65v5.65ZM125.11,132H119v-30.3l4.82-4.83-4-4-3.65,3.65-3.65-3.65-4,4,4.82,4.83V132h-6.08l-5.22-31.7V96.42L116.2,87l14.13,9.43v3.91ZM136,97.73V92.08h5.65v5.65Z"/><circle class="cls-1" cx="39.29" cy="18" r="16"/><circle class="cls-1" cx="116.29" cy="20" r="16"/></g></g></svg>