<svg xmlns="http://www.w3.org/2000/svg" viewBox="0 0 102.93 106.74"><title>Recurso 11</title><g id="Capa_2" data-name="Capa 2"><g id="Capa_1-2" data-name="Capa 1"><path d="M43.58,4.69a50.77,50.77,0,0,0-33,79.5A50.13,50.13,0,0,0,38,103.35l2.06.53a14.44,14.44,0,0,0,2.07.47l4.2.65c1.41.1,2.83.16,4.25.24l1.06.05,1.06-.05,2.13-.11a51,51,0,0,0,16.5-3.83A51.66,51.66,0,0,0,96,78.75a49.85,49.85,0,0,0,5.4-16.11l.33-2.11c.11-.71.1-1.43.16-2.14l.12-2.13a19.11,19.11,0,0,0,0-2.14,49.77,49.77,0,0,0-.82-8.52A50.92,50.92,0,0,0,84.6,16.25,51.24,51.24,0,0,1,102,45.47a49,49,0,0,1,.94,8.63,17.62,17.62,0,0,1,0,2.18l-.1,2.17c-.05.73,0,1.46-.13,2.17l-.31,2.16A50.86,50.86,0,0,1,97,79.3a52.23,52.23,0,0,1-25.2,23.26,52.72,52.72,0,0,1-16.95,4l-2.18.12-1.1.06-1.09,0c-1.46-.08-2.92-.13-4.37-.23l-4.33-.65a19.43,19.43,0,0,1-2.14-.47l-2.12-.55A51.53,51.53,0,0,1,9.5,85,51.14,51.14,0,0,1,43.58,4.69Z"/><path d="M90.24,55A38.59,38.59,0,0,0,78.83,27.66a38.26,38.26,0,0,0-12.57-8.25A38.29,38.29,0,0,0,24.63,28a38.27,38.27,0,0,0,0,53.82,38.36,38.36,0,0,0,54.2.38A38.59,38.59,0,0,0,90.24,55Zm0,0A38.72,38.72,0,0,1,79,82.39a39,39,0,0,1-42.45,8.79,38.93,38.93,0,0,1-12.81-8.41,39.16,39.16,0,0,1,0-55.64A39.1,39.1,0,0,1,66.44,19,39.26,39.26,0,0,1,87.35,40.12,39.05,39.05,0,0,1,90.24,55Z"/><path d="M77.16,55A25.37,25.37,0,0,0,51.54,29.59,25.36,25.36,0,1,0,69.6,73,25.68,25.68,0,0,0,77.16,55Zm0,0a25.87,25.87,0,0,1-44,18.41A25.86,25.86,0,1,1,69.71,36.79,25.74,25.74,0,0,1,77.16,55Z"/><path d="M49.06,78.92A25.76,25.76,0,0,0,74.28,63,24.73,24.73,0,0,1,49.06,78.92Z"/><path d="M30,72.2a30.66,30.66,0,0,0,11,8,24.74,24.74,0,0,0,6.59,1.83,22.81,22.81,0,0,0,6.85-.17,20.34,20.34,0,0,1-6.87.33,24.53,24.53,0,0,1-6.67-1.76A29.12,29.12,0,0,1,30,72.2Z"/><path d="M27.56,71.67a32.13,32.13,0,0,0,5.14,5.41,31,31,0,0,0,6.24,4.07,26.71,26.71,0,0,0,7,2.41,22.87,22.87,0,0,0,7.43.17,20.56,20.56,0,0,1-7.46,0,26.52,26.52,0,0,1-7.11-2.35,31.12,31.12,0,0,1-6.24-4.16A28.18,28.18,0,0,1,27.56,71.67Z"/><path d="M23.77,68.7a29.24,29.24,0,0,0,5,7.18,32.1,32.1,0,0,0,6.79,5.5,29.25,29.25,0,0,0,8,3.47,27.17,27.17,0,0,0,8.71.82A25.06,25.06,0,0,1,43.52,85a29.63,29.63,0,0,1-8.1-3.42A32.57,32.57,0,0,1,28.64,76,26.8,26.8,0,0,1,23.77,68.7Z"/><path d="M17.07,42.05a51.38,51.38,0,0,0-2,13.64A30.58,30.58,0,0,0,18,69.09a29.05,29.05,0,0,1-3.14-13.4A46.79,46.79,0,0,1,17.07,42.05Z"/><path d="M79,3.8,69.36,44.21c-3.22,13.53-6.59,27.11-9.9,40.67V85a5,5,0,0,1-2.52,2.59,3.8,3.8,0,0,1-1.85.29,4.58,4.58,0,0,1-1.78-.53A3.34,3.34,0,0,1,52,85.93a4.29,4.29,0,0,1-.46-1.8,5.82,5.82,0,0,1,.17-1.8l.47-1.59L55.93,68l3.8-12.72,1.9-6.36.47-1.59c.1-.32.13-.42.09-.58a.51.51,0,0,0-.3-.34l-3.14-.85-.37-.1.09-.36c.9-3.89,1.94-7.73,3.07-11.55s2.39-7.6,3.81-11.32a73.36,73.36,0,0,1,5.07-10.81,26.79,26.79,0,0,1,3.5-4.83A8.08,8.08,0,0,1,79,3.8Zm0,0a8,8,0,0,0-5,2.9,26.18,26.18,0,0,0-3.39,4.87,76.29,76.29,0,0,0-4.81,10.86c-1.37,3.72-2.57,7.51-3.66,11.32s-2.07,7.67-2.92,11.54L59,44.82l1.61.41.8.2.41.11a4.47,4.47,0,0,1,.46.13,1.37,1.37,0,0,1,.76.87,1.69,1.69,0,0,1-.08,1.05l-.47,1.59-1.87,6.36L56.82,68.27,53.08,81l-.47,1.59a5.63,5.63,0,0,0-.13,1.49,2.71,2.71,0,0,0,1.3,2.36,3.29,3.29,0,0,0,2.77.2,4,4,0,0,0,2-2l0,.06c3.37-13.43,6.68-26.83,10.15-40.29Z"/><path d="M53.88,18.73a.74.74,0,0,0,.88-.5L55,17.15,55.61,15l1.14-4.32L59,2h0a1,1,0,0,1,.89-.39,1,1,0,0,1,.57.77h0L58.36,11.1,57.3,15.44l-.54,2.17-.26,1.08c0,.32.28.63.58.78a.66.66,0,0,0,.87-.25c.12-.31.19-.71.29-1.06L58.8,16l1.11-4.33L62.12,3V3l0,0a2.69,2.69,0,0,1,.33-.35.77.77,0,0,1,.52-.2.71.71,0,0,1,.48.3,1.7,1.7,0,0,1,.22.45v.08c-1.27,7.11-2.56,14.22-4,21.3-.19.89-.36,1.76-.6,2.67a11.12,11.12,0,0,1-1.13,2.54A23.22,23.22,0,0,1,54.53,34c-.64.65-1.31,1.28-2,1.88a4.33,4.33,0,0,0-1.21,2.15l-1.18,5.29L45.42,64.49,43,75.06l-1.2,5.31a4.49,4.49,0,0,1-1.74,2.44,4,4,0,0,1-5.43-1.42,4.57,4.57,0,0,1-.32-3L35.9,73.2,39,62.81,45.19,42l1.56-5.18a4.42,4.42,0,0,0,0-2.47c-.27-.84-.55-1.72-.79-2.6a23.51,23.51,0,0,1-.88-5.41,11.22,11.22,0,0,1,.26-2.77c.23-.91.51-1.75.78-2.62C48.3,14.09,50.66,7.26,53,.43v0l0,0a1.3,1.3,0,0,1,.41-.28.7.7,0,0,1,.57,0,.75.75,0,0,1,.35.43,2.7,2.7,0,0,1,.12.47V1l-2.3,8.62-1.15,4.31-.58,2.15c-.09.36-.21.73-.27,1.07a.63.63,0,0,0,.59.67.76.76,0,0,0,.82-.45l.29-1.07.59-2.15,1.18-4.31L56,1.25h0a1,1,0,0,1,.88-.39,1,1,0,0,1,.58.77h0L55.3,10.29l-1.11,4.33-.55,2.16-.28,1.08A.74.74,0,0,0,53.88,18.73Zm0,0a.73.73,0,0,1-.52-.87l.27-1.08.54-2.17,1.09-4.33,2.18-8.66h0c-.09-.29-.23-.63-.53-.72a1,1,0,0,0-.8.38v0L53.8,9.88l-1.16,4.31-.58,2.15-.29,1.08a.9.9,0,0,1-1,.57.81.81,0,0,1-.74-.84c.07-.4.18-.73.27-1.1l.55-2.16L52,9.57,54.2.93V1c0-.26-.13-.56-.29-.63s-.41.08-.58.25l0-.07c-2.3,6.85-4.58,13.71-6.69,20.61-.25.86-.54,1.74-.74,2.58a10.92,10.92,0,0,0-.22,2.62,23,23,0,0,0,.91,5.25c.25.86.52,1.7.81,2.57a5,5,0,0,1,0,2.88L46,42.26l-6.09,20.8-3,10.4-1.51,5.17a3.56,3.56,0,0,0,.24,2.31,3,3,0,0,0,4,1,3.53,3.53,0,0,0,1.34-1.89l1.21-5.25,2.43-10.56,4.87-21.12,1.23-5.28a5.11,5.11,0,0,1,1.44-2.49c.68-.62,1.33-1.22,2-1.85a22.61,22.61,0,0,0,3.37-4.14A10.66,10.66,0,0,0,58.5,27c.23-.84.41-1.74.61-2.62,1.54-7,2.91-14.15,4.25-21.24v.07c-.06-.23-.23-.5-.39-.5s-.4.2-.56.41l0-.06-2.31,8.64L59,16l-.57,2.16c-.12.37-.17.71-.32,1.09A.81.81,0,0,1,57,19.6a1,1,0,0,1-.65-.93l.27-1.09.54-2.17,1.08-4.34L60.4,2.39v0a.93.93,0,0,0-.51-.72,1,1,0,0,0-.81.37h0l-2.3,8.63L55.63,15l-.58,2.16-.29,1.08A.73.73,0,0,1,53.88,18.73Z"/><path d="M73.94,18.45c-.52,2.1-1.07,4.19-1.63,6.27L70.62,31C70,33.05,69.48,35.14,69,37.23s-1.07,4.19-1.68,6.26L68.8,37.2c.5-2.11,1-4.21,1.58-6.29C71.58,26.76,72.69,22.58,73.94,18.45Z"/><path d="M48.1,21a18.25,18.25,0,0,0-1,5.55,19.28,19.28,0,0,0,1.23,5.5,14.56,14.56,0,0,1-1.48-5.5A14.28,14.28,0,0,1,48.1,21Z"/></g></g></svg>