<svg xmlns="http://www.w3.org/2000/svg" viewBox="0 0 113.08 115.39"><title>Recurso 12</title><g id="Capa_2" data-name="Capa 2"><g id="Capa_1-2" data-name="Capa 1"><path d="M64.64,50.66a1.08,1.08,0,0,0,0-.47l-.06-.37c-1-6.89-1.69-11.79-2.06-14.17,0-.25-.07-.5-.1-.73l0-.23c-.33-2.37-.61-4.42-3.35-5.74a5.41,5.41,0,0,0-2.42-.47c-.59,0-1.23.06-1.89.11h0c-.76.07-1.54.14-2.39.14a13.6,13.6,0,0,1-1.73-.11,14.32,14.32,0,0,1-1-5.33,8.21,8.21,0,0,0,2.28-12.24s0,0,0-.05c-.25-.45-6.45-11-37-11-2.13,0-4.36.06-6.63.16a1,1,0,0,0-.37.07c-.18.08-4.4,1.88-5.44,5.53a6.92,6.92,0,0,0,1,5.57C2.14,12.47.19,14.71,0,17.51a7,7,0,0,0,2,5.22c-.36,1.39-1,4.69.47,7.07a5.48,5.48,0,0,0,4.2,2.48,4,4,0,0,0,.59,0c2.84,0,6.18-2.41,10.42-5.46,5.12-3.7,11.5-8.29,17.7-8.29a11.67,11.67,0,0,1,2.14.21,8.24,8.24,0,0,0,3.72,4.56,14.5,14.5,0,0,1-1,5.28,13.6,13.6,0,0,1-1.73.11c-.86,0-1.67-.08-2.39-.14h0c-.66-.05-1.29-.11-1.89-.11a5.41,5.41,0,0,0-2.42.47c-2.73,1.32-3,3.37-3.35,5.74l0,.26c0,.22-.06.46-.1.7-.37,2.38-1.08,7.27-2.06,14.16l-.05.38a1.25,1.25,0,0,0,0,.47l5.62,18.59-8,44.6a1.1,1.1,0,0,0,1.08,1.29h41A1.1,1.1,0,0,0,67,113.85l-8-44.6ZM45.37,24.47a8.18,8.18,0,0,0,2.05-.28,14.66,14.66,0,0,0,1.5,6,1.08,1.08,0,0,0,.76.52,14.09,14.09,0,0,0,2.66.23c.93,0,1.79-.07,2.56-.14h0c.65-.06,1.21-.1,1.71-.1a3.38,3.38,0,0,1,1.47.25c1.59.77,1.79,1.64,2.13,4.06v.09c0,.29.09.6.14.91.57,3.7,1.84,12.67,2.07,14.27l-4.3,14.23-.72-4L60.4,50a1,1,0,0,0,0-.46l-1.9-12.82a1.09,1.09,0,0,0-.57-.79c-.07-.07-.09-.15-.17-.2a9.37,9.37,0,0,0-4.89-1.47c-3.58,0-6.18,2.34-7.47,3.82-1.29-1.48-3.9-3.82-7.47-3.82a9.37,9.37,0,0,0-4.9,1.47c-.08,0-.1.13-.17.2a1.09,1.09,0,0,0-.57.79l-1.9,12.82a1.19,1.19,0,0,0,0,.46l2.94,10.5-.72,4L28.37,50.26c.22-1.6,1.49-10.57,2.07-14.27q.06-.45.12-.87l0-.13c.34-2.42.54-3.29,2.13-4.06a3.41,3.41,0,0,1,1.47-.25c.5,0,1.06,0,1.71.1h0c.71.06,1.6.14,2.56.14a14.09,14.09,0,0,0,2.66-.23,1.06,1.06,0,0,0,.76-.52,14.6,14.6,0,0,0,1.5-6A8.42,8.42,0,0,0,45.37,24.47ZM53.3,47.19H37.53l-2.63-10A6.85,6.85,0,0,1,38,36.46c3.92,0,6.51,4,6.54,4a1.13,1.13,0,0,0,1.85,0c.11-.16,2.67-4,6.55-4a6.81,6.81,0,0,1,3,.77Zm2,1.13L57,41.65l1.19,8-1.66,5.91ZM32.61,49.64l1.19-8,1.76,6.68-1.29,7.22ZM34,69.37h0l.19-1L37.6,49.38H53.23l2,11.27h0l1.56,8.72h0L64.62,113H26.21ZM4.16,23.2l7.12-3.58a1.1,1.1,0,0,0,.48-1.47,1.07,1.07,0,0,0-1-.61,1,1,0,0,0-.49.12L3.51,21.07A4.82,4.82,0,0,1,2.2,17.66c.16-2.42,2.34-4.48,3-5.07l5.68-.68a1.1,1.1,0,0,0,1-1.22,1.09,1.09,0,0,0-1.09-1h-.13l-5.3.63a5,5,0,0,1-.86-4c.66-2.33,3.4-3.74,4-4,2.13-.1,4.23-.14,6.23-.14,16.11,0,25.16,3,30,5.72a8.29,8.29,0,0,0-7.7,8.25,2.77,2.77,0,0,0,0,.3,16.72,16.72,0,0,0-1.73-.1c-6.88,0-13.58,4.83-19,8.71l-.06.05c-3.57,2.57-6.94,5-9.06,5a1.77,1.77,0,0,1-.33,0,3.34,3.34,0,0,1-2.6-1.45C3.28,26.92,3.89,24.2,4.16,23.2ZM40.52,12.49c.42.3,1,.68,1.66,1.1a5.45,5.45,0,0,1-2.92,2.51A6.07,6.07,0,0,1,40.52,12.49ZM42.2,11a6.08,6.08,0,0,1,9.16,4C47.84,14.48,44.06,12.23,42.2,11Zm1.87,3.72a21,21,0,0,0,7.31,2.51,6.09,6.09,0,0,1-11.73,1.05A7.5,7.5,0,0,0,44.07,14.69Z"/><path d="M113.07,47.27l-3-19.41a1.1,1.1,0,0,0-.71-.86L97.61,22.78l-.19-2.17A12.36,12.36,0,0,0,101,12.34V4.83h0V4.41a1.1,1.1,0,0,0-1.1-1.1H84a1.1,1.1,0,0,0-1.1,1.1v7.93a12.36,12.36,0,0,0,3.57,8.27l-.18,2.17L74.61,27a1.13,1.13,0,0,0-.72.86l-3,19.41a1,1,0,0,0,0,.17V64.17a1.1,1.1,0,0,0,1.1,1.1h0v1.81a1.09,1.09,0,0,0,1.1,1.09h3.79A1.1,1.1,0,0,0,78,67.08V65.27h.17a1.1,1.1,0,0,0,.78-.32,1.14,1.14,0,0,0,.22-.32,1,1,0,0,0,.21.3,1,1,0,0,0,.56.29l.14,46.17a1.09,1.09,0,0,0,1.09,1.09h.24v1.8a1.11,1.11,0,0,0,1.1,1.11h6a1.1,1.1,0,0,0,1.09-1.11v-1.8h.49a1.09,1.09,0,0,0,1.1-1.09,1.12,1.12,0,0,0,0-.2L91,70.27h1.93l.14,41.12a1.09,1.09,0,0,0,1.1,1.09h.35v1.8a1.1,1.1,0,0,0,1.09,1.11h6a1.11,1.11,0,0,0,1.1-1.11v-1.8h.36a1.09,1.09,0,0,0,1.1-1.1L104,69.17v-4a1.08,1.08,0,0,0,.56-.29,1,1,0,0,0,.2-.3A1.18,1.18,0,0,0,105,65a1.1,1.1,0,0,0,.78.32h.13v1.81A1.09,1.09,0,0,0,107,68.17h3.79a1.09,1.09,0,0,0,1.1-1.09V65.27H112a1.1,1.1,0,0,0,1.1-1.1V47.44A1,1,0,0,0,113.07,47.27Zm-11.47,63H95.26l-.14-41.12a1.1,1.1,0,0,0-1.1-1.1H89.9a1.11,1.11,0,0,0-1.1,1.1l.14,41.12H82.25L82.1,69.17v-3.9h19.72l.14,45ZM77.05,63.08H73V47.54L76,28.84l4.55-1.64L90.86,47.56V63.08H81.3l.91-17.78a.74.74,0,0,0,0-.21L81,36.32a1.08,1.08,0,0,0-1.07-1h-.05a1.06,1.06,0,0,0-1,.94L77,48.12a.86.86,0,0,0,0,.16Zm8.08-52L87.7,9.33h8.53l2.57,1.79v1.22C98.8,16.23,95.64,21,92,21s-6.83-4.76-6.83-8.65Zm11-4H87.81L86.23,5.51H97.7ZM92,23.19a6.91,6.91,0,0,0,3.4-1l.11,1.27-.07.37-3.29,1.78-3.62-2,0-.18.1-1.28A6.94,6.94,0,0,0,92,23.19ZM89.8,30l2.31-1.73,2.13,1.59L92,41.56,89.72,30Zm4.73,9.83L97.41,25l3.93,1.42ZM82.59,26.46,86.52,25l2.87,14.8ZM104,35.37a1.09,1.09,0,0,0-1.08.94l-1.2,8.31c0,.06,0,.13,0,.21l.91,18.25H93.06V47.56L103.41,27.2,108,28.84l2.93,18.68V63.08h-4l0-14.8a.88.88,0,0,0,0-.16l-1.8-11.82A1.1,1.1,0,0,0,104,35.37ZM74.18,65.27h1.6V66h-1.6Zm9.41,47.21h3.79v.71H83.59Zm13.12,0h3.79v.71H96.71ZM108.1,65.27h1.59V66H108.1ZM79.86,44.13,80,45.28,79.24,60.5l0-12.12Zm24.82,16.28-.77-15.57.13-.9.67,4.42Z"/></g></g></svg>