<svg xmlns="http://www.w3.org/2000/svg" viewBox="0 0 102.36 132.67"><title>Recurso 10</title><g id="Capa_2" data-name="Capa 2"><g id="Capa_1-2" data-name="Capa 1"><path d="M21,27.65a51,51,0,0,0-20,40.89A54.17,54.17,0,0,0,3.52,83.92l1.37,3.66C5.4,88.78,6,89.93,6.58,91.1A31.55,31.55,0,0,0,8.5,94.5l1,1.66c.35.55.77,1,1.15,1.58l1.18,1.56a13.65,13.65,0,0,0,1.22,1.51l2.64,2.88c.94.89,1.92,1.75,2.88,2.63l.72.66.78.58,1.57,1.17,1.56,1.16,1.67,1,1.67,1,.84.5.88.42,3.52,1.68,3.66,1.33a52.11,52.11,0,0,0,15.32,2.51,54.78,54.78,0,0,0,15.37-2.22,52.89,52.89,0,0,0,13.92-6.9A50.76,50.76,0,0,0,98.58,84.71,50.66,50.66,0,0,0,82.12,28.16,50.53,50.53,0,0,1,99.67,85.09c-.47,1.24-.85,2.53-1.39,3.74l-1.72,3.62c-.6,1.19-1.35,2.3-2,3.45a30.54,30.54,0,0,1-2.27,3.29,49.9,49.9,0,0,1-11.41,11.15,54,54,0,0,1-14.27,7.16,56.46,56.46,0,0,1-15.81,2.35A54.07,54.07,0,0,1,35,117.2l-3.76-1.39-3.61-1.74-.91-.44-.85-.51-1.72-1.05-1.7-1-1.61-1.2-1.6-1.21-.8-.6-.74-.68c-1-.9-2-1.79-3-2.71l-2.68-3a14.56,14.56,0,0,1-1.26-1.56l-1.2-1.6A50.12,50.12,0,0,1,2.43,84.28,54.92,54.92,0,0,1,0,68.55,51.75,51.75,0,0,1,2.51,52.87,51.28,51.28,0,0,1,21,27.65Z"/><path d="M14,119.38a5.13,5.13,0,0,0,3.54-4.3l1.3-5.79,2.69-11.57c1.8-7.72,3.69-15.4,5.53-23.1a.5.5,0,0,1,.59-.37l2.39.55a.49.49,0,0,1,.38.59c-1.75,7.68-3.43,15.37-5.22,23l-2.69,11.5-1.38,5.74a15.16,15.16,0,0,0-.56,2.87,2.78,2.78,0,0,0,1.07,2.57,2.86,2.86,0,0,1-1.22-2.57,15,15,0,0,1,.46-2.93l1.17-5.79,2.41-11.57c1.62-7.7,3.33-15.38,5-23.08l.37.59-2.39-.54.59-.37c-1.92,7.69-3.79,15.38-5.76,23.06l-2.95,11.5-1.52,5.74a13.69,13.69,0,0,1-.42,1.44,4.81,4.81,0,0,1-.84,1.25A5.82,5.82,0,0,1,14,119.38Z"/><path d="M20.51,118.45a46.94,46.94,0,0,1,6.92,2A23.31,23.31,0,0,1,30.72,122a5.78,5.78,0,0,1,1.47,1.17,1.33,1.33,0,0,1,.35,1,1.28,1.28,0,0,1-.77.79,9.74,9.74,0,0,1-3.65.39c-1.2,0-2.4-.16-3.59-.3q-3.57-.45-7.1-1.15a62.73,62.73,0,0,1-7-1.84c-1.14-.39-2.27-.81-3.37-1.31a10.15,10.15,0,0,1-3.13-2,1.53,1.53,0,0,1-.47-1,1,1,0,0,1,.25-.6,1.41,1.41,0,0,1,.45-.34A5.08,5.08,0,0,1,6,116.36a22,22,0,0,1,3.63,0,48.51,48.51,0,0,1,7.1,1.2s0,0,0,0,0,0,0,0a71.37,71.37,0,0,0-7.12-.77A20.89,20.89,0,0,0,6.1,117c-1.07.13-2.65.5-1.66,1.37a10.68,10.68,0,0,0,2.92,1.82,35,35,0,0,0,3.3,1.34,70.15,70.15,0,0,0,6.85,2.06,49.47,49.47,0,0,0,7,1.27,28.61,28.61,0,0,0,3.58.17,9.58,9.58,0,0,0,3.42-.52.81.81,0,0,0,.47-.43.87.87,0,0,0-.26-.58,5.88,5.88,0,0,0-1.33-1,22.27,22.27,0,0,0-3.18-1.55c-2.2-.91-4.47-1.66-6.76-2.36,0,0,0,0,0,0S20.49,118.44,20.51,118.45Z"/><path d="M4,116.73a1.8,1.8,0,0,0-.55,1.81A2.61,2.61,0,0,0,4.72,120a17.56,17.56,0,0,0,3.61,1.71,69.16,69.16,0,0,0,7.74,2.24c2.62.6,5.26,1.12,7.92,1.48a40.75,40.75,0,0,0,8,.44h0a1.38,1.38,0,0,0,.51-1,4,4,0,0,0,0-1.14,4,4,0,0,1,0,1.15,1.48,1.48,0,0,1-.52,1h0a35.32,35.32,0,0,1-8.09-.18,76.77,76.77,0,0,1-8-1.45A58.11,58.11,0,0,1,8.23,122a17.13,17.13,0,0,1-3.62-1.84,2.71,2.71,0,0,1-1.29-1.55A1.83,1.83,0,0,1,4,116.73Z"/><path d="M52.43,15.62c-1.81,11.11-4,22.57-6.24,34-.6,2.85-1.16,5.69-1.84,8.5a56.48,56.48,0,0,1-2.54,8.31c-1.1,2.65-2.41,5.4-4.74,7.27a9.7,9.7,0,0,1-8.38,1.67,19.41,19.41,0,0,1-2.1-.62,7.29,7.29,0,0,1-2-1,8.5,8.5,0,0,1-1.66-1.51,9.93,9.93,0,0,1-1.18-1.91,17.55,17.55,0,0,1-1.13-8.7c.5-5.85,2.25-11.4,3.62-17,2.86-11.15,5.9-22.25,9-33.32h0a.58.58,0,0,1,.51-.42,8.85,8.85,0,0,1,2.52.15l2.35.5,4.68,1c1.56.34,3.13.66,4.68,1.09A13,13,0,0,1,52.43,15.62Zm-.14.05A13.74,13.74,0,0,0,47.91,14c-1.55-.32-3.13-.52-4.71-.8l-4.72-.79-2.35-.38A8.42,8.42,0,0,0,33.89,12l.51-.43C31.62,22.75,28.75,33.9,25.7,45l-2.27,8.32a57.27,57.27,0,0,0-1.67,8.36A16.66,16.66,0,0,0,22.48,70,7.52,7.52,0,0,0,25,73.18a10.2,10.2,0,0,0,3.84,1.62c2.7.66,5.82.36,8-1.53a16,16,0,0,0,4.38-7.15C43,60.75,43.7,55,44.89,49.41,47.15,38.23,49.55,27.12,52.29,15.67Z"/><path d="M35,11.51l-.77.65,0,0c-.13.28.3.53.6.61l1.13.33c.75.22,1.51.41,2.27.6,1.51.39,3,.75,4.56,1.11l4.56,1.1a10.5,10.5,0,0,0,4.6.22,8.48,8.48,0,0,1-4.71.39c-1.58-.22-3.1-.57-4.64-.91s-3.06-.75-4.57-1.23c-.75-.25-1.49-.52-2.23-.81-.36-.14-.73-.29-1.09-.45a1.69,1.69,0,0,1-.53-.39.52.52,0,0,1-.1-.67h0C34.38,11.83,34.67,11.67,35,11.51Z"/><path d="M31.36,44.73a13.62,13.62,0,0,0-4.13,1.54,6.53,6.53,0,0,0-1.63,1.41,3,3,0,0,0-.79,1.8c0,.56.7.8,1.4.92a14.14,14.14,0,0,0,2.16.24,17,17,0,0,0,4.38-.35,26.41,26.41,0,0,0,8.13-3.45,18.59,18.59,0,0,0,3.48-2.65,7.15,7.15,0,0,0,2.1-3.62l.6.41a26.1,26.1,0,0,1-3.54,2.12,10.62,10.62,0,0,1-2,.71,11.59,11.59,0,0,1-2.09.26c-1.38,0-2.72-.07-4.07.06A30.46,30.46,0,0,0,31.36,44.73Zm0-.07c1.32-.32,2.65-.58,4-.81s2.73-.28,4.06-.41a10.69,10.69,0,0,0,3.78-1,27.77,27.77,0,0,0,3.44-2.07h0a.39.39,0,0,1,.54.11.4.4,0,0,1,.06.3,8,8,0,0,1-2.4,3.94,17.35,17.35,0,0,1-3.72,2.56,41.39,41.39,0,0,1-8.29,3.36,17.16,17.16,0,0,1-4.46.64,13.29,13.29,0,0,1-2.27-.19,3.12,3.12,0,0,1-1.17-.37,1.47,1.47,0,0,1-.73-1.16,3.25,3.25,0,0,1,1-2.16A6.88,6.88,0,0,1,27.08,46,18.62,18.62,0,0,1,31.35,44.66Z"/><path d="M32.12,44.19a4.41,4.41,0,0,1,2.23-1c.81-.18,1.62-.27,2.38-.47a6,6,0,0,0,2.09-1c.33-.22.63-.49,1-.71a1.33,1.33,0,0,1,1.34-.13h0a.15.15,0,0,1,.07.12,1.6,1.6,0,0,1-1.37,1.59A1.55,1.55,0,0,0,40.94,41l.08.12a1,1,0,0,0-1,.22c-.31.2-.61.49-.94.74a5.9,5.9,0,0,1-2.26,1.11,24.12,24.12,0,0,1-2.44.33A5.46,5.46,0,0,0,32.12,44.19Z"/><path d="M27.18,75.51a2.42,2.42,0,0,1,.76,0,2.17,2.17,0,0,1,.71.29,2.46,2.46,0,0,1-.77,0A2.12,2.12,0,0,1,27.18,75.51Z"/><path d="M27.18,76.75a3.29,3.29,0,0,1,.71.06,3,3,0,0,1,.68.22,1.64,1.64,0,0,1-.73,0A1.43,1.43,0,0,1,27.18,76.75Z"/><path d="M26.85,78.13a5.68,5.68,0,0,1,.72,0,6.47,6.47,0,0,1,.71.11,1.33,1.33,0,0,1-.73.14A1.31,1.31,0,0,1,26.85,78.13Z"/><path d="M26.42,79.19a1.87,1.87,0,0,1,.71,0,2.17,2.17,0,0,1,.67.28,2.15,2.15,0,0,1-.72,0A2,2,0,0,1,26.42,79.19Z"/><path d="M26.05,80.35a2.28,2.28,0,0,1,.52,0,1.73,1.73,0,0,1,.51.15.86.86,0,0,1-.54.1A.84.84,0,0,1,26.05,80.35Z"/><path d="M25.84,81.65a2.72,2.72,0,0,1,.81.06,2.31,2.31,0,0,1,.75.3,2.45,2.45,0,0,1-.81-.06A2.51,2.51,0,0,1,25.84,81.65Z"/><path d="M25.55,83.32a1.42,1.42,0,0,1,.58,0,1.39,1.39,0,0,1,.52.25,1.26,1.26,0,0,1-.58,0A1.39,1.39,0,0,1,25.55,83.32Z"/><path d="M25.5,84.75a8.48,8.48,0,0,1,1.11.25A.82.82,0,0,1,25.5,84.75Z"/><path d="M25.14,86.31a2,2,0,0,1,.72,0,1.85,1.85,0,0,1,.69.22,1.94,1.94,0,0,1-.72,0A1.86,1.86,0,0,1,25.14,86.31Z"/><path d="M25.14,87.55a1.84,1.84,0,0,1,.67.08,1.7,1.7,0,0,1,.59.32,1.6,1.6,0,0,1-.66-.08A1.67,1.67,0,0,1,25.14,87.55Z"/><path d="M24.9,89a4.1,4.1,0,0,1,1.15.47A1.05,1.05,0,0,1,24.9,89Z"/><path d="M24.14,90.92c.44.14.75.25,1.18.41A.93.93,0,0,1,24.14,90.92Z"/><path d="M20.4,105a.64.64,0,0,1,.89.38A4.11,4.11,0,0,1,20.4,105Z"/><path d="M20,106.89a1.5,1.5,0,0,1,.63,0,1.6,1.6,0,0,1,.58.23,1.45,1.45,0,0,1-.62,0A1.72,1.72,0,0,1,20,106.89Z"/><path d="M21,102.5a5.09,5.09,0,0,1,.93.18A.61.61,0,0,1,21,102.5Z"/><path d="M20.07,108.82a34.32,34.32,0,0,1-1,4.89,36.11,36.11,0,0,1-1.72,4.69c.51-1.59,1-3.16,1.48-4.76S19.65,110.43,20.07,108.82Z"/><path d="M13,118a19.65,19.65,0,0,0-3.33-.39c-.55,0-1.11,0-1.67,0a1.49,1.49,0,0,0-.74.21.6.6,0,0,0-.28.62v0a2.22,2.22,0,0,0,1.45.89,2.14,2.14,0,0,1-1.59-.79v0a.78.78,0,0,1,.31-.85,1.69,1.69,0,0,1,.85-.26,10.73,10.73,0,0,1,1.7,0A12.1,12.1,0,0,1,13,118Z"/><path d="M34.05,15.65c.51.2,1,.43,1.51.6s1,.33,1.54.5a4.36,4.36,0,0,1-1.63-.27A4.42,4.42,0,0,1,34.05,15.65Z"/><path d="M33.77,17.35c.45.12.87.28,1.31.38s.88.21,1.33.33A3.44,3.44,0,0,1,35,18,3.26,3.26,0,0,1,33.77,17.35Z"/><path d="M32.92,18.9c.54.11,1,.27,1.55.41s1,.29,1.54.48a5.74,5.74,0,0,1-1.6-.24A6.18,6.18,0,0,1,32.92,18.9Z"/><path d="M32.49,21.13c.51.1,1,.26,1.47.39s1,.26,1.44.44a4.83,4.83,0,0,1-1.51-.2A5.51,5.51,0,0,1,32.49,21.13Z"/><path d="M32.67,23.28c.48.13.93.31,1.4.45s.93.28,1.4.46A4.63,4.63,0,0,1,34,24,4.25,4.25,0,0,1,32.67,23.28Z"/><path d="M31.71,24.94c.66.21,1.28.46,1.93.67s1.28.41,1.93.64a7.64,7.64,0,0,1-2-.41A7.54,7.54,0,0,1,31.71,24.94Z"/><path d="M31.31,26.67l3.46.95a6.45,6.45,0,0,1-1.8-.24A6.25,6.25,0,0,1,31.31,26.67Z"/><path d="M30.89,28c.63.2,1.23.43,1.84.62s1.23.38,1.85.6a7.08,7.08,0,0,1-1.93-.36A7.36,7.36,0,0,1,30.89,28Z"/><path d="M30.25,29.92l3.87,1.29a7.64,7.64,0,0,1-2-.41A7.55,7.55,0,0,1,30.25,29.92Z"/><path d="M30.3,31.39a9.59,9.59,0,0,0,3.44,1.48A4.25,4.25,0,0,1,30.3,31.39Z"/><path d="M29.42,33.93c.57.17,1.12.37,1.68.5s1.13.24,1.71.36A4.81,4.81,0,0,1,31,34.67,4.86,4.86,0,0,1,29.42,33.93Z"/><path d="M28.79,35.42c.62.2,1.22.43,1.84.6s1.23.33,1.86.5a6.33,6.33,0,0,1-1.93-.26A6,6,0,0,1,28.79,35.42Z"/><path d="M28.42,37.33l3.45,1a6.44,6.44,0,0,1-1.8-.28A6.19,6.19,0,0,1,28.42,37.33Z"/><path d="M27.8,38.79c.65.2,1.28.45,1.93.65l1.93.63a7.62,7.62,0,0,1-2-.39A7.89,7.89,0,0,1,27.8,38.79Z"/><path d="M27.23,40.8c.68.18,1.33.39,2,.54s1.35.3,2,.46a7.05,7.05,0,0,1-2.09-.22A7.24,7.24,0,0,1,27.23,40.8Z"/><path d="M26.72,42.58c.7.24,1.37.49,2.07.67s1.41.31,2.13.44a6.5,6.5,0,0,1-2.19-.2A6.65,6.65,0,0,1,26.72,42.58Z"/><path d="M26.29,44.42c.69.2,1.35.44,2,.63s1.36.37,2.05.58a8,8,0,0,1-2.12-.34A8.2,8.2,0,0,1,26.29,44.42Z"/><path d="M26.25,46.18c.59.24,1.14.5,1.73.69s1.17.36,1.78.54a5.37,5.37,0,0,1-3.51-1.23Z"/><path d="M26.08,48.62c.57.11,1.11.25,1.67.35s1.1.19,1.67.31a5.6,5.6,0,0,1-3.34-.66Z"/><path d="M25.5,49.84c.66.21,1.3.43,1.95.58s1.32.29,2,.42a6,6,0,0,1-2.06-.18A6.24,6.24,0,0,1,25.5,49.84Z"/><path d="M24.83,51.11c.78.22,1.54.46,2.33.61s1.57.27,2.38.38A7.64,7.64,0,0,1,27.11,52,7.93,7.93,0,0,1,24.83,51.11Z"/><path d="M24.37,52.65a25.44,25.44,0,0,0,2.54.75c.86.22,1.73.34,2.61.48a8.93,8.93,0,0,1-2.67-.24A8.76,8.76,0,0,1,24.37,52.65Z"/><path d="M24.52,54.45c.85.19,1.68.43,2.52.63s1.68.41,2.52.65A13.33,13.33,0,0,1,27,55.32,12.86,12.86,0,0,1,24.52,54.45Z"/><path d="M24.16,56.44a12.93,12.93,0,0,0,5.49,1A7.31,7.31,0,0,1,24.16,56.44Z"/><path d="M24,58.05a20.75,20.75,0,0,0,2.66.68,20.39,20.39,0,0,0,2.72.31A8.59,8.59,0,0,1,26.59,59,8.84,8.84,0,0,1,24,58.05Z"/><path d="M23.18,59.79a10.42,10.42,0,0,0,5.17,1.56A6.31,6.31,0,0,1,23.18,59.79Z"/><path d="M22.49,61.88a13.33,13.33,0,0,0,5.71,1.37A7.74,7.74,0,0,1,22.49,61.88Z"/><path d="M22.67,63.61c.85.16,1.66.38,2.49.57s1.65.4,2.47.64a14.63,14.63,0,0,1-2.53-.4A14.14,14.14,0,0,1,22.67,63.61Z"/><path d="M22.59,65.24c.79.26,1.56.53,2.35.71s1.6.32,2.42.45a8.13,8.13,0,0,1-4.77-1.16Z"/><path d="M23.48,67.25c.77.13,1.52.29,2.28.4s1.52.22,2.29.35a9.56,9.56,0,0,1-2.33-.1A9.74,9.74,0,0,1,23.48,67.25Z"/><path d="M24.49,69.15a11.52,11.52,0,0,0,3.64.6A4.46,4.46,0,0,1,24.49,69.15Z"/><path d="M23.76,70.6c.87.13,1.72.29,2.58.39s1.72.19,2.6.29a11.56,11.56,0,0,1-2.63,0A10.69,10.69,0,0,1,23.76,70.6Z"/><path d="M36.09,25c-1.49,5-3,10-4.36,15s-2.71,10.06-4,15.1C28.81,50,30.13,45,31.49,39.92S34.4,29.91,36.09,25Z"/><path d="M32.89,70.63a1.39,1.39,0,0,0,.9.8,2.4,2.4,0,0,0,1.22.11,3.51,3.51,0,0,0,2.05-1.27,8,8,0,0,0,1.25-2.1,2.88,2.88,0,0,0,0-2.32l0,0s-.16,0-.29.12l-.42.25-.84.49-1.67,1a6.52,6.52,0,0,0-1.53,1.18A2.34,2.34,0,0,0,32.89,70.63Zm0,0a2.41,2.41,0,0,1,.69-1.76,7.8,7.8,0,0,1,1.5-1.24l1.64-1,.82-.53.41-.26c.12,0,.3-.28.58-.07h0a2.94,2.94,0,0,1,0,2.51,7.36,7.36,0,0,1-1.35,2.12A3.6,3.6,0,0,1,35,71.58a2.57,2.57,0,0,1-1.23-.13A1.37,1.37,0,0,1,32.89,70.63Z"/><path d="M39.42,57.63a1.31,1.31,0,0,0-.12.65.26.26,0,0,0,.4.17.31.31,0,0,0,.2-.42A.62.62,0,0,0,39.42,57.63Zm0,0a.63.63,0,0,1,.66.32.55.55,0,0,1-.73.72.45.45,0,0,1-.24-.36A1,1,0,0,1,39.42,57.63Z"/><path d="M41.11,55.91c-.24-.12-.64-.08-.68.19a.6.6,0,0,0,.38.56c.21.12.5.15.62-.07S41.36,56,41.11,55.91Zm0,0a.72.72,0,0,1,.44.72.45.45,0,0,1-.37.33.78.78,0,0,1-.48-.07.72.72,0,0,1-.39-.83A.57.57,0,0,1,41.11,55.91Z"/><path d="M38.77,57.22s-.07,0-.07,0,0,.08.09.06.06-.1,0-.11S38.75,57.17,38.77,57.22Zm0,0a.06.06,0,0,1-.12,0s0-.14.05-.19.19.05.17.1S38.82,57.26,38.77,57.22Z"/><path d="M39.83,51.13a.56.56,0,0,0,.49.15l0,0a.75.75,0,0,0,.21-.5l0,.08a.71.71,0,0,0-.32-.22l.11,0C40.17,50.78,40,50.94,39.83,51.13Zm0,0a3.93,3.93,0,0,1,.3-.63.09.09,0,0,1,.1,0h0a1,1,0,0,1,.45.27.09.09,0,0,1,0,.08.79.79,0,0,1-.35.64h0A.51.51,0,0,1,39.83,51.13Z"/><path d="M34.28,59.53a3.26,3.26,0,0,0-1.21-.33h0a.74.74,0,0,0,0,1.08,1.21,1.21,0,0,0,1.18.17h0a.12.12,0,0,1,.15.08.13.13,0,0,1,0,.06.63.63,0,0,0,.31.6.84.84,0,0,0,.73,0A1.59,1.59,0,0,0,36.43,60a1.57,1.57,0,0,1-.85,1.44,1,1,0,0,1-.91,0,.86.86,0,0,1-.43-.82l.16.13A1.37,1.37,0,0,1,33,60.43.89.89,0,0,1,33,59.07a0,0,0,0,1,.05,0A2.69,2.69,0,0,1,34.28,59.53Z"/><path d="M36.19,58.4a.54.54,0,0,0,.33-.67.44.44,0,0,0-.57-.26.45.45,0,0,0-.38.51A.53.53,0,0,0,36.19,58.4Zm0,0a.67.67,0,0,1-.74-.38.56.56,0,0,1,0-.49.73.73,0,0,1,.41-.3.68.68,0,0,1,.5.06.54.54,0,0,1,.25.42A.66.66,0,0,1,36.19,58.4Z"/><path d="M42.57,70a36.14,36.14,0,0,0,2.72-6.26,36.79,36.79,0,0,0,1.5-6.65,25.81,25.81,0,0,1-1.26,6.73A25.48,25.48,0,0,1,42.57,70Z"/><path d="M81,127.76a2.77,2.77,0,0,0,1.1-2.56,15.06,15.06,0,0,0-.52-2.87l-1.32-5.76-2.57-11.52c-1.72-7.68-3.32-15.39-5-23.08a.49.49,0,0,1,.38-.59l2.39-.52a.49.49,0,0,1,.59.37L78.67,92.8c.89,3.85,1.79,7.7,2.64,11.57L83.88,116l1.24,5.81a5.12,5.12,0,0,0,3.49,4.32,5.67,5.67,0,0,1-2.5-1.56,4.81,4.81,0,0,1-.84-1.25c-.19-.49-.26-1-.4-1.45l-1.46-5.75-2.84-11.53c-1-3.84-1.85-7.69-2.77-11.54L75.05,81.46l.59.37-2.4.52.38-.59c1.58,7.71,3.22,15.41,4.75,23.13l2.3,11.58,1.11,5.8a15.8,15.8,0,0,1,.42,2.93A2.83,2.83,0,0,1,81,127.76Z"/><path d="M82.16,125.16c-2.29.68-4.57,1.42-6.78,2.3a24.11,24.11,0,0,0-3.2,1.53,6.42,6.42,0,0,0-1.34,1,.83.83,0,0,0-.26.58A.77.77,0,0,0,71,131a9.59,9.59,0,0,0,3.42.55,30.6,30.6,0,0,0,3.58-.13,48.48,48.48,0,0,0,7.06-1.22,71,71,0,0,0,6.87-2,34.91,34.91,0,0,0,3.3-1.32,10.56,10.56,0,0,0,2.94-1.79c1-.86-.57-1.25-1.64-1.39a20.86,20.86,0,0,0-3.54-.1,68.35,68.35,0,0,0-7.12.7,0,0,0,0,1,0,0,.05.05,0,0,1,0,0A50.13,50.13,0,0,1,93,123.15a22.12,22.12,0,0,1,3.64,0,5.1,5.1,0,0,1,1.85.47,1.73,1.73,0,0,1,.44.35,1,1,0,0,1,.24.61,1.58,1.58,0,0,1-.48,1,10.33,10.33,0,0,1-3.15,2c-1.11.49-2.24.9-3.38,1.28a60.62,60.62,0,0,1-7,1.77q-3.54.69-7.11,1.09c-1.2.13-2.39.23-3.6.27a9.53,9.53,0,0,1-3.64-.43,1.22,1.22,0,0,1-.76-.79,1.32,1.32,0,0,1,.36-1.05,5.58,5.58,0,0,1,1.48-1.15A23.42,23.42,0,0,1,75.21,127a47.86,47.86,0,0,1,6.94-1.91s0,0,0,0A0,0,0,0,1,82.16,125.16Z"/><path d="M98.71,123.53a1.86,1.86,0,0,1,.63,1.84A2.76,2.76,0,0,1,98,126.91a18.09,18.09,0,0,1-3.63,1.81A60.22,60.22,0,0,1,86.62,131a76.92,76.92,0,0,1-8,1.38,35.88,35.88,0,0,1-8.09.11h0a1.45,1.45,0,0,1-.51-1,4.42,4.42,0,0,1,.06-1.15,3.63,3.63,0,0,0,0,1.14,1.32,1.32,0,0,0,.5.95h0a40.85,40.85,0,0,0,8-.37c2.66-.34,5.31-.83,7.93-1.42a69.12,69.12,0,0,0,7.76-2.16,18.19,18.19,0,0,0,3.64-1.68,2.69,2.69,0,0,0,1.32-1.4A1.81,1.81,0,0,0,98.71,123.53Z"/><path d="M51.42,22.07c2.94,13,5.59,25.7,7.91,38.48a88.5,88.5,0,0,0,1.92,9.54c.91,3.09,2,6.27,4.08,8.7a8.18,8.18,0,0,0,3.94,2.57,7.83,7.83,0,0,0,1.17.24c.4,0,.8.06,1.2.08A9.56,9.56,0,0,0,74,81.45a10.3,10.3,0,0,0,4.37-1.82A7.93,7.93,0,0,0,81,75.8c1-3,.68-6.31.24-9.5a79.78,79.78,0,0,0-2.15-9.5c-1.67-6.33-3.34-12.66-4.91-19S71,25.07,69.49,18.71l-.07-.27a.18.18,0,0,0,.08.09c.19,0-.17,0-.32,0a8.9,8.9,0,0,0-1.15,0c-.77.08-1.6.24-2.41.34-1.63.23-3.25.42-4.85.7L56,20.51A14,14,0,0,0,51.42,22.07ZM51.28,22a13.22,13.22,0,0,1,4.57-2c1.6-.39,3.16-.84,4.78-1.19s3.23-.63,4.83-.92c.81-.14,1.58-.33,2.44-.46a8,8,0,0,1,1.3-.1h.33a1.22,1.22,0,0,1,.56.14,1,1,0,0,1,.44.56l.09.33c1.71,6.32,3.43,12.64,5,19s3.22,12.69,4.78,19.05c.38,1.59.81,3.17,1.15,4.79s.62,3.26.81,4.9c.38,3.26.55,6.73-.64,9.94a8.77,8.77,0,0,1-3,4.07l-.52.37-.57.3a5.69,5.69,0,0,1-1.17.49,17.72,17.72,0,0,1-2.4.66,10.43,10.43,0,0,1-2.5.21c-.41,0-.83-.05-1.25-.1a10.38,10.38,0,0,1-1.23-.27,9.27,9.27,0,0,1-2.29-1,10.63,10.63,0,0,1-1.91-1.63,17,17,0,0,1-2.67-4.2,40.49,40.49,0,0,1-1.82-4.61,81.27,81.27,0,0,1-2.35-9.62C55.51,47.76,53.26,34.69,51.28,22Z"/><path d="M68.78,18.07c.3.16.59.32.87.5h0a.54.54,0,0,1-.11.68,1.64,1.64,0,0,1-.53.37c-.36.16-.73.3-1.1.45-.74.28-1.49.54-2.24.79-1.51.46-3,.85-4.58,1.19s-3.06.66-4.65.87a8.49,8.49,0,0,1-4.71-.44,10.7,10.7,0,0,0,4.61-.17l4.57-1.07c1.53-.35,3.05-.69,4.57-1.07.76-.18,1.52-.36,2.27-.57l1.13-.32c.31-.08.74-.33.61-.61l0,0Z"/><path d="M61.49,56.37A18.49,18.49,0,0,0,66.7,60.3a23.86,23.86,0,0,0,3,1.27,22.79,22.79,0,0,0,3.14.76,18.31,18.31,0,0,0,3.23.17,20.42,20.42,0,0,1,3.32,0,4.12,4.12,0,0,1,.84.15,1,1,0,0,1,.66.63,2.61,2.61,0,0,1-.16,1.7,4.06,4.06,0,0,1-2.48,2.18,10.33,10.33,0,0,1-3.3.54,13,13,0,0,1-3.34-.35,16.69,16.69,0,0,1-6-2.88A19,19,0,0,1,61,59.53a18,18,0,0,0-1.79-2.69,15.08,15.08,0,0,1-1.12-1.24,2.42,2.42,0,0,1-.41-.8,1.21,1.21,0,0,1,.12-.91h0a.14.14,0,0,1,.12-.06,3.79,3.79,0,0,1,2,1A15.3,15.3,0,0,1,61.49,56.37Zm-.06.05a15,15,0,0,0-1.56-1.53,3.25,3.25,0,0,0-1.94-.8l.13-.07a1.22,1.22,0,0,0,.36,1.33,16,16,0,0,0,1.19,1.11,15.44,15.44,0,0,1,2,2.68,22.09,22.09,0,0,0,2,2.53A21.29,21.29,0,0,0,66,63.82a16.55,16.55,0,0,0,5.72,2.9,13.76,13.76,0,0,0,3.19.49,9.84,9.84,0,0,0,3.2-.35,3.75,3.75,0,0,0,2.37-2,2.39,2.39,0,0,0,.13-1.53c-.14-.48-.77-.51-1.29-.57A20.17,20.17,0,0,0,76.1,63a13.91,13.91,0,0,1-3.35,0,15.56,15.56,0,0,1-6.26-2.28,20.66,20.66,0,0,1-2.67-2A23.51,23.51,0,0,1,61.43,56.42Z"/><path d="M73.68,130.55c-.47,0-.55-.73-.21-1a5.36,5.36,0,0,1,1-.69,22.65,22.65,0,0,1,2.2-1.11,21.21,21.21,0,0,1,4.71-1.45A41.54,41.54,0,0,0,76.81,128c-.75.32-1.48.68-2.21,1.06a5.36,5.36,0,0,0-1,.61.61.61,0,0,0-.23.5A.42.42,0,0,0,73.68,130.55Z"/><path d="M73.16,83c-.12,0,0,.08.08,0l.28,0c.19,0,.37-.07.55-.12.37-.08.72-.21,1.11-.31a2.37,2.37,0,0,1-1.05.55,2.88,2.88,0,0,1-.59.07l-.3,0a.29.29,0,0,1-.16-.06C73,83,73.14,82.89,73.16,83Z"/><path d="M73.59,84c.3-.15.6-.24.89-.37s.59-.23.92-.32a2,2,0,0,1-.83.56A2.16,2.16,0,0,1,73.59,84Z"/><path d="M73.73,85a8.77,8.77,0,0,0,1.72-.6A1.53,1.53,0,0,1,73.73,85Z"/><path d="M74.45,86a5.69,5.69,0,0,1,.79-.38,6.22,6.22,0,0,1,.83-.26,1.94,1.94,0,0,1-.74.5A2.17,2.17,0,0,1,74.45,86Z"/><path d="M74.39,87.05c.64-.19,1.18-.38,1.8-.63A1.82,1.82,0,0,1,74.39,87.05Z"/><path d="M74.67,88.28a8.13,8.13,0,0,1,.85-.4,7.71,7.71,0,0,1,.89-.27,2.42,2.42,0,0,1-.8.51A2.3,2.3,0,0,1,74.67,88.28Z"/><path d="M75,89.56l2.12-.72a2.48,2.48,0,0,1-1,.6A2.44,2.44,0,0,1,75,89.56Z"/><path d="M75.24,90.93c.59-.22,1.11-.4,1.71-.59A1.84,1.84,0,0,1,75.24,90.93Z"/><path d="M75.9,92.25a17.4,17.4,0,0,0,1.85-.74A1.9,1.9,0,0,1,75.9,92.25Z"/><path d="M76.33,94.53a3.52,3.52,0,0,1,.72-.27,3,3,0,0,1,.76-.11,1.71,1.71,0,0,1-.7.35A1.87,1.87,0,0,1,76.33,94.53Z"/><path d="M77,95.92a4.26,4.26,0,0,1,.53-.31,4.38,4.38,0,0,1,.58-.2,1,1,0,0,1-.47.43A1,1,0,0,1,77,95.92Z"/><path d="M77.5,97.52a3.1,3.1,0,0,1,1.31-.47,1.51,1.51,0,0,1-.6.4A1.54,1.54,0,0,1,77.5,97.52Z"/><path d="M80.58,115.75c.84-.23,1.52-.66,2.35-1a4.17,4.17,0,0,1-1.07.74A2.45,2.45,0,0,1,80.58,115.75Z"/><path d="M80.25,113.55a14.4,14.4,0,0,0,1.53-.62A1.39,1.39,0,0,1,80.25,113.55Z"/><path d="M80.1,112c.4-.1.67-.16,1.08-.23A.76.76,0,0,1,80.1,112Z"/><path d="M81.28,117.53c.66-.13,1.22-.26,1.87-.42A1.88,1.88,0,0,1,81.28,117.53Z"/><path d="M81.59,118.67c.52-.13,1-.23,1.49-.32A1.36,1.36,0,0,1,81.59,118.67Z"/><path d="M82,120.07a12.16,12.16,0,0,1,1.41-.56A1.36,1.36,0,0,1,82,120.07Z"/><path d="M82.09,121.69a7.31,7.31,0,0,0,1.59-.42A1.28,1.28,0,0,1,82.09,121.69Z"/><path d="M82.81,127.64a4.47,4.47,0,0,0,3-.7A2.54,2.54,0,0,1,82.81,127.64Z"/><path d="M52.45,24.28c.74,0,1.46,0,2.18-.09s1.44-.16,2.17-.25a7,7,0,0,1-2.15.5A7.38,7.38,0,0,1,52.45,24.28Z"/><path d="M53.33,25.45c.58-.06,1.14-.07,1.7-.15s1.12-.15,1.7-.21a5.13,5.13,0,0,1-1.67.46A5,5,0,0,1,53.33,25.45Z"/><path d="M53.5,26.87c.59-.06,1.17-.08,1.76-.16s1.15-.16,1.75-.23a5.43,5.43,0,0,1-1.73.48A5.6,5.6,0,0,1,53.5,26.87Z"/><path d="M53.83,28.42c.57-.09,1.13-.15,1.69-.26s1.1-.22,1.67-.33a5.2,5.2,0,0,1-1.63.58A5.28,5.28,0,0,1,53.83,28.42Z"/><path d="M54.49,30.43c.56-.1,1.11-.14,1.66-.23S57.24,30,57.81,30a5.76,5.76,0,0,1-1.63.47A5.63,5.63,0,0,1,54.49,30.43Z"/><path d="M54.53,32.08A12.14,12.14,0,0,0,58,31.51,4.2,4.2,0,0,1,54.53,32.08Z"/><path d="M55.3,34c.44-.17.88-.27,1.32-.4s.89-.21,1.36-.26a5.17,5.17,0,0,1-1.3.51A5.31,5.31,0,0,1,55.3,34Z"/><path d="M55.09,35.36c.61-.13,1.2-.22,1.79-.36s1.18-.28,1.78-.42a5.92,5.92,0,0,1-1.72.67A6.38,6.38,0,0,1,55.09,35.36Z"/><path d="M55.4,37.13a12.1,12.1,0,0,0,3.07-.81A3.7,3.7,0,0,1,55.4,37.13Z"/><path d="M55.27,38.63c.66-.07,1.31-.11,1.95-.21s1.28-.2,1.94-.3a6.35,6.35,0,0,1-1.91.55A6.26,6.26,0,0,1,55.27,38.63Z"/><path d="M55.84,40a10.5,10.5,0,0,0,3.49-.72A4.15,4.15,0,0,1,55.84,40Z"/><path d="M55.9,41.44c.6-.1,1.2-.16,1.78-.29s1.17-.26,1.77-.4a5.27,5.27,0,0,1-1.72.65A5.36,5.36,0,0,1,55.9,41.44Z"/><path d="M56.11,43.2c.54-.11,1.07-.18,1.59-.31s1-.26,1.57-.38a4.53,4.53,0,0,1-1.52.63A4.75,4.75,0,0,1,56.11,43.2Z"/><path d="M56.81,44.91c.48-.2,1-.32,1.43-.47s1-.27,1.46-.35a5.49,5.49,0,0,1-1.39.59A5.79,5.79,0,0,1,56.81,44.91Z"/><path d="M57,46.11c.53-.11,1-.18,1.57-.31s1-.24,1.56-.35a4.82,4.82,0,0,1-1.51.6A4.89,4.89,0,0,1,57,46.11Z"/><path d="M57.5,48c.49-.11,1-.17,1.44-.3s.93-.24,1.42-.36a3.8,3.8,0,0,1-1.36.61A4,4,0,0,1,57.5,48Z"/><path d="M57.84,50.18c.48-.22,1-.36,1.45-.54s1-.34,1.47-.46a5.64,5.64,0,0,1-1.39.69A5.7,5.7,0,0,1,57.84,50.18Z"/><path d="M57.51,51.76a15.58,15.58,0,0,1,1.9-.62,16.12,16.12,0,0,1,2-.37,13.61,13.61,0,0,1-1.9.62A15.77,15.77,0,0,1,57.51,51.76Z"/><path d="M57.53,53.56c.66-.18,1.32-.33,2-.53s1.28-.42,1.93-.63a6.42,6.42,0,0,1-1.86.86A6.66,6.66,0,0,1,57.53,53.56Z"/><path d="M58.64,55.08c.53-.11,1-.18,1.54-.33s1-.29,1.51-.44a4,4,0,0,1-1.45.69A4.11,4.11,0,0,1,58.64,55.08Z"/><path d="M59,56.9c.52-.15,1-.24,1.53-.37s1-.25,1.53-.35A5.37,5.37,0,0,1,59,56.9Z"/><path d="M59.72,58.72c.6-.13,1.19-.25,1.77-.43s1.14-.38,1.72-.59a5.12,5.12,0,0,1-3.49,1Z"/><path d="M59.6,60.77c.67-.18,1.34-.33,2-.54s1.3-.41,2-.61a7.56,7.56,0,0,1-4,1.15Z"/><path d="M59.89,62.59a16.27,16.27,0,0,1,2-.66,15.22,15.22,0,0,1,2-.42,14.69,14.69,0,0,1-2,.66A15.56,15.56,0,0,1,59.89,62.59Z"/><path d="M60.91,64.08c.61-.18,1.21-.32,1.79-.53s1.16-.42,1.75-.63a5.55,5.55,0,0,1-1.67.87A5.94,5.94,0,0,1,60.91,64.08Z"/><path d="M61,65.54a15.13,15.13,0,0,0,3.94-.78A5.42,5.42,0,0,1,61,65.54Z"/><path d="M61.62,67.07c.73-.12,1.45-.21,2.17-.37s1.42-.32,2.14-.48a7.36,7.36,0,0,1-2.1.72A7.81,7.81,0,0,1,61.62,67.07Z"/><path d="M62.05,68.62c.69-.17,1.37-.3,2-.49s1.33-.39,2-.57a7.25,7.25,0,0,1-1.95.81A7.84,7.84,0,0,1,62.05,68.62Z"/><path d="M62.57,70.24a15.79,15.79,0,0,0,3.91-.73A5.37,5.37,0,0,1,62.57,70.24Z"/><path d="M63.45,72.05c.66-.15,1.3-.27,1.93-.48s1.25-.43,1.88-.67a5.51,5.51,0,0,1-1.81.91A5.66,5.66,0,0,1,63.45,72.05Z"/><path d="M64.24,73.11c.71-.16,1.42-.29,2.11-.49s1.37-.4,2.07-.6a7.78,7.78,0,0,1-4.18,1.09Z"/><path d="M64.88,74.66a18.33,18.33,0,0,0,4.21-1.54,6.47,6.47,0,0,1-2,1.14A6.38,6.38,0,0,1,64.88,74.66Z"/><path d="M64.82,76.27A11.07,11.07,0,0,0,70.14,75,6.59,6.59,0,0,1,64.82,76.27Z"/><path d="M66,77.42a20.1,20.1,0,0,0,2.59-.24,22.94,22.94,0,0,0,2.53-.56,8.06,8.06,0,0,1-2.5.81A8.23,8.23,0,0,1,66,77.42Z"/><path d="M67.43,78.48a16,16,0,0,0,4.07-.81,8.27,8.27,0,0,1-2,.78A4.19,4.19,0,0,1,67.43,78.48Z"/><path d="M69.17,79.83c.51-.16,1-.27,1.53-.43s1-.29,1.53-.41a5.26,5.26,0,0,1-1.47.66A5.32,5.32,0,0,1,69.17,79.83Z"/><path d="M71.79,80.77c.43-.15.86-.26,1.27-.42s.81-.32,1.24-.47a3.3,3.3,0,0,1-1.16.71A3.25,3.25,0,0,1,71.79,80.77Z"/><path d="M77.21,75a1.47,1.47,0,0,0,1.9-.61,5.62,5.62,0,0,0,.65-2.08,14.62,14.62,0,0,0-.08-4.38c-.23-1.45-.58-2.88-1-4.3a7.26,7.26,0,0,0-.87-2,1.74,1.74,0,0,0-.82-.59c-.33-.11-.7,0-.64.3v0a22.16,22.16,0,0,1,1,6.9A20.35,20.35,0,0,1,77,71.73c-.1.57-.27,1.13-.33,1.71A1.6,1.6,0,0,0,77.21,75Zm0,0a1.61,1.61,0,0,1-.56-1.57c0-.58.21-1.14.31-1.71a21.31,21.31,0,0,0,.31-3.47,22.28,22.28,0,0,0-1.09-6.83v0a.51.51,0,0,1,.32-.56,1,1,0,0,1,.62,0,1.79,1.79,0,0,1,.94.68,7.49,7.49,0,0,1,.88,2.06,42,42,0,0,1,.88,4.33,14.49,14.49,0,0,1,0,4.41,5.49,5.49,0,0,1-.69,2.09A1.5,1.5,0,0,1,77.21,75Z"/><path d="M66.9,67.37c0,.28.24.25.33.13a.16.16,0,0,0,.07-.18.23.23,0,0,0-.22-.17.28.28,0,0,1,.39.07.36.36,0,0,1-.06.46.38.38,0,0,1-.45.08A.25.25,0,0,1,66.9,67.37Z"/><path d="M68.53,68.78a.56.56,0,0,0-.11-.68c-.19-.15-.43-.19-.45,0a.75.75,0,0,0,0,.65A.33.33,0,0,0,68.53,68.78Zm0,0a.42.42,0,0,1-.69.06.79.79,0,0,1-.11-.82.38.38,0,0,1,.43-.25.57.57,0,0,1,.35.25A.72.72,0,0,1,68.53,68.78Z"/><path d="M70.57,69.25a.44.44,0,0,0,.52-.33.4.4,0,0,0-.33-.42l.08,0A1,1,0,0,0,70.57,69.25Zm0,0a.83.83,0,0,1,.11-.94.11.11,0,0,1,.08,0,.55.55,0,0,1,.54.68A.49.49,0,0,1,70.57,69.25Z"/><path d="M70,72.77a.67.67,0,0,0,.7.68.63.63,0,0,0,.59-.65.71.71,0,0,0-.61-.67.41.41,0,0,0-.48.12A1.37,1.37,0,0,0,70,72.77Zm0,0a1.31,1.31,0,0,1,.17-.54.49.49,0,0,1,.53-.22,1.05,1.05,0,0,1,.57.21.84.84,0,0,1,.27.58.77.77,0,0,1-.84.78A.79.79,0,0,1,70,72.77Z"/><path d="M72.51,71.71a.69.69,0,0,0-.28.61c0,.23.19.41.27.67.12.55-.22,1,0,1.41a1.27,1.27,0,0,0,1.06.71,1,1,0,0,0,1-.83,1,1,0,0,1-1,1,1.44,1.44,0,0,1-1.29-.8c-.26-.56.11-1.06,0-1.47,0-.21-.21-.44-.2-.72A.74.74,0,0,1,72.51,71.71Z"/><path d="M78.41,40.06c.8,3,1.59,6,2.35,9.06s1.56,6,2.27,9.08a57.94,57.94,0,0,1,1.43,9.25,25.88,25.88,0,0,1-1,9.27,27.77,27.77,0,0,0,.82-9.26,57.48,57.48,0,0,0-1.5-9.2c-.69-3-1.46-6.07-2.19-9.1S79.12,43.1,78.41,40.06Z"/><path d="M78.78,33.91c.6,2.6,1.34,5.15,2.12,7.71a47.4,47.4,0,0,1,1.7,7.82,69.3,69.3,0,0,0-1.94-7.76A69.21,69.21,0,0,1,78.78,33.91Z"/><path d="M72.44,91.15c1.27,4.39,2.26,8.85,3.19,13.33s1.61,9,2.1,13.54c-.71-4.51-1.42-9-2.34-13.5S73.5,95.59,72.44,91.15Z"/><path d="M58.51,14.94a19.19,19.19,0,0,1,8-4.69l.07.32a8.91,8.91,0,0,1-2.59.22,5.1,5.1,0,0,1-2.47-.94,4.37,4.37,0,0,1-1.44-2.22,12,12,0,0,1-.46-2.57h.47a2,2,0,0,1-1,1.42,4.8,4.8,0,0,1-1.58.59A3.33,3.33,0,0,1,55.74,7a3.8,3.8,0,0,1-1.42-.91,10.44,10.44,0,0,1-1.79-2.74,23.36,23.36,0,0,1-1-3.06l.42,0a20.79,20.79,0,0,1-.42,2.42,5.81,5.81,0,0,1-1,2.27,3.24,3.24,0,0,1-4.57.29A.09.09,0,0,1,46,5.09a4.43,4.43,0,0,1,1.41,4.08,4.36,4.36,0,0,0-1.53-3.94L46,5.09a3,3,0,0,0,4.19-.36,5.66,5.66,0,0,0,.92-2.15c.18-.78.27-1.59.38-2.39A.22.22,0,0,1,51.75,0a.24.24,0,0,1,.18.16,23.86,23.86,0,0,0,1,3,10.34,10.34,0,0,0,1.72,2.59,3.36,3.36,0,0,0,1.25.79,3,3,0,0,0,1.45.06,4.25,4.25,0,0,0,1.41-.51A1.58,1.58,0,0,0,59.59,5h0a.23.23,0,0,1,.26-.2.23.23,0,0,1,.21.21,11.92,11.92,0,0,0,.42,2.47,4,4,0,0,0,1.27,2,5.12,5.12,0,0,0,2.25.9,8.74,8.74,0,0,0,2.49-.17.19.19,0,0,1,.2.14.18.18,0,0,1-.12.19A20,20,0,0,0,58.51,14.94Z"/></g></g></svg>