<svg xmlns="http://www.w3.org/2000/svg" viewBox="0 0 102.81 115.95"><defs><style>.cls-1,.cls-2,.cls-3,.cls-4{fill:none;stroke:#000;stroke-linecap:round;stroke-linejoin:round;stroke-width:0.75px;}.cls-2{stroke-dasharray:1.96 1.96;}.cls-3{stroke-dasharray:1.85 1.85;}.cls-4{stroke-dasharray:1.92 1.92;}</style></defs><title>goodbye</title><g id="Capa_2" data-name="Capa 2"><g id="Capa_1-2" data-name="Capa 1"><path d="M42.73,11.9A51.15,51.15,0,0,0,14.64,27.54,50,50,0,0,0,1.46,56.65a13.64,13.64,0,0,0-.16,2l-.08,2a32.22,32.22,0,0,0,.09,4,28.77,28.77,0,0,0,.38,4c.23,1.33.36,2.68.67,4a50.6,50.6,0,0,0,30,35.77,50.71,50.71,0,0,0,15.68,3.66c1.35,0,2.69.2,4,.15l4-.2c1.34-.09,2.67-.37,4-.55a26.85,26.85,0,0,0,4-.85,48.17,48.17,0,0,0,14.77-6.44,53.42,53.42,0,0,0,12-10.79l2.45-3.24,2.13-3.45a15.4,15.4,0,0,0,1-1.79l.89-1.83c.28-.61.64-1.2.86-1.84l.71-1.9a48.47,48.47,0,0,0,3.16-15.89,50.29,50.29,0,0,0-8.9-30.88,50.66,50.66,0,0,1,9.63,30.9,49,49,0,0,1-3,16.19l-.7,1.95c-.22.66-.57,1.26-.85,1.89l-.89,1.87a15.22,15.22,0,0,1-.95,1.84L94.26,90.9,91.8,94.24A52.47,52.47,0,0,1,79.6,105.4a49.56,49.56,0,0,1-15.14,6.67,29.73,29.73,0,0,1-4.06.9c-1.37.18-2.74.47-4.12.58l-4.15.22c-1.39,0-2.77-.1-4.16-.14A50.84,50.84,0,0,1,7.15,88.45,51.5,51.5,0,0,1,1.09,73,53.91,53.91,0,0,1,.31,56.52,51.11,51.11,0,0,1,42.73,11.9Z"/><path class="cls-1" d="M68.53,28.17l-.39.92"/><path class="cls-2" d="M67.44,30.91c-2.94,8.2-3.56,17.72-1.07,26"/><path class="cls-1" d="M66.66,57.84l.33.94"/><path class="cls-1" d="M60.81,55.12a6.8,6.8,0,0,1,1,.16"/><path class="cls-3" d="M63.52,56a7.21,7.21,0,0,1,.77.5,12.92,12.92,0,0,1,1.39,1.22"/><path class="cls-1" d="M66.31,58.34c.23.26.44.52.64.77l.18-1"/><path class="cls-4" d="M67.57,56.26a10,10,0,0,1,1.11-2.64"/><path class="cls-1" d="M69.24,52.84a5.86,5.86,0,0,1,.7-.71"/><path class="cls-1" d="M66.55,69l-1,.25"/><path class="cls-2" d="M63.71,69.79A42.55,42.55,0,0,0,42.54,84.9"/><path class="cls-1" d="M42,85.71l-.54.84"/><path class="cls-1" d="M40.53,79.42a5.76,5.76,0,0,1,.48.88"/><path class="cls-3" d="M41.54,82.06a5.72,5.72,0,0,1,.08.92,13.1,13.1,0,0,1-.11,1.85"/><path class="cls-1" d="M41.37,85.74c-.07.34-.14.66-.22,1,.29-.16.59-.31.89-.46"/><path class="cls-4" d="M43.78,85.46a10.27,10.27,0,0,1,2.77-.75"/><path class="cls-1" d="M47.51,84.68a5.56,5.56,0,0,1,1,.11"/><path d="M51.76,21.21a18.62,18.62,0,0,0-.53,6.64,6.85,6.85,0,0,0,1.15,3,2.1,2.1,0,0,0,1.28.73,3.44,3.44,0,0,0,1.53,0,10.38,10.38,0,0,0,5.39-3.29,17.38,17.38,0,0,0,3.74-5.19,10.46,10.46,0,0,0,.88-3,2,2,0,0,0,0-1.11c0-.09-.56-.24-1-.27a23.39,23.39,0,0,1-3.41-.21,3.72,3.72,0,0,1-.9-.32,2.65,2.65,0,0,1-.79-.64A6.78,6.78,0,0,1,58.13,16c-.25-.52-.46-1-.72-1.49a2.19,2.19,0,0,0-1-1.06,1.73,1.73,0,0,0-1.41.25,3.52,3.52,0,0,0-1.12,1.15A19.46,19.46,0,0,0,51.76,21.21Zm0,0c.23-1.1.43-2.2.72-3.28a12.8,12.8,0,0,1,1.2-3.15,4.09,4.09,0,0,1,1.11-1.31A2.11,2.11,0,0,1,56.54,13a2.71,2.71,0,0,1,1.39,1.18c.32.49.59,1,.86,1.47A6,6,0,0,0,59.7,17a1.86,1.86,0,0,0,.54.37,2.91,2.91,0,0,0,.69.18c1,.15,2.07-.11,3.28-.07a6.1,6.1,0,0,1,.94.09,1.87,1.87,0,0,1,1.13.63,2.18,2.18,0,0,1,.41,1.17,5.81,5.81,0,0,1,0,1,11.69,11.69,0,0,1-1,3.43,16.49,16.49,0,0,1-4.22,5.51,11.19,11.19,0,0,1-6.17,3.09,4,4,0,0,1-1.79-.16,3.24,3.24,0,0,1-.83-.37,2.3,2.3,0,0,1-.66-.66,7.53,7.53,0,0,1-1-3.28A21.64,21.64,0,0,1,51.76,21.21Z"/><path d="M65.66,1.63a11,11,0,0,0-1.77,2.46,4,4,0,0,0-.41,1.41c-.06.59.07.58.59.65a11.66,11.66,0,0,1,3.05.76,12.82,12.82,0,0,0,1.38.44,4.37,4.37,0,0,0,.59.12s.06,0,0,0-.1.09-.08,0A11.36,11.36,0,0,0,70,2,2.46,2.46,0,0,0,69.51.71,1.52,1.52,0,0,0,68.26.25,3.78,3.78,0,0,0,65.66,1.63Zm0,0A4.63,4.63,0,0,1,68.24,0a1.94,1.94,0,0,1,1.58.34,3,3,0,0,1,.87,1.44,8.93,8.93,0,0,1-.35,6.4,1.36,1.36,0,0,1-.6.59,1.52,1.52,0,0,1-.74.13,4.81,4.81,0,0,1-.9-.21,11.75,11.75,0,0,1-1.48-.63,13.78,13.78,0,0,0-2.7-1.22,1.42,1.42,0,0,1-.84-.51A.85.85,0,0,1,63,5.83,1.86,1.86,0,0,1,63,5.42,4.7,4.7,0,0,1,63.71,4,18.52,18.52,0,0,1,65.66,1.63Z"/><path d="M63.27,5.64a6.47,6.47,0,0,1,4.27.8,20.28,20.28,0,0,0-2.11-.52A19.32,19.32,0,0,0,63.27,5.64Z"/><path d="M63.77,4.64a7,7,0,0,1,1.65,0A7.51,7.51,0,0,1,67,5c-.56,0-1.1-.07-1.64-.12S64.31,4.77,63.77,4.64Z"/><path d="M64.39,3.62a3.14,3.14,0,0,1,1.33-.05A3.07,3.07,0,0,1,67,4c-.44-.07-.85-.17-1.28-.23S64.83,3.7,64.39,3.62Z"/><path d="M65,2.74a2.73,2.73,0,0,1,1.14.08,3,3,0,0,1,1,.49c-.39-.06-.74-.17-1.11-.25S65.38,2.88,65,2.74Z"/><path d="M65.58,1.94a3.29,3.29,0,0,1,1.25-.05,3.37,3.37,0,0,1,1.2.38c-.43,0-.82-.09-1.23-.14S66,2,65.58,1.94Z"/><path d="M66.27,1.24a2.86,2.86,0,0,1,1-.08,2.83,2.83,0,0,1,1,.28,8.9,8.9,0,0,1-1,0A7.24,7.24,0,0,1,66.27,1.24Z"/><path d="M67.08.45a2.44,2.44,0,0,1,1-.11,2.31,2.31,0,0,1,1,.35c-.36,0-.68-.07-1-.1S67.43.52,67.08.45Z"/><path d="M51.85,29.84a4.94,4.94,0,0,0,1.79,1A1.65,1.65,0,0,1,51.85,29.84Z"/><path d="M51.31,28.57a3.58,3.58,0,0,0,2,1.1A1.72,1.72,0,0,1,51.31,28.57Z"/><path d="M51.11,27.54c.42.18.79.4,1.2.58s.8.35,1.21.55a3.38,3.38,0,0,1-1.32-.33A3.42,3.42,0,0,1,51.11,27.54Z"/><path d="M51,26.45c.47.16.91.37,1.36.55s.89.39,1.33.63A5.29,5.29,0,0,1,51,26.45Z"/><path d="M51.1,25.4a7.6,7.6,0,0,0,1.54.76A1.38,1.38,0,0,1,51.1,25.4Z"/><path d="M51.24,24.48c.35.09.66.22,1,.31s.65.19,1,.32A2.08,2.08,0,0,1,52.15,25,2.13,2.13,0,0,1,51.24,24.48Z"/><path d="M51.49,23.35a15.94,15.94,0,0,0,1.9.57A1.88,1.88,0,0,1,51.49,23.35Z"/><path d="M51.7,22a4,4,0,0,1,1,.29,3.67,3.67,0,0,1,.92.52,4.42,4.42,0,0,1-1-.29A4.18,4.18,0,0,1,51.7,22Z"/><path d="M52,20.75c.06.17.23.23.39.3l.5.19c.33.15.66.27,1,.46a2.92,2.92,0,0,1-1.09-.23c-.16-.08-.33-.15-.49-.25A.52.52,0,0,1,52,20.75Z"/><path d="M52.25,19.57a4.45,4.45,0,0,0,1.33.74A1.08,1.08,0,0,1,52.25,19.57Z"/><path d="M52.7,18.63c.32.08.59.21.89.31a8.91,8.91,0,0,1,.86.37,1.92,1.92,0,0,1-1-.14A2,2,0,0,1,52.7,18.63Z"/><path d="M52.65,17.37c.69.33,1.33.6,2.05.88A2.41,2.41,0,0,1,52.65,17.37Z"/><path d="M53,16.42c.3,0,.57.15.85.21s.54.14.83.25A1.78,1.78,0,0,1,53,16.42Z"/><path d="M53.62,15.58a11.46,11.46,0,0,0,1.51.37A1.23,1.23,0,0,1,53.62,15.58Z"/><path d="M54.22,14.41a5.1,5.1,0,0,0,1.48.68A1.2,1.2,0,0,1,54.22,14.41Z"/><path d="M54.94,13.83a4.31,4.31,0,0,1,.69.2,3.82,3.82,0,0,1,.64.32,1.4,1.4,0,0,1-.73-.09A1.36,1.36,0,0,1,54.94,13.83Z"/><path d="M86.23,56.29a22.09,22.09,0,0,1-2.66,6.15,7.39,7.39,0,0,1-2.48,2.36,2.22,2.22,0,0,1-.9.24,3.39,3.39,0,0,1-.91-.08,4.27,4.27,0,0,1-1.63-.75,11.19,11.19,0,0,1-3.83-5.74,16.51,16.51,0,0,1-.93-6.89,11.52,11.52,0,0,1,.87-3.45,4.59,4.59,0,0,1,.43-.86,2.14,2.14,0,0,1,.94-.82,1.82,1.82,0,0,1,1.29,0,6.06,6.06,0,0,1,.86.38c1.07.57,1.89,1.33,2.82,1.69a3,3,0,0,0,.69.19,1.86,1.86,0,0,0,.65-.06A5.82,5.82,0,0,0,82.86,48c.47-.28,1-.58,1.48-.84a2.65,2.65,0,0,1,1.79-.34,2.13,2.13,0,0,1,1.31,1.23,4.17,4.17,0,0,1,.31,1.7,12.78,12.78,0,0,1-.52,3.32C86.94,54.17,86.58,55.23,86.23,56.29Zm0,0a19.42,19.42,0,0,0,1.31-6.52,3.57,3.57,0,0,0-.4-1.56A1.72,1.72,0,0,0,86,47.29a2.11,2.11,0,0,0-1.4.42c-.46.27-.9.61-1.36.93a6.72,6.72,0,0,1-1.56.88,2.69,2.69,0,0,1-1,.17,4.11,4.11,0,0,1-.94-.17A23.11,23.11,0,0,1,76.7,48c-.44-.22-1-.37-1-.28a2,2,0,0,0-.57,1,10.59,10.59,0,0,0-.71,3,17.21,17.21,0,0,0,.67,6.35,10.35,10.35,0,0,0,3,5.53,3.42,3.42,0,0,0,1.33.76,2.07,2.07,0,0,0,1.47,0,6.73,6.73,0,0,0,2.5-2.05A18.74,18.74,0,0,0,86.23,56.29Z"/><path d="M83.86,32.39a18,18,0,0,1,.53,3A4.73,4.73,0,0,1,84.27,37a3.71,3.71,0,0,1-.14.39.83.83,0,0,1-.38.41,1.38,1.38,0,0,1-1,0,14,14,0,0,0-2.94-.27,11.41,11.41,0,0,1-1.6-.19,4.12,4.12,0,0,1-.89-.27,1.43,1.43,0,0,1-.58-.48,1.32,1.32,0,0,1-.22-.8,8.93,8.93,0,0,1,2.86-5.74,3,3,0,0,1,1.47-.81,2,2,0,0,1,1.55.48A4.62,4.62,0,0,1,83.86,32.39Zm0,0A3.82,3.82,0,0,0,82.3,29.9,1.55,1.55,0,0,0,81,29.69a2.33,2.33,0,0,0-1,.88A11.37,11.37,0,0,0,78,35.84c0,.06,0,0,0-.07s0,0,0,0a3.11,3.11,0,0,0,.57.19c.45.12.92.22,1.41.31a11.24,11.24,0,0,1,3,.85c.48.2.59.26.83-.28a4,4,0,0,0,.34-1.42A10.64,10.64,0,0,0,83.86,32.39Z"/><path d="M77.33,35.42a6.53,6.53,0,0,1,4.31.58,20.21,20.21,0,0,0-2.14-.42A19.26,19.26,0,0,0,77.33,35.42Z"/><path d="M77.78,34.4a7,7,0,0,1,1.64-.09,7.52,7.52,0,0,1,1.63.28c-.56,0-1.1,0-1.64,0S78.33,34.49,77.78,34.4Z"/><path d="M78.35,33.34a3.27,3.27,0,0,1,1.32-.12,3.22,3.22,0,0,1,1.27.41c-.45-.05-.87-.13-1.3-.16S78.79,33.4,78.35,33.34Z"/><path d="M78.93,32.43a2.74,2.74,0,0,1,1.14,0,2.94,2.94,0,0,1,1.07.43c-.39,0-.75-.13-1.12-.19S79.3,32.55,78.93,32.43Z"/><path d="M79.18,31.6a3.47,3.47,0,0,1,1.24-.12,3.67,3.67,0,0,1,1.22.32c-.43,0-.83-.05-1.24-.07S79.59,31.67,79.18,31.6Z"/><path d="M79.75,30.75a3.07,3.07,0,0,1,1-.14,2.87,2.87,0,0,1,1,.24,7.25,7.25,0,0,1-1,0A7.36,7.36,0,0,1,79.75,30.75Z"/><path d="M80.41,29.94a2.4,2.4,0,0,1,1-.16,2.33,2.33,0,0,1,1,.3c-.35,0-.68,0-1,0S80.76,30,80.41,29.94Z"/><path d="M78.49,64a4.93,4.93,0,0,0,2.05.24A1.66,1.66,0,0,1,78.49,64Z"/><path d="M77.51,63.07a3.59,3.59,0,0,0,2.28.24A1.72,1.72,0,0,1,77.51,63.07Z"/><path d="M76.93,62.19c.46,0,.89.07,1.33.08s.87,0,1.33,0a3.42,3.42,0,0,1-1.34.21A3.34,3.34,0,0,1,76.93,62.19Z"/><path d="M76,61.28c.5,0,1,0,1.47,0s1,0,1.47.06A5,5,0,0,1,76,61.28Z"/><path d="M75.75,60.11a8.15,8.15,0,0,0,1.71.11A1.4,1.4,0,0,1,75.75,60.11Z"/><path d="M75.23,59.17c.35-.05.69,0,1-.08s.67-.08,1-.09a2.21,2.21,0,0,1-1,.34A2.18,2.18,0,0,1,75.23,59.17Z"/><path d="M75,58.05a16.63,16.63,0,0,0,2-.21A1.9,1.9,0,0,1,75,58.05Z"/><path d="M74.75,56.86a4.65,4.65,0,0,1,2.1,0,4.31,4.31,0,0,1-2.1,0Z"/><path d="M74.5,55.58a.59.59,0,0,0,.48.13h.54c.36,0,.71,0,1.09,0a3,3,0,0,1-1.09.22A4.89,4.89,0,0,1,75,55.9C74.78,55.87,74.55,55.78,74.5,55.58Z"/><path d="M74.44,54.4a4.5,4.5,0,0,0,1.51.18A1.08,1.08,0,0,1,74.44,54.4Z"/><path d="M74.28,53.42c.33-.05.64,0,.94-.06s.62,0,1,0a2.19,2.19,0,0,1-1.89.05Z"/><path d="M74.43,52.21c.78,0,1.47,0,2.24,0A2.4,2.4,0,0,1,74.43,52.21Z"/><path d="M74.36,51.23c.3-.08.58-.09.86-.14s.56-.08.87-.09a1.72,1.72,0,0,1-.84.34A1.8,1.8,0,0,1,74.36,51.23Z"/><path d="M74.65,50.19A11.08,11.08,0,0,0,76.18,50,1.22,1.22,0,0,1,74.65,50.19Z"/><path d="M74.75,48.88a5,5,0,0,0,1.63.06A1.2,1.2,0,0,1,74.75,48.88Z"/><path d="M75.19,48.07A3.59,3.59,0,0,1,75.9,48a4.41,4.41,0,0,1,.72,0,1.44,1.44,0,0,1-1.43,0Z"/><path d="M87.88,56a15.82,15.82,0,0,1-4.28,8.62A23.34,23.34,0,0,0,87.88,56Z"/><path d="M53.49,12.46a8,8,0,0,0-1.84,3.09A30.06,30.06,0,0,0,50.58,19c-.3,1.17-.54,2.36-.75,3.55s-.4,2.4-.53,3.6a35.23,35.23,0,0,1,1-7.21,24.71,24.71,0,0,1,1.14-3.47A7.3,7.3,0,0,1,53.49,12.46Z"/><path d="M27.23,56c-.75,2-1.54,3.89-2.27,5.86-.37,1-.72,2-1.06,3s-.67,2-.94,3a36.24,36.24,0,0,1,1.77-6A62.77,62.77,0,0,1,27.23,56Z"/><path d="M74.62,93.3c-.47,1.12-1,2.22-1.59,3.3a28.77,28.77,0,0,1-1.88,3.15,12,12,0,0,1-2.64,2.55c-1,.74-2,1.46-3,2.16.93-.79,1.87-1.57,2.82-2.33A13.46,13.46,0,0,0,71,99.61c.7-1,1.32-2,1.93-3.09S74.09,94.4,74.62,93.3Z"/><path d="M18.7,82.36A8,8,0,0,0,19.19,85a4.12,4.12,0,0,0,1.65,2.06,4.86,4.86,0,0,0,4.95-.36,9,9,0,0,0,3.06-4.08c.35-.8.67-1.63.95-2.48s.62-1.72.85-2.52a1.21,1.21,0,0,0,0-.81,1.87,1.87,0,0,0-.7-.67c-.73-.52-1.46-1-2.22-1.48a14.12,14.12,0,0,0-2.32-1.19,4.06,4.06,0,0,0-2.4-.31,2,2,0,0,0-1,.58,11.76,11.76,0,0,0-.86,1,12.27,12.27,0,0,0-1.38,2.31A12.61,12.61,0,0,0,18.7,82.36Zm0,0A14.89,14.89,0,0,1,19.61,77a13.86,13.86,0,0,1,1.19-2.49,11.07,11.07,0,0,1,.78-1.15,2.74,2.74,0,0,1,1.24-.9,4.94,4.94,0,0,1,2.95,0,14.38,14.38,0,0,1,2.64,1c.82.43,1.63.91,2.39,1.41A3.33,3.33,0,0,1,32,76.19,2.6,2.6,0,0,1,32.1,78,37.55,37.55,0,0,1,30,83.21a9.67,9.67,0,0,1-3.84,4.15,5.33,5.33,0,0,1-5.43-.11A4.35,4.35,0,0,1,19.14,85,8.14,8.14,0,0,1,18.7,82.36Z"/><path d="M29.1,72.27a11.29,11.29,0,0,0,2.33.81,4.66,4.66,0,0,0,2.43-.15,14.3,14.3,0,0,0,4-2.77c1.25-1.08,2.51-2.15,3.73-3.25a12.16,12.16,0,0,0,3-3.76,26.09,26.09,0,0,0,1.59-4.58,44.08,44.08,0,0,0,1-4.78A44.24,44.24,0,0,0,47.67,49c0-.79-.09-1.17-.61-1.53A6,6,0,0,0,45,46.68a9.32,9.32,0,0,0-2.26-.34,3.51,3.51,0,0,0-2,.59c-1.28.85-2.66,1.89-4,2.83l-4,2.84A10.33,10.33,0,0,0,29.51,56a96.53,96.53,0,0,0-3.77,9.1c-.3.77-.6,1.53-.93,2.29a2.32,2.32,0,0,0,.12,2.32,5.25,5.25,0,0,0,1.92,1.5C27.59,71.62,28.35,71.92,29.1,72.27Zm0,0c-.75-.34-1.52-.64-2.26-1a5.31,5.31,0,0,1-2-1.49,2.45,2.45,0,0,1-.19-2.39c.3-.77.58-1.55.85-2.33,1.08-3.12,1.9-6.3,3.3-9.37a11.08,11.08,0,0,1,3.29-3.89c1.3-1,2.59-2.06,3.9-3.07l2-1.51c.67-.5,1.27-1,2-1.51a5.06,5.06,0,0,1,2.7-.84,11,11,0,0,1,2.63.36,7.76,7.76,0,0,1,2.55,1,3,3,0,0,1,1,1.29A3.75,3.75,0,0,1,49.11,49a37.61,37.61,0,0,1-.64,5,40.31,40.31,0,0,1-1.26,4.86,26.71,26.71,0,0,1-1.92,4.64,12.9,12.9,0,0,1-3.35,3.77c-1.28,1-2.61,2-3.9,3A14.46,14.46,0,0,1,33.88,73a4.54,4.54,0,0,1-2.45.12A10.79,10.79,0,0,1,29.1,72.27Z"/><path d="M22.51,73.4A13,13,0,0,0,25.12,75,3.56,3.56,0,0,1,22.51,73.4Z"/><path d="M21.54,74.28a13.05,13.05,0,0,0,2.58,1.45A3.43,3.43,0,0,1,21.54,74.28Z"/><path d="M20.78,75.46a8.67,8.67,0,0,0,1.84,1.34A2.14,2.14,0,0,1,20.78,75.46Z"/><path d="M19.8,76.86c.35.17.65.37,1,.52s.65.32,1,.51a2.49,2.49,0,0,1-2-1Z"/><path d="M19.36,78.13a8.18,8.18,0,0,0,1.43.77A1.28,1.28,0,0,1,19.36,78.13Z"/><path d="M19.17,79.32c.58.36,1.1.65,1.7,1A1.94,1.94,0,0,1,19.17,79.32Z"/><path d="M18.72,80.52a5.9,5.9,0,0,0,2.57,1.29A2.63,2.63,0,0,1,18.72,80.52Z"/><path d="M18.71,82.12c.37.14.69.33,1,.48s.69.32,1,.51a2.82,2.82,0,0,1-1.14-.28A3,3,0,0,1,18.71,82.12Z"/><path d="M19,83.54c0,.21.19.3.35.39l.54.22c.36.16.74.28,1.11.45a2.91,2.91,0,0,1-1.2-.22,4.14,4.14,0,0,1-.55-.29C19.13,84,18.94,83.75,19,83.54Z"/><path d="M19.49,85.1a5,5,0,0,0,1.88,1.22A1.86,1.86,0,0,1,19.49,85.1Z"/><path d="M24.61,68.54A5.15,5.15,0,0,0,26.45,70,2,2,0,0,1,24.61,68.54Z"/><path d="M25,67.69c.36.21.68.44,1,.63s.68.37,1,.59A2.84,2.84,0,0,1,25,67.69Z"/><path d="M25.37,66.45a8,8,0,0,0,1.91,1.13A2,2,0,0,1,25.37,66.45Z"/><path d="M25.69,65A2.63,2.63,0,0,0,27,66.13,1.19,1.19,0,0,1,25.69,65Z"/><path d="M26.19,64.22c.47.27.86.46,1.35.7A1.22,1.22,0,0,1,26.19,64.22Z"/><path d="M26.61,63.05a9.79,9.79,0,0,0,1.26.83A1.15,1.15,0,0,1,26.61,63.05Z"/><path d="M27,61.88a5,5,0,0,0,1.52,1A1.44,1.44,0,0,1,27,61.88Z"/><path d="M27.31,60.6c.66.44,1.28.81,2,1.21A2.59,2.59,0,0,1,27.31,60.6Z"/><path d="M27.78,59.38A14.59,14.59,0,0,0,30.2,60.7,3.17,3.17,0,0,1,27.78,59.38Z"/><path d="M28.34,58.16a10.63,10.63,0,0,0,2.95,1.39A3.71,3.71,0,0,1,28.34,58.16Z"/><path d="M28.85,57.06a9.24,9.24,0,0,0,2.27.89A2.43,2.43,0,0,1,28.85,57.06Z"/><path d="M29.42,55.74c.42.25.8.52,1.21.75s.83.45,1.24.7a3.54,3.54,0,0,1-1.36-.49A3.72,3.72,0,0,1,29.42,55.74Z"/><path d="M30.35,54.8a5.55,5.55,0,0,0,1.69,1A1.6,1.6,0,0,1,30.35,54.8Z"/><path d="M31,53.72a6.86,6.86,0,0,0,2.28,1.21A2.42,2.42,0,0,1,31,53.72Z"/><path d="M32.13,53.19a5.52,5.52,0,0,1,2.06,1.2,5.38,5.38,0,0,1-1.09-.5A5.56,5.56,0,0,1,32.13,53.19Z"/><path d="M33.49,52.14a3.56,3.56,0,0,0,2.13,1.47A2,2,0,0,1,33.49,52.14Z"/><path d="M34.45,51.29a3.29,3.29,0,0,0,1.92,1.27A1.69,1.69,0,0,1,34.45,51.29Z"/><path d="M35.21,50.53a9.06,9.06,0,0,1,1.12.57,7.79,7.79,0,0,1,1,.7,4.72,4.72,0,0,1-2.15-1.27Z"/><path d="M36.78,49.54A3.08,3.08,0,0,0,38.54,51,1.62,1.62,0,0,1,36.78,49.54Z"/><path d="M37.69,48.88a5.94,5.94,0,0,0,2.43,1.06A2.38,2.38,0,0,1,37.69,48.88Z"/><path d="M39.07,48.16a5.9,5.9,0,0,0,2.3,1.1A2.28,2.28,0,0,1,39.07,48.16Z"/><path d="M40.28,47a1.93,1.93,0,0,0,.89.85c.37.2.79.29,1.2.47a2.74,2.74,0,0,1-1.31-.25,1.9,1.9,0,0,1-.54-.44A1.14,1.14,0,0,1,40.28,47Z"/><path d="M41.78,46.37c0,.28.25.44.46.57l.73.35c.48.24,1,.44,1.48.69a5.07,5.07,0,0,1-2.31-.88C41.92,46.94,41.67,46.65,41.78,46.37Z"/><path d="M29.47,71.28a7.51,7.51,0,0,0,3.09.44A4,4,0,0,0,34,71.27a3.49,3.49,0,0,0,1.17-1,2.75,2.75,0,0,1-1.08,1.19,3.78,3.78,0,0,1-1.54.54A5.62,5.62,0,0,1,29.47,71.28Z"/><path d="M42,115.83a8,8,0,0,1-2.72,0,4.41,4.41,0,0,1-2.43-1.22,5.38,5.38,0,0,1-1-5.35,9.75,9.75,0,0,1,3.5-4.45,39,39,0,0,1,4.77-2.89,2.63,2.63,0,0,1,1.84-.21,3.19,3.19,0,0,1,1.4,1,24.62,24.62,0,0,1,1.78,2.14,13.54,13.54,0,0,1,1.45,2.44,4.92,4.92,0,0,1,.51,2.9,2.84,2.84,0,0,1-.69,1.37,13.17,13.17,0,0,1-1,1,14.06,14.06,0,0,1-2.27,1.56A14.62,14.62,0,0,1,42,115.83Zm0,0a12.16,12.16,0,0,0,7.1-3.65,11.88,11.88,0,0,0,.87-1,2,2,0,0,0,.41-1.08,4,4,0,0,0-.68-2.32,14.84,14.84,0,0,0-1.55-2.11c-.56-.67-1.18-1.31-1.81-2a1.93,1.93,0,0,0-.77-.59,1.25,1.25,0,0,0-.8.17c-.74.36-1.56.83-2.34,1.24a26.16,26.16,0,0,0-2.31,1.33,9,9,0,0,0-3.54,3.66,4.85,4.85,0,0,0,.42,5,4.13,4.13,0,0,0,2.29,1.3A8,8,0,0,0,42,115.83Z"/><path d="M50.92,103.47a10.65,10.65,0,0,1-1.19-2.17,4.62,4.62,0,0,1-.27-2.44,14.88,14.88,0,0,1,2-4.53c.81-1.43,1.56-2.9,2.39-4.33A12.85,12.85,0,0,1,57,86.1a27.88,27.88,0,0,1,4.29-2.63,39.93,39.93,0,0,1,4.59-2A41.81,41.81,0,0,1,70.73,80,3.77,3.77,0,0,1,72.25,80a2.86,2.86,0,0,1,1.43.81,7.48,7.48,0,0,1,1.38,2.37,10.32,10.32,0,0,1,.77,2.54,5,5,0,0,1-.4,2.8c-.36.83-.78,1.51-1.16,2.24l-1.19,2.18c-.79,1.45-1.59,2.89-2.41,4.34a11.16,11.16,0,0,1-3.32,3.85c-2.82,1.87-5.83,3.18-8.74,4.74-.73.39-1.45.79-2.16,1.21a2.48,2.48,0,0,1-2.4.19,5.17,5.17,0,0,1-1.78-1.7C51.79,104.87,51.37,104.16,50.92,103.47Zm0,0c.46.68.89,1.39,1.37,2a5.2,5.2,0,0,0,1.79,1.67,2.32,2.32,0,0,0,2.3-.25c.7-.44,1.41-.87,2.12-1.28a98,98,0,0,0,8.39-5.16,10.26,10.26,0,0,0,2.87-3.75l2.18-4.44c.71-1.45,1.52-3,2.16-4.38a3.59,3.59,0,0,0,.28-2,9.83,9.83,0,0,0-.7-2.18,6.36,6.36,0,0,0-1.05-1.91A1.47,1.47,0,0,0,71,81.45a42.69,42.69,0,0,0-4.7,1.22,44.2,44.2,0,0,0-4.57,1.73,26.23,26.23,0,0,0-4.28,2.3,12.36,12.36,0,0,0-3.24,3.54c-.89,1.38-1.75,2.79-2.61,4.2a13.87,13.87,0,0,0-2.1,4.43,4.45,4.45,0,0,0,.24,2.42A10.6,10.6,0,0,0,50.92,103.47Z"/><path d="M45.54,103.36a11.89,11.89,0,0,0,1.18,2.8A3.51,3.51,0,0,1,45.54,103.36Z"/><path d="M44.23,103.5a12.77,12.77,0,0,0,1.22,2.69A3.4,3.4,0,0,1,44.23,103.5Z"/><path d="M42.92,104a8.71,8.71,0,0,0,.69,2.17A2.15,2.15,0,0,1,42.92,104Z"/><path d="M41.3,104.55c.18.34.31.68.49,1s.34.65.5,1a2.34,2.34,0,0,1-.73-.89A2.38,2.38,0,0,1,41.3,104.55Z"/><path d="M40.19,105.31a7.84,7.84,0,0,0,.7,1.46A1.27,1.27,0,0,1,40.19,105.31Z"/><path d="M39.34,106.16c.26.63.49,1.17.79,1.79A1.93,1.93,0,0,1,39.34,106.16Z"/><path d="M38.26,106.86a6,6,0,0,0,1.31,2.56A2.66,2.66,0,0,1,38.26,106.86Z"/><path d="M37.31,108.14c.21.34.36.68.55,1s.37.66.54,1a2.75,2.75,0,0,1-.76-.9A2.83,2.83,0,0,1,37.31,108.14Z"/><path d="M36.73,109.48c-.12.17,0,.36.06.52s.2.34.31.5c.19.34.42.66.62,1a3,3,0,0,1-.84-.89,3.22,3.22,0,0,1-.27-.56C36.54,109.89,36.53,109.59,36.73,109.48Z"/><path d="M36.17,111a5.13,5.13,0,0,0,.8,2.1A1.87,1.87,0,0,1,36.17,111Z"/><path d="M49.39,98.15A5.06,5.06,0,0,0,50.83,100,2,2,0,0,1,49.39,98.15Z"/><path d="M49.93,97.42c.3.28.56.58.85.85s.57.53.86.82a2.86,2.86,0,0,1-1.71-1.67Z"/><path d="M50.62,96.31a8.05,8.05,0,0,0,1.59,1.55A2.05,2.05,0,0,1,50.62,96.31Z"/><path d="M51.29,94.93a2.71,2.71,0,0,0,1,1.47A1.2,1.2,0,0,1,51.29,94.93Z"/><path d="M52,94.34c.4.37.73.65,1.15,1A1.25,1.25,0,0,1,52,94.34Z"/><path d="M52.64,93.3a9,9,0,0,0,1,1.11A1.17,1.17,0,0,1,52.64,93.3Z"/><path d="M53.32,92.26a5,5,0,0,0,1.23,1.39A1.45,1.45,0,0,1,53.32,92.26Z"/><path d="M53.91,91.09c.54.59,1.05,1.1,1.62,1.65A2.65,2.65,0,0,1,53.91,91.09Z"/><path d="M54.66,90a15.09,15.09,0,0,0,2,1.87A3.21,3.21,0,0,1,54.66,90Z"/><path d="M55.49,89A10.68,10.68,0,0,0,58,91,3.73,3.73,0,0,1,55.49,89Z"/><path d="M56.26,88a9,9,0,0,0,2,1.41A2.4,2.4,0,0,1,56.26,88Z"/><path d="M57.12,86.88c.35.34.66.7,1,1s.69.63,1,1a3.75,3.75,0,0,1-1.21-.8A3.8,3.8,0,0,1,57.12,86.88Z"/><path d="M58.26,86.19a5.48,5.48,0,0,0,1.39,1.37A1.58,1.58,0,0,1,58.26,86.19Z"/><path d="M59.16,85.3A6.58,6.58,0,0,0,61.08,87,2.39,2.39,0,0,1,59.16,85.3Z"/><path d="M60.37,85.05a4.87,4.87,0,0,1,.94.74,5.75,5.75,0,0,1,.78.92,5.27,5.27,0,0,1-1-.74A5.69,5.69,0,0,1,60.37,85.05Z"/><path d="M61.94,84.36a3.56,3.56,0,0,0,1.72,1.94A2,2,0,0,1,61.94,84.36Z"/><path d="M63.08,83.76a3.26,3.26,0,0,0,1.56,1.69A1.66,1.66,0,0,1,63.08,83.76Z"/><path d="M64,83.2a9.44,9.44,0,0,1,.94.83,8.29,8.29,0,0,1,.84.93,4.65,4.65,0,0,1-1-.75A4.22,4.22,0,0,1,64,83.2Z"/><path d="M65.76,82.62a3.08,3.08,0,0,0,1.36,1.82A1.62,1.62,0,0,1,65.76,82.62Z"/><path d="M66.8,82.2a6.05,6.05,0,0,0,2.1,1.62A2.41,2.41,0,0,1,66.8,82.2Z"/><path d="M68.31,81.84a5.92,5.92,0,0,0,2,1.61A2.29,2.29,0,0,1,68.31,81.84Z"/><path d="M69.76,81a1.88,1.88,0,0,0,.66,1c.3.28.7.47,1,.74a2.75,2.75,0,0,1-1.22-.55,1.84,1.84,0,0,1-.41-.55A1.08,1.08,0,0,1,69.76,81Z"/><path d="M71.38,80.74c-.08.28.13.49.3.67s.41.35.62.51c.41.35.85.67,1.27,1a5.45,5.45,0,0,1-1.42-.83,6.65,6.65,0,0,1-.61-.58C71.37,81.33,71.2,81,71.38,80.74Z"/><path d="M40.07,114.46a17.21,17.21,0,0,0,5.5-1.11A8.46,8.46,0,0,1,40.07,114.46Z"/><path d="M72.49,84.21a3.39,3.39,0,0,1,.46,1.7,6.63,6.63,0,0,1-.24,1.77c-.33,1.14-.82,2.2-1.13,3.33a21.78,21.78,0,0,1,.89-3.4,7.47,7.47,0,0,0,.29-1.7A4.16,4.16,0,0,0,72.49,84.21Z"/></g></g></svg>