<svg xmlns="http://www.w3.org/2000/svg" viewBox="0 0 167.18 164.75"><defs><style>.cls-1{fill:#2a2728;}</style></defs><title>Recurso 13</title><g id="Capa_2" data-name="Capa 2"><g id="Capa_1-2" data-name="Capa 1"><path class="cls-1" d="M129.72,113.7c-1.77.74-5.78-9.76-6.31-11s-4.7-10.88-3.19-11.52c2.06-.87,5.71,9,6.25,10.23S131.58,112.91,129.72,113.7Z"/><path class="cls-1" d="M128,108.8c.37-.25,1.28.39,1.9,1.9a8.8,8.8,0,0,1,.1,6,9,9,0,0,1-4.21,5.14,5.16,5.16,0,0,1-3,.56,4.62,4.62,0,0,1-1.81-.68,5.33,5.33,0,0,1-2.36-3.78,5.43,5.43,0,0,1,.71-3.41,6.81,6.81,0,0,1,2.47-2.42,8,8,0,0,1,5.53-.84c1.39.29,2.18.77,2.11,1.16-.09.56-1,.77-2.2,1a8.88,8.88,0,0,0-3.77,1.32,3.15,3.15,0,0,0-1.54,2.74,2.1,2.1,0,0,0,.83,1.44c.2.08.53.39,1.52-.07a6.58,6.58,0,0,0,2.78-3.22,10,10,0,0,0,.74-4.37C127.8,110,127.59,109.08,128,108.8Z"/><path class="cls-1" d="M125.14,118.43a1.31,1.31,0,0,1-1.92-.21,3.83,3.83,0,0,1-.73-1.35,3.51,3.51,0,0,1-.35-1.42,1.29,1.29,0,0,1,1.08-1.42,1.78,1.78,0,0,1,2.32,1.54A2.07,2.07,0,0,1,125.14,118.43Z"/><path class="cls-1" d="M127.21,114.8c.74.6.42,1.59-.28,2.38a6.58,6.58,0,0,1-1.91,1.39,6.1,6.1,0,0,1-2.08.78c-1,.16-1.91-.08-2-.88a1.91,1.91,0,0,1,1-2.06,15.08,15.08,0,0,1,1.48-.73,16.58,16.58,0,0,1,1.5-.89A2,2,0,0,1,127.21,114.8Z"/><path class="cls-1" d="M126.8,115.75c-1.8.65-2-.9-2-1.08a1.39,1.39,0,0,1,.9-2c2.11-.76,2.16.71,2.22.89S128.7,115.07,126.8,115.75Z"/><path class="cls-1" d="M132.66,101.18c-.48-.12-.68-.6-1-1.06a7,7,0,0,0-1.45-1.55,12.51,12.51,0,0,0-3.9-1.67c-.25-.07-.9-.23-1.8-.53a9.28,9.28,0,0,1-3-1.6,5.24,5.24,0,0,1-1.91-2.87c-.2-1,.13-1.59.51-1.61.57,0,1,.36,1.45.72a12.19,12.19,0,0,0,1.75,1.21,11,11,0,0,0,2.26,1l1.66.51c.25.08,1,.23,1.93.58a10,10,0,0,1,1.6.73,6.59,6.59,0,0,1,1.62,1.27,4.83,4.83,0,0,1,1.47,3.43C133.72,100.79,133.12,101.31,132.66,101.18Z"/><path class="cls-1" d="M94.94,77.52c-1.91-.14-.68-11.75-.58-13.18s.78-12.27,2.42-12.15c2.23.16,1,11,.89,12.39S97,77.66,94.94,77.52Z"/><path class="cls-1" d="M94.93,71.43c.43-.11,1.06.83,1.15,2.5a9.32,9.32,0,0,1-1.9,5.8,9.75,9.75,0,0,1-2.55,2.41,10.57,10.57,0,0,1-1.52.8,6.79,6.79,0,0,1-1.66.46,6,6,0,0,1-4.53-1,4,4,0,0,1-1.25-1.6,4.36,4.36,0,0,1-.07-3.17,7.05,7.05,0,0,1,5-4.39,7.39,7.39,0,0,1,5.78.8c1.36.9,1.72,2,1.42,2.17-.44.38-1.23,0-2.34-.23a7.47,7.47,0,0,0-4,.24,4.31,4.31,0,0,0-2.68,2.46c-.24.85,0,.94.17,1.09a2.77,2.77,0,0,0,2,.33,4.76,4.76,0,0,0,.88-.23,7.5,7.5,0,0,0,2.88-2.07,10.81,10.81,0,0,0,2.19-4C94.29,72.49,94.41,71.54,94.93,71.43Z"/><path class="cls-1" d="M88.57,80c-1.92.1-1.67-2.33-1.69-2.62s-.24-2.54,1.39-2.63c2.24-.13,1.91,2.14,1.93,2.44S90.58,79.89,88.57,80Z"/><path class="cls-1" d="M89.77,79.32c-.26,1.9-2.35,1.23-2.61,1.19s-2.27-.21-2-1.83c.31-2.22,2.24-1.49,2.5-1.46S90.05,77.32,89.77,79.32Z"/><path class="cls-1" d="M90.65,78.84c-1.89-.26-1.31-1.71-1.28-1.89a1.39,1.39,0,0,1,1.73-1.37c2.22.3,1.58,1.64,1.56,1.82S92.66,79.11,90.65,78.84Z"/><path class="cls-1" d="M87,131.55c-1.87.41-4.1-11.5-4.42-13s-2.84-12.45-1.24-12.8c2.19-.48,4.17,10.63,4.49,12.08S89,131.12,87,131.55Z"/><path class="cls-1" d="M86.51,126.38c.39-.2,1.22.54,1.63,2.12a8.38,8.38,0,0,1-.83,5.86,8.06,8.06,0,0,1-5.15,4.18,5.91,5.91,0,0,1-2.84,0,4.4,4.4,0,0,1-1.71-.87,4,4,0,0,1-1.15-1.57,4.9,4.9,0,0,1-.21-2.88,7.39,7.39,0,0,1,9.65-5.12c1.44.61,2,1.53,1.72,1.82-.35.45-1.18.26-2.25.26a7.47,7.47,0,0,0-3.66.94,4.47,4.47,0,0,0-2.18,2.76c-.17,1,.12,1.14.21,1.24a1,1,0,0,0,.41.19,2.81,2.81,0,0,0,1.26,0,5.56,5.56,0,0,0,3.18-2.48A9.13,9.13,0,0,0,86,128.73C86.12,127.52,86,126.61,86.51,126.38Z"/><path class="cls-1" d="M80.84,135.88c-1.78-.57-.85-2.85-.86-3.19s.11-2.6,1.71-2.65c2.29,0,1.69,2.78,1.58,3.11a5.17,5.17,0,0,1-.46,1.75A1.58,1.58,0,0,1,80.84,135.88Z"/><path class="cls-1" d="M83.53,134.18c.32,1.89-1.87,1.88-2.13,1.92s-2.23.49-2.51-1.12c-.38-2.21,1.68-2.1,1.94-2.15S83.18,132.19,83.53,134.18Z"/><path class="cls-1" d="M85.44,132.8c-1.81.63-1.88-.74-1.94-.89s-.55-1.27,1-1.81c2.12-.73,2.09.57,2.14.73S87.35,132.14,85.44,132.8Z"/><path class="cls-1" d="M84.65,132.13c.79,1.75-.18,1.77-.28,1.81s-.81.48-1.48-1c-.92-2,0-2,.12-2S83.83,130.29,84.65,132.13Z"/><path class="cls-1" d="M103.48,128.7c-1,.14-1.78-2.77-2.5-5.88s-1.35-6.41-1.51-7.13-.88-3.8-1.46-6.73-1-5.73-.2-6c1.07-.31,2.3,2.29,3.21,5.18a68.13,68.13,0,0,1,1.69,6.78,72.44,72.44,0,0,1,1.35,7.29C104.47,125.47,104.48,128.55,103.48,128.7Z"/><path class="cls-1" d="M102.56,120.81c.45-.12,1.07.76,1.52,2.32a11.2,11.2,0,0,1,0,6.21,9.79,9.79,0,0,1-4.26,5.51,6.82,6.82,0,0,1-2.73,1.08,4.49,4.49,0,0,1-2-.15,4.06,4.06,0,0,1-1.8-1.18,4.76,4.76,0,0,1-1.08-3,6.25,6.25,0,0,1,1-3.45,7.26,7.26,0,0,1,2.74-2.44,7.56,7.56,0,0,1,6.07-.43c1.56.61,2.17,1.58,1.93,1.87-.36.46-1.24.21-2.44.22a7.39,7.39,0,0,0-4,1,4.59,4.59,0,0,0-1.48,1.46,3.2,3.2,0,0,0-.42,1.63c.08,1.06.4,1,.54,1.14a1.32,1.32,0,0,0,.54,0A3.83,3.83,0,0,0,98,132a7.45,7.45,0,0,0,3.08-3.66,15.54,15.54,0,0,0,.82-5C102,122,102.06,120.94,102.56,120.81Z"/><path class="cls-1" d="M98.06,133.45c-1.89.33-2-2.51-2-2.84s-.6-2.9,1-3.18c2.21-.38,2.21,2.27,2.27,2.61S100.05,133.11,98.06,133.45Z"/><path class="cls-1" d="M99.63,130.43a1.41,1.41,0,0,1-.53,2,5.24,5.24,0,0,1-1.67.75,4.8,4.8,0,0,1-1.7.31c-.77,0-1.49-.35-1.55-1.16-.16-2.17,1.89-2.12,2.17-2.29a7.7,7.7,0,0,1,1.34-.42A1.81,1.81,0,0,1,99.63,130.43Z"/><path class="cls-1" d="M100.9,130.58c-1.88.32-1.91-2.09-2-2.37s-.53-2.45,1.09-2.73c2.2-.38,2.13,1.88,2.18,2.16S102.9,130.23,100.9,130.58Z"/><path class="cls-1" d="M100.81,129.29c.33,1.89-.8,1.7-.93,1.72s-1.1.29-1.38-1.32c-.38-2.21.69-1.93.82-2S100.47,127.3,100.81,129.29Z"/><path class="cls-1" d="M101.67,118.51c-.93.2-2.34-4.56-3.57-9.66-.3-1.28-.6-2.58-.88-3.82-.06-.25-.11-.5-.17-.74h0l-.27,0-4.41.59-4,.56-3.18.41-1.73.21h-.21a.11.11,0,0,0-.08,0,.16.16,0,0,0-.05.09v.06s.05.26.07.37c.11.62.22,1.22.33,1.81.21,1.17.38,2.26.49,3.2.22,1.89.21,3.17-.2,3.27-.57.13-1.25-1-1.95-2.75-.36-.89-.71-1.93-1.07-3.07l-.53-1.75-.15-.55a5.85,5.85,0,0,1-.18-.89,2.59,2.59,0,0,1,.35-1.66,2.53,2.53,0,0,1,1.2-1,3.61,3.61,0,0,1,.81-.24l.72-.11,1.72-.27,3.17-.45,4-.54,4.5-.63a4.58,4.58,0,0,1,.55,0,4,4,0,0,1,.85.06,2.92,2.92,0,0,1,1.52.73,3,3,0,0,1,.89,1.51c.09.35.11.48.14.64l.09.46c.24,1.26.48,2.56.72,3.86C102.07,113.37,102.66,118.3,101.67,118.51Z"/><path class="cls-1" d="M99.63,108.62c.25,1.89-7.72,2.59-8.69,2.72s-8.34,1.23-8.56-.39c-.3-2.22,7.14-2.77,8.11-2.9S99.36,106.61,99.63,108.62Z"/><path class="cls-1" d="M49.17,116.67c-.87-.4.23-3.64,1.56-7s2.9-6.83,3.22-7.6c.71-1.52,5.21-13.33,6.69-12.79,1,.39.36,3.53-.73,6.76s-2.57,6.53-2.9,7.31-1.76,4.35-3.41,7.59S50.09,117.1,49.17,116.67Z"/><path class="cls-1" d="M51.6,113.17c.45.08.59,1.37-.54,2.79a6,6,0,0,1-2.43,1.77,7.69,7.69,0,0,1-3.44.5,10.55,10.55,0,0,1-3.34-.81,7.9,7.9,0,0,1-2.78-1.92,5.16,5.16,0,0,1-1.39-2.76,4.41,4.41,0,0,1,.18-2,4.63,4.63,0,0,1,1-1.62,5.82,5.82,0,0,1,2.33-1.51,8.22,8.22,0,0,1,6.38.47A6.48,6.48,0,0,1,50,110.33a5.51,5.51,0,0,1,.85,2.69c0,1.68-.76,2.55-1.09,2.38-.53-.22-.57-1.07-1-2a4.65,4.65,0,0,0-2.55-2.49,5.83,5.83,0,0,0-3.87-.14c-1.07.4-1.26.9-1.31,1s-.24.56.52,1.43a5.09,5.09,0,0,0,1.63,1.16,9.09,9.09,0,0,0,2.34.73,5.74,5.74,0,0,0,4-.73C50.57,113.79,51.1,113.05,51.6,113.17Z"/><path class="cls-1" d="M42,114.94c-1.36-1.28.45-3,.58-3.33s1.16-2.39,2.65-1.83a1.55,1.55,0,0,1,1,2,5.06,5.06,0,0,1-.81,1.57,5.45,5.45,0,0,1-1.18,1.46A1.59,1.59,0,0,1,42,114.94Z"/><path class="cls-1" d="M45.4,113.74a1.29,1.29,0,0,1-1.79.81,4.06,4.06,0,0,1-1.41-.91,3.61,3.61,0,0,1-1-1.22,1.27,1.27,0,0,1,.44-1.78,1.87,1.87,0,0,1,2-.2,3.27,3.27,0,0,1,.74.66,4.15,4.15,0,0,1,.79.71A1.9,1.9,0,0,1,45.4,113.74Z"/><path class="cls-1" d="M46.07,115c-1.56-1.11-.11-2.48,0-2.68s1.11-1.73,2.44-.78a1.59,1.59,0,0,1,.26,2.71A1.79,1.79,0,0,1,46.07,115Z"/><path class="cls-1" d="M47.9,114c-.9,1.69-2.44.44-2.65.33s-1.86-.87-1.09-2.31a1.59,1.59,0,0,1,2.65-.62A1.78,1.78,0,0,1,47.9,114Z"/><path class="cls-1" d="M45.91,115.47c-1.69-.9-1.15-1.1-1.13-1.15s.12-.45,1.57.32c2,1,1.39,1.2,1.36,1.24S47.69,116.42,45.91,115.47Z"/><path class="cls-1" d="M42.29,113.71c.06,1-.39,1.37-.93,1.43a2.23,2.23,0,0,1-1.14-.24,2,2,0,0,1-.9-.62,1.13,1.13,0,0,1,.19-1.57c1.54-1.59,1.72-1,1.88-.92S42.12,111.73,42.29,113.71Z"/><path class="cls-1" d="M61.67,106.7c-.2-.44.08-.91.26-1.5a6.69,6.69,0,0,0,.39-2.25,10.73,10.73,0,0,0-1.26-4.23c-.12-.25-.44-.88-.86-1.71a12.63,12.63,0,0,1-1.15-3.29,6.22,6.22,0,0,1,.26-3.48c.39-.91,1-1.28,1.33-1.09.51.26.62.83.79,1.48A19.63,19.63,0,0,0,62.07,93c.59,1.68,1.73,3.72,2,4.26a18.86,18.86,0,0,1,.9,2,10.83,10.83,0,0,1,.49,1.82,6.87,6.87,0,0,1,0,2.17,5.09,5.09,0,0,1-1.86,3.43C62.66,107.28,61.86,107.15,61.67,106.7Z"/><path class="cls-1" d="M58.28,114c-.82-.54.26-2.59.84-4.51a6.12,6.12,0,0,0,.29-2.54,5.17,5.17,0,0,0-.42-1.45,14.92,14.92,0,0,0-.84-1.52,16.3,16.3,0,0,1-1.57-3,5.8,5.8,0,0,1-.24-3.6c.32-1,.95-1.41,1.29-1.22.5.26.63.83.86,1.42a13.14,13.14,0,0,0,.95,2.16c.42.8,1,1.66,1.55,2.51a17.17,17.17,0,0,1,1,1.88,8,8,0,0,1,.74,2.41,7.64,7.64,0,0,1-.68,4.1C60.86,113.1,59.08,114.57,58.28,114Z"/><path class="cls-1" d="M71.52,87.37c-.29.08-.92-1.3-1.84-3.38a74.93,74.93,0,0,0-3.94-7.53,61.27,61.27,0,0,0-8.89-11.31A58.39,58.39,0,0,0,46.1,56.84a71.52,71.52,0,0,0-7-3.73c-1.95-.86-3.23-1.47-3.15-1.71s1.51-.09,3.62.51A40.41,40.41,0,0,1,47,55.22a52.23,52.23,0,0,1,11.2,8.51,54.43,54.43,0,0,1,9.12,11.78,42.9,42.9,0,0,1,3.54,8C71.57,85.77,71.8,87.28,71.52,87.37Z"/><path class="cls-1" d="M74.69,75c-.58.14-2.1-5.36-4-11.06a100.42,100.42,0,0,0-5.09-12.72A65.62,65.62,0,0,0,58.73,40.4a62,62,0,0,0-5-5.56c-1.43-1.41-2.41-2.31-2.25-2.52s1.42.31,3.1,1.54a35.84,35.84,0,0,1,5.61,5.35,55.32,55.32,0,0,1,7.2,11.15,80.3,80.3,0,0,1,5.1,13C74.21,69.25,75.26,74.89,74.69,75Z"/><path class="cls-1" d="M143.85,45.72c.14.27-1.21,1.18-3.25,2.52a88.48,88.48,0,0,0-7.32,5.41,72.87,72.87,0,0,0-10.77,11.06,70.72,70.72,0,0,0-7.64,12.4c-1.42,2.83-2.49,5.71-3.33,7.84s-1.3,3.56-1.55,3.5-.17-1.59.32-3.88a47.82,47.82,0,0,1,2.87-8.24,61.8,61.8,0,0,1,7.76-12.84,64.55,64.55,0,0,1,11.15-11.3,51.29,51.29,0,0,1,7.84-5.08C142.17,46,143.72,45.46,143.85,45.72Z"/><path class="cls-1" d="M123.4,35.17c.19.22-.65,1.25-2,2.76s-3.07,3.57-4.7,5.82a67.17,67.17,0,0,0-6.51,10.87,64.65,64.65,0,0,0-4,11.27c-1.38,5-1.8,9.91-2.32,9.89s-.72-5.08.5-10.33a54.76,54.76,0,0,1,4-11.67,57.18,57.18,0,0,1,6.83-11.17,43,43,0,0,1,5.26-5.6C122.06,35.68,123.2,35,123.4,35.17Z"/><path class="cls-1" d="M27.58,87c.16-.27,1.37.42,3.3.13A7.5,7.5,0,0,0,33.94,86a12.52,12.52,0,0,0,2.87-2.74c.88-1.1,1.6-2.36,2.51-3.6a7.78,7.78,0,0,1,3.56-2.89,4.69,4.69,0,0,1,4,.25,3.34,3.34,0,0,1,1.53,2.07,3.72,3.72,0,0,1-.17,2.43A2.71,2.71,0,0,1,46.65,83a2.86,2.86,0,0,1-2.42-.24,3.4,3.4,0,0,1-1.57-2A3.69,3.69,0,0,1,43,78.09a4.52,4.52,0,0,1,1.79-1.86,6.05,6.05,0,0,1,2.35-.7,9.77,9.77,0,0,1,7.39,2.73c1.53,1.5,1.94,2.88,1.74,3s-1.06-.9-2.58-2a9.42,9.42,0,0,0-6.35-1.85A3.14,3.14,0,0,0,44.74,79a1.41,1.41,0,0,0,.49,2c.61.31,1,.08,1.14-.29a1.71,1.71,0,0,0,.08-1.09,1.37,1.37,0,0,0-.63-.86,2.71,2.71,0,0,0-2.26-.07,5.87,5.87,0,0,0-2.65,2.18c-.82,1.07-1.63,2.42-2.64,3.6a12.87,12.87,0,0,1-3.47,3,7.84,7.84,0,0,1-3.83,1,5.26,5.26,0,0,1-2.68-.65C27.72,87.45,27.5,87.13,27.58,87Z"/><path class="cls-1" d="M27.18,76.5c-.24-.15.18-1.27,1.14-2.88a11.48,11.48,0,0,1,5.31-4.86,7.28,7.28,0,0,1,4.26-.44,4.32,4.32,0,0,1,3.37,2.73A2.92,2.92,0,0,1,39.8,74.6a2.82,2.82,0,0,1-2.38-.11,3.08,3.08,0,0,1-1.52-1.63,3.66,3.66,0,0,1,.5-3.37,5.16,5.16,0,0,1,3.32-2,10.61,10.61,0,0,1,3.85,0,12.4,12.4,0,0,1,6,2.85c1.34,1.19,1.9,2.23,1.72,2.37s-1.12-.49-2.5-1.34a14,14,0,0,0-5.52-2c-2.13-.28-4.55.14-5.25,1.34a1.72,1.72,0,0,0-.29,1.53,1.09,1.09,0,0,0,.53.55c.28.17,1.25.35,1-1.07a2.4,2.4,0,0,0-1.86-1.37,5.58,5.58,0,0,0-3.16.26,12.16,12.16,0,0,0-4.93,3.86C28.23,75.74,27.44,76.67,27.18,76.5Z"/><path class="cls-1" d="M154.3,66.74c.25,0,.08,1.89-1.73,3.86s-5.08,3.62-8.56,4.12-7,.57-9.56,1.16a3.29,3.29,0,0,0-2.27,1.48,1.91,1.91,0,0,0-.12,1.35.78.78,0,0,0,.64.59,1.45,1.45,0,0,0,1.4-1.14,2.37,2.37,0,0,0-1.63-2.3,5.94,5.94,0,0,0-4,.25A14.58,14.58,0,0,0,122,80.75c-1.38,1.7-2,3.08-2.21,3s-.1-1.67,1.15-3.73a14.18,14.18,0,0,1,6.88-5.65,7.6,7.6,0,0,1,5.34-.33,4.29,4.29,0,0,1,2.9,4.48,3.42,3.42,0,0,1-3.63,2.79,2.8,2.8,0,0,1-2.29-2,3.9,3.9,0,0,1,.21-2.81A5.16,5.16,0,0,1,134,73.93c3-.68,6.48-.6,9.76-1.07a15,15,0,0,0,7.94-3.19C153.42,68.17,154,66.63,154.3,66.74Z"/><path class="cls-1" d="M143.86,58c.06.29-1,.68-2.44,1.48a17.16,17.16,0,0,0-2.33,1.58A8.21,8.21,0,0,0,137,63.34a3,3,0,0,0-.26,2.58,1.38,1.38,0,0,0,1.53,1c1.26-.24.81-1.25.6-1.53a1.83,1.83,0,0,0-.7-.61,3.45,3.45,0,0,0-1.86-.23,18.53,18.53,0,0,0-5.73,2c-3.89,2-6.47,5.27-6.86,5s.14-1.22,1.17-2.55a17.46,17.46,0,0,1,4.78-4.07,18.07,18.07,0,0,1,6.41-2.31,5.31,5.31,0,0,1,3,.42,3.81,3.81,0,0,1,1.47,1.28,3.22,3.22,0,0,1,.61,2.05,2.67,2.67,0,0,1-.74,1.69,3.05,3.05,0,0,1-1.83.91,3.37,3.37,0,0,1-2.17-.41,3.62,3.62,0,0,1-1.48-1.78,4.82,4.82,0,0,1,.48-4.27,9,9,0,0,1,2.71-2.68,12.54,12.54,0,0,1,2.79-1.43C142.6,57.69,143.8,57.72,143.86,58Z"/><path class="cls-1" d="M59.35,124.41c.52.1-.09,3.3-2.27,6.15a17,17,0,0,1-3.78,3.67c-.33.24-.67.44-1,.64l-.47.27a4,4,0,0,1-.8.38,1.87,1.87,0,0,1-2.27-.52,1.65,1.65,0,0,1-.3-.73,2.46,2.46,0,0,1,.55-1.84,3.76,3.76,0,0,1,.84-.91,5.81,5.81,0,0,1,1-.65c1.48-.77,3.1-1.09,4.35-2a11.29,11.29,0,0,0,3-2.95c.67-.94,1-1.65,1.28-1.58s.34,1-.15,2.21a9.24,9.24,0,0,1-3.06,3.85,10.2,10.2,0,0,1-2.43,1.34c-.79.33-1.51.59-2.06.89a3.81,3.81,0,0,0-.68.44,3.65,3.65,0,0,0-.34.31l0,0h0l.47-.26c.28-.18.58-.36.87-.57a18.41,18.41,0,0,0,3.5-3.16C57.77,127,58.8,124.25,59.35,124.41Z"/><path class="cls-1" d="M64.91,133.49c.55,0,.57,3.7-1.41,7.17a16.11,16.11,0,0,1-3.6,4.44,8.59,8.59,0,0,1-2,1.41,2.76,2.76,0,0,1-1.32.24,2,2,0,0,1-1.09-.44,3.11,3.11,0,0,1-.32-.34,1.79,1.79,0,0,1-.36-.82,2.39,2.39,0,0,1,.19-1.28,4.91,4.91,0,0,1,1.6-1.89,29,29,0,0,0,3.8-3.27c2.48-2.47,4.15-5.37,4.59-5.15.61.27-.7,3.59-3.22,6.41a23.43,23.43,0,0,1-4,3.62,3.16,3.16,0,0,0-1,1.07l0,.09h0c.06,0-.15.07.3-.08a7.88,7.88,0,0,0,1.5-1.09,16.6,16.6,0,0,0,3.31-3.86C63.84,136.76,64.32,133.44,64.91,133.49Z"/><path class="cls-1" d="M58.42,144.54c-1.12-.07-1-.84-1.07-1a1.08,1.08,0,0,1,.3-1.36c.51-.42.94-.33,1.21-.05a2.66,2.66,0,0,1,.5,1.65A.8.8,0,0,1,58.42,144.54Z"/><path class="cls-1" d="M59.31,143.9C59.47,145,58.17,145,58,145s-1.33.26-1.47-.71c-.19-1.33,1-1.23,1.19-1.26S59.13,142.7,59.31,143.9Z"/><path class="cls-1" d="M60.78,141.85c-.92.69-1.28-.17-1.35-.26a.84.84,0,0,1,.15-1.32c1.07-.81,1.37,0,1.44.12S61.75,141.11,60.78,141.85Z"/><path class="cls-1" d="M117.77,126.39c.27-.16.76.38,1.66.81a14.18,14.18,0,0,0,3.86,1,15.17,15.17,0,0,1,4.74,1.31,3.64,3.64,0,0,1,1.56,1.78,2.25,2.25,0,0,1,.13,1.11,2.29,2.29,0,0,1-.27.73,2.12,2.12,0,0,1-1.5,1,3.87,3.87,0,0,1-2.14-.39,21,21,0,0,1-3.85-2.3c-2.52-1.86-4.22-4.28-3.83-4.58s2.47,1.51,4.9,3a27.48,27.48,0,0,0,3.59,2,2.14,2.14,0,0,0,1,.25l.09,0s0,.05,0-.1a1.75,1.75,0,0,0-.72-.76,17.56,17.56,0,0,0-4.07-1.19,10,10,0,0,1-4.23-1.73C117.7,127.41,117.53,126.51,117.77,126.39Z"/><path class="cls-1" d="M126,132a.72.72,0,0,1-1.15,0,2.55,2.55,0,0,1-.52-1.8.71.71,0,0,1,.87-.63c1.27.29,1,.82,1.11,1S126.77,131.05,126,132Z"/><path class="cls-1" d="M126.86,131.12c-.46,1-1.49.5-1.67.53s-1.22.09-1.46-.83a.87.87,0,0,1,.62-1.13,2.31,2.31,0,0,1,1,0,2.67,2.67,0,0,1,1,.26A.88.88,0,0,1,126.86,131.12Z"/><path class="cls-1" d="M111.34,128.38c.53-.22,2,3,4.39,5.79.58.71,1.19,1.4,1.81,2.05s1.19,1.14,1.86,1.85a3.33,3.33,0,0,1,1,2.66,2.14,2.14,0,0,1-1.34,1.64,2.68,2.68,0,0,1-1.8.06,3.85,3.85,0,0,1-2-1.64,25.73,25.73,0,0,1-2.4-4.72c-1.35-3.43-1.59-6.89-1.1-6.94.67-.09,1.38,3.11,2.83,6.22a33.4,33.4,0,0,0,2.32,4.3c.74,1.12,1.25.9,1.37.87s.08,0,.1-.12-.09-.5-.56-1-1.19-1.14-1.81-1.83a25.6,25.6,0,0,1-1.85-2.26C111.88,132.14,110.77,128.58,111.34,128.38Z"/><path class="cls-1" d="M116.89,141a1.05,1.05,0,0,1-.8-1c-.08-.41-.1-.85-.12-.94s-.12-.49-.17-.89a1.06,1.06,0,0,1,.35-1.12.93.93,0,0,1,1.37.41,3.13,3.13,0,0,1,.41,1.21,3.37,3.37,0,0,1,0,1.34C117.86,140.62,117.49,141.1,116.89,141Z"/><path class="cls-1" d="M118.57,139.8c-.24,1.12-1.48.62-1.64.59s-1.37-.23-1.17-1.2c.29-1.31,1.43-.78,1.59-.75S118.83,138.61,118.57,139.8Z"/><path class="cls-1" d="M41.06,95.09a.29.29,0,0,1-.07-.42.84.84,0,0,1,.78-.36,1,1,0,0,1,.65.28,1.2,1.2,0,0,1,.36.84,1.33,1.33,0,0,1-1.22,1.36V95.22c0,.24,0,0-.27-.12l-.15,0,.13,0a.49.49,0,0,0,.32-.18s0,0,0,.08,0,0,0,0,0-.08,0,0a.7.7,0,0,0,.35.24s.1,0-.18,0-.28.27-.22,0l-.62,1.33a1.49,1.49,0,0,1-.29-2c.34-.46.78-.43.87-.22s.18.57.32.7a.4.4,0,0,0,.17.14s0,0,0,0l-.07,0a.26.26,0,0,0-.08,0l-.54,1.53A1.55,1.55,0,0,1,40,95.72a2,2,0,0,1,0-1.21,1.75,1.75,0,0,1,.66-.9,1.54,1.54,0,0,1,.78-.26,1.58,1.58,0,0,1,.83.18,1.66,1.66,0,0,1,.78,1A1.93,1.93,0,0,1,43,95.86a1.66,1.66,0,0,1-.56.64,1.38,1.38,0,0,1-.93.23l0-1.26s0-.09-.07-.11,0,0,.06,0,0,0,0,.11,0-.11-.08-.17A1.53,1.53,0,0,0,41.06,95.09Z"/><path class="cls-1" d="M78.35,93.88c.05.11.09.29-.19.38a.73.73,0,0,1-.75-.44.86.86,0,0,1-.1-.5,1,1,0,0,1,.53-.74,1.18,1.18,0,0,1,1.49.4,1.36,1.36,0,0,1,.18,1.25,1.47,1.47,0,0,1-.65.77,2.15,2.15,0,0,1-.79.27h0l-1.66.27L76.94,94a1.66,1.66,0,0,1,.56-.86,1.4,1.4,0,0,1,1.08-.28,1.17,1.17,0,0,1,1,1,1.23,1.23,0,0,1-.11.7,1,1,0,0,1-.75.54.94.94,0,0,1-.57-.11.83.83,0,0,1-.4-.51A.75.75,0,0,1,77.8,94a1,1,0,0,1,.26-.27.58.58,0,0,1,.58-.07c.29.24.08.32,0,.39a1.32,1.32,0,0,0-.2.12s.06-.06.06-.08.19.2.21.17a.42.42,0,0,0-.19,0c-.1,0,0,.05-.05-.1.09.12-.11,0-.19,0s.15-.11.11-.1h0s0,.28,0,.15h0v0a.31.31,0,0,0,.08.13c.2.22.25.18.15.16l-.88-1.2h.07s.07.16.11.22l.12.15,0,0h0l.17.09h0c-.07,0-.18,0-.07,0a.33.33,0,0,0,.1-.11h0s0,.08,0-.06a.1.1,0,0,1,0,0c-.05,0,.25.09.16.06s-.2.13-.17.13,0-.06,0,0A1.18,1.18,0,0,0,78.35,93.88Z"/><path class="cls-1" d="M71.15,113.3c.08-.29.42-.43.85-.23a1.63,1.63,0,0,1,.84,1.46v.65l-.7.23a1.84,1.84,0,0,1-2.09-.69l-.33-.51.22-.48a1.47,1.47,0,0,1,.34-.48,1.58,1.58,0,0,1,.64-.41,1.61,1.61,0,0,1,1.3.11l.08,0,0,0h0a1.36,1.36,0,0,1,.35,1.71,1.24,1.24,0,0,1-.72.6,1.13,1.13,0,0,1-.81-.07.88.88,0,0,1-.5-.83c0-.27.2-.36.35-.33a1.26,1.26,0,0,0,.47,0c.06,0,.12-.12.07,0s0,.13-.09,0,.11,0,.1-.07l-.06.21a.26.26,0,0,0,0,.17.33.33,0,0,0-.06-.08s0,0-.06,0l.16-.7a.29.29,0,0,0,.09-.11.37.37,0,0,0,0,.14l-.7.73C71.08,114.37,71,113.91,71.15,113.3Z"/><path class="cls-1" d="M99.2,90.8c0-.25.34-.51.82-.23a1.29,1.29,0,0,1,.52.7,1.34,1.34,0,0,1-.29,1.24l0,.06-.14.09a1.78,1.78,0,0,1-2.4-.46l-.36-.53.28-.51a1.65,1.65,0,0,1,1.14-.86,1.62,1.62,0,0,1,.56,0,1.67,1.67,0,0,1,1.52,1.12l.11.31-.08.25h0a1.35,1.35,0,0,1-.67.81,1.25,1.25,0,0,1-.84.11,1.4,1.4,0,0,1-.91-.62.87.87,0,0,1-.06-1,.31.31,0,0,1,.44-.09,2,2,0,0,0,.36.26c-.08,0,.07,0,.25-.15l.12-.16c0-.06,0,0,0,.14a.58.58,0,0,0,0,.34c0,.07,0,0-.13,0h0l-.09.33c0-.06-.21.31-.16.28a.28.28,0,0,0,0-.08s-.13-.26-.11-.21l0-.69a.42.42,0,0,0,.11-.14s0,.13,0,.17l0,.29a.37.37,0,0,0-.2,0c-.09,0,0,0,.06-.07S99.21,91.08,99.2,90.8Z"/><path class="cls-1" d="M113.44,106.3c-.07-.16,0-.41.36-.44a.91.91,0,0,1,.88.68,1.08,1.08,0,0,1-.22,1,1.22,1.22,0,0,1-1.08.41,1.36,1.36,0,0,1-.83-.44,1.25,1.25,0,0,1-.3-1.15l0-.07h0a1.58,1.58,0,0,1,1.32-1.06,1.44,1.44,0,0,1,.89.12l.24.11.15.21a1.7,1.7,0,0,1,.33,1,1.06,1.06,0,0,1-.44.92c-.08,0-.07-.1-.07-.27a1.33,1.33,0,0,0,0-.32c.14-.1-.57-.21-.41-.27-.1-.25-.11-.06-.32,0s-.38,0-.47.13-.09.08-.12.06a.18.18,0,0,0-.08,0l.11-.07.49,0a.2.2,0,0,0,0,.13s0,0,0,0a.36.36,0,0,0-.11-.1l-.24-.1s0,0,.09-.05,0-.07,0,0,0,.14,0,.1,0,0-.09,0,0,0,0-.09,0,0,0-.08S113.47,106.4,113.44,106.3Z"/><path class="cls-1" d="M115.41,101.86c.07.57-.42.85-.93.7a1.64,1.64,0,0,1-.87-.65,1.53,1.53,0,0,1-.36-1c0-.49.34-.87.8-.72.65.2.91.3,1,.31s.08.1.1.12S115.22,100.67,115.41,101.86Z"/><path class="cls-1" d="M34,128.77c-.1.15-.36.19-.62-.06a1.14,1.14,0,0,1,0-1.44l.1-.16.42-.12a1.39,1.39,0,0,1,1.28.41,1.85,1.85,0,0,1,.48,1.06,1.83,1.83,0,0,1-.24,1.16,1.57,1.57,0,0,1-1.3.75h-.18l-.07,0a1.6,1.6,0,0,1-1.17-1.21,1.84,1.84,0,0,1,0-.86,1.57,1.57,0,0,1,.34-.68,1.49,1.49,0,0,1,1.28-.53,1.68,1.68,0,0,1,1.24.73,1.57,1.57,0,0,1,.1,1.66l-.15.26-.18.08a1.63,1.63,0,0,1-2.14-.48c-.35-.53-.15-.93.08-1s.61.06.82,0a.81.81,0,0,0,.26-.07.09.09,0,0,0,0-.06l0,.1,0,.45c.09,0-.22,0-.28.08a.52.52,0,0,0,.1-.24c0-.06,0,0,0,0s0,0,0,0a.67.67,0,0,0,.18.08s.15,0,.07,0-.3.22-.24.15l-.13-.12c0,.21.08.15-.1,0a.65.65,0,0,0-.27-.1l0,0s0,0,.22-.18.07-.17.1,0l.33-.29c.17.07,0,0-.11.16S34.09,128.61,34,128.77Z"/><path class="cls-1" d="M138,118.69a.47.47,0,0,1,.64-.39,1.23,1.23,0,0,1,.81.93,1.64,1.64,0,0,1-.19,1.24,1.61,1.61,0,0,1-.72.64,1.38,1.38,0,0,1-1.13,0,1.3,1.3,0,0,1-.69-.7,1.55,1.55,0,0,1-.1-.71,1.19,1.19,0,0,1,.81-1c.49-.08.62.23.56.44a2.86,2.86,0,0,0-.08.43s0-.08,0,0,.4.24.41.2-.49.16-.43.19,0,0,0-.07a.43.43,0,0,0,0,0l0-.17h0s0,0,0,0,0,0-.14-.12a.74.74,0,0,0-.22-.08l.06,0C137.82,119.4,137.94,119.37,138,118.69Z"/><path class="cls-1" d="M77.63,50c-.33-.19-.21-.87.12-1.73l.28-.67c.09-.21.26-.56.2-.49s0,0,0,0,0,0,0,0h-.3l-.53,0c-.43,0-1,.06-1.59.05l-.9,0c-.05,0-.19,0-.19,0l.07-.24c0-.16.09-.33.14-.49a13,13,0,0,1,.68-2c.72-1.51,1.88-2.52,2.25-2.19s-.12,1.61-.51,2.89c0,0,0,0,0,0v0h.44l3.9-.17-1.59,2.66a8.17,8.17,0,0,1-.56.85l-.44.58C78.52,49.71,78,50.16,77.63,50Z"/><path class="cls-1" d="M60.41,55.25c-.16-.06-.26-.22-.4-.25s-.27-.08-.56-.13a1.27,1.27,0,0,0-.44,0c-.14,0-.45,0-.73,0a3.3,3.3,0,0,1-1-.16,2.11,2.11,0,0,1-1.15-.91A2.37,2.37,0,0,1,56,51.87a9,9,0,0,1,.42-1,1.29,1.29,0,0,0,.07-.21v0h0l0,0h0l-.13.09a2.92,2.92,0,0,1-.84.37,2.44,2.44,0,0,1-2-.37,2.25,2.25,0,0,1-1-1.68A2.15,2.15,0,0,1,53,47.56c.58-.7,1.25-.64,1.29-.41s-.14.65-.18,1.07a1.21,1.21,0,0,0,.06.58.67.67,0,0,0,.34.32.7.7,0,0,0,.48.05A1.86,1.86,0,0,0,55.2,49l.35-.23a2.85,2.85,0,0,1,.5-.24,1.75,1.75,0,0,1,1.64.18,1.86,1.86,0,0,1,.62.79,2.47,2.47,0,0,1,.17.85,3.18,3.18,0,0,1-.06.68,3.33,3.33,0,0,1-.18.6,4.25,4.25,0,0,0-.44,1.17c-.08,0,.15.18.63.26l.78.13a2.36,2.36,0,0,1,.84.35,1.54,1.54,0,0,1,.8,1.22C60.81,55.2,60.55,55.3,60.41,55.25Z"/><path class="cls-1" d="M88.07,30.69c-.2-.13-.18-.5,0-1a7.51,7.51,0,0,1,.34-.85c.06-.19,0-.17,0-.21-.18-.06.16.18-.82-.41-.47-.29-1-.57-1.39-.85L85.54,27l-.31-.2s-.16-.07-.08-.1l.15-.1c.82-.52,1.53-1,2.15-1.33s.76-.41.93-.51,0,0,.15,0,0,0,0-.07l-.06-.09s-.12-.07-.25-.12l-.35-.17c-.91-.43-1.53-.84-1.43-1.15s.89-.45,1.89-.3l.39.06a4.89,4.89,0,0,1,.54.12l1.61.45,3.38,1L91,25.71c-.85.35-1.49.67-1.68.77l-.38.21h0s0,0,0,.05,0,0,0,0l.17.11.5.34,1.24.84c-.42.59-.86,1.21-1.16,1.58s-.44.48-.64.66C88.62,30.66,88.29,30.83,88.07,30.69Z"/><path class="cls-1" d="M105.09,44.17c-.42,0-.62-.2-1.27-.54a8.13,8.13,0,0,1-1.2-.78,2.64,2.64,0,0,1-.76-1.06,1.9,1.9,0,0,1,.06-1.27,2.06,2.06,0,0,1,1.57-1.18,6,6,0,0,1,.77-.07c.15,0,.07,0,.11,0s.1,0,.1,0a.15.15,0,0,0,0-.07,2.43,2.43,0,0,0-.2-.32,6.61,6.61,0,0,1-.39-.72c-.21-.45-.27-.8-.08-1s.63-.13,1.06.12a5.13,5.13,0,0,1,.67.49,3.74,3.74,0,0,1,.41.38l.65.69c.1.12.24.25.32.36l.13.31c.09.21.18.41.26.61s-.12.17-.19.26l-.27.21a2.36,2.36,0,0,1-.53.36,5.33,5.33,0,0,1-2,.31c-.07,0-.32,0-.44.05h0s-.1,0,0,.14.63.6.94,1a2.13,2.13,0,0,1,.58,1.16C105.46,43.93,105.28,44.15,105.09,44.17Z"/><path class="cls-1" d="M120.48,55.4c-.06-.29.18-.54.33-.9a1.85,1.85,0,0,0,.13-1.27.76.76,0,0,0-.11-.24l-.42-.47a1.68,1.68,0,0,1-.28-1.86,2.14,2.14,0,0,1,1.22-1,3.7,3.7,0,0,1,.71-.18l1.28-.26.48-.08c.12,0,.05,0,.09,0l.15,0a.12.12,0,0,0,0-.12v-.12l-.17-.39c-.21-.51-.27-.9-.07-1s.67-.06,1.11.28a2.85,2.85,0,0,1,.36.3l.6.67c.42.49.88,1.07,1.35,1.67l-2.09.47-1.46.3-1.28.24c-.32.07-.25.06-.27.07a0,0,0,0,0,0,0s-.06-.05,0,.07a4.18,4.18,0,0,1,.25.38,2.45,2.45,0,0,1,.3.86,2.64,2.64,0,0,1-1,2.58C121.07,55.85,120.52,55.68,120.48,55.4Z"/><path class="cls-1" d="M28.43,48.89c.05.28-.23.56-.8.77a2.61,2.61,0,0,1-2.6-.45,2.3,2.3,0,0,1-.81-1.65,2,2,0,0,1,.89-1.7A2.71,2.71,0,0,1,27,45.51a4.54,4.54,0,0,1,1.41.43,8,8,0,0,1,1.83,1.17c1.18,1,1.82,2.28,1.41,2.55s-1.46-.41-2.52-1a14.29,14.29,0,0,0-1.54-.85,3,3,0,0,0-.85-.29,1.06,1.06,0,0,0-.52.05s-.15-.06.08.32.68.42,1.16.51S28.37,48.59,28.43,48.89Z"/><path class="cls-1" d="M31.66,49.38c.28.5-.73,1.32-1.88,2-.59.37-1.17.71-1.71,1a4.85,4.85,0,0,1-1.37.49A2.8,2.8,0,0,1,26,53a2,2,0,0,1-1.81-2.79,2.44,2.44,0,0,1,1.28-1.44c1-.43,1.62-.31,1.74,0,.18.47-.42.91-.85,1.36a1,1,0,0,0-.33.61c0,.23,0,.26,0,.24a.51.51,0,0,0,.29,0,3,3,0,0,0,.81-.31c.47-.25,1.12-.59,1.74-.86C30.12,49.23,31.37,48.84,31.66,49.38Z"/><path class="cls-1" d="M46.06,27.68c-.43.43-1.66-1-2.59-.95-.53,0-.62.28-.63.38s.21.51.3.58a2.5,2.5,0,0,0,.78.56,2.24,2.24,0,0,0,.75.21l1.12.11a5.69,5.69,0,0,1,2.28.59c.61.34.82.8.67,1s-.61.23-1.09.25-1.13,0-1.92.06a10.56,10.56,0,0,1-1.25,0,3.77,3.77,0,0,1-1.36-.33,4.16,4.16,0,0,1-1.44-1,2.81,2.81,0,0,1-.85-2,2.26,2.26,0,0,1,.92-1.75,2.61,2.61,0,0,1,1.85-.45,3.1,3.1,0,0,1,2.31,1.59C46.24,27,46.29,27.49,46.06,27.68Z"/><path class="cls-1" d="M48.21,29.55c-.58,0-.79-1.39-1.27-2.73a10.65,10.65,0,0,0-1.27-2.71l0,0s0-.09-.18.13a1.09,1.09,0,0,0-.19.37.9.9,0,0,0,.06.48c.28.81,1.18,1.66.87,2s-.53.25-1,.08a3.07,3.07,0,0,1-1.49-1.29,2.53,2.53,0,0,1-.38-1.42,2.67,2.67,0,0,1,.51-1.4,2.33,2.33,0,0,1,1.2-.88,2,2,0,0,1,1.3.06,2.25,2.25,0,0,1,.65.43,7.55,7.55,0,0,1,1.74,3.68C49.11,28,48.81,29.58,48.21,29.55Z"/><path class="cls-1" d="M127.55,28.25c-.24-.16-.2-.55-.14-1.05s.11-1.22,0-1.33-.11-.1-.4.1a1.13,1.13,0,0,0-.37.58,5.52,5.52,0,0,0-.16,1.05c-.06.6-.13,1.35-.24,2.07-.21,1.44-.54,2.78-1,2.75-.67-.05-.84-1.43-.83-2.89,0-.73,0-1.47.1-2.09a6.37,6.37,0,0,1,.25-1.45,3,3,0,0,1,1-1.61,2.41,2.41,0,0,1,1.67-.52,2,2,0,0,1,1.68,1.2,2.5,2.5,0,0,1,0,1.64,3.34,3.34,0,0,1-.51,1C128.21,28.23,127.79,28.42,127.55,28.25Z"/><path class="cls-1" d="M127.71,27.59c-.25-.12-.24-.67.26-1.31a2.89,2.89,0,0,1,2.95-1,3.12,3.12,0,0,1,1.58,1.06,2.7,2.7,0,0,1,.55,1.8,3,3,0,0,1-1,2,5.09,5.09,0,0,1-1.47.95,12.13,12.13,0,0,1-2.42.69c-1.61.34-3.16.53-3.29.05-.18-.65,1.24-1.31,2.79-1.85a21.08,21.08,0,0,0,2.08-.72,3.43,3.43,0,0,0,.95-.57c.26-.19.77-1-.33-1.58a1.94,1.94,0,0,0-1.53.14C128.34,27.48,128,27.73,127.71,27.59Z"/><path class="cls-1" d="M151.31,41.66c-.08-.28.2-.56.57-.93s.85-.95.74-1-.05-.08-.1-.08a.69.69,0,0,0-.4,0,1.22,1.22,0,0,0-.64.37,7.08,7.08,0,0,0-.68.9,16.12,16.12,0,0,1-1.36,1.81c-1.05,1.2-2.27,2.07-2.61,1.72s.33-1.64,1.13-2.86c.43-.65.82-1.25,1.16-1.75a6.23,6.23,0,0,1,.93-1.2,3.11,3.11,0,0,1,1.73-1,2.58,2.58,0,0,1,1.74.3,2,2,0,0,1,1,1.91,2.26,2.26,0,0,1-.91,1.53,3.35,3.35,0,0,1-1.08.55C151.86,42.06,151.39,41.94,151.31,41.66Z"/><path class="cls-1" d="M151.91,41.54c-.21-.17,0-.77.8-1.09a2.59,2.59,0,0,1,3,.89,2.91,2.91,0,0,1-1.85,4.55,4.91,4.91,0,0,1-1.69.06,15.39,15.39,0,0,1-2.34-.47c-1.6-.45-3-1.2-2.79-1.66.24-.63,1.68-.38,3.18-.17l2.15.3a3.35,3.35,0,0,0,1.06,0,1.11,1.11,0,0,0,.61-.36,1.22,1.22,0,0,0,.12-1.19,1.49,1.49,0,0,0-1.15-.67C152.52,41.65,152.13,41.75,151.91,41.54Z"/><path class="cls-1" d="M22.51,106.69c-.14.42-1.23.29-2.58.33a14.54,14.54,0,0,0-4.15.67l.58-1.44a1,1,0,0,0,.76.47,4.48,4.48,0,0,0,1.41,0l2.77-.43c2-.27,3.85-.4,3.94.09.13.66-1.65,1.27-3.59,1.75-1,.23-1.91.45-2.87.58a6.27,6.27,0,0,1-2,0,3.52,3.52,0,0,1-.88-.28,2.75,2.75,0,0,1-1.28-1.21l-.54-1,1.1-.39a10.46,10.46,0,0,1,4.9-.42C21.6,105.62,22.65,106.27,22.51,106.69Z"/><path class="cls-1" d="M25.47,107.29c-.34.46-2-.49-3.68-1.63-.83-.57-1.67-1.18-2.34-1.69a2.66,2.66,0,0,0-1.05-.63h0s0,0,0,0a.5.5,0,0,0,0,.37c.12.34.78.81,1.4,1.2,1.23.79,2.44,1.24,2.36,1.66s-1.57.61-3.17-.09a4.65,4.65,0,0,1-2.34-1.83,2.41,2.41,0,0,1-.24-1.79,2.06,2.06,0,0,1,1-1.34,2,2,0,0,1,1.26-.2,4.16,4.16,0,0,1,2,1c.67.51,1.49,1.14,2.27,1.79C24.47,105.45,25.83,106.81,25.47,107.29Z"/><path class="cls-1" d="M22.08,106c-.21.53-.82.53-1.38.28a4.11,4.11,0,0,1-1.12-.81,3.57,3.57,0,0,1-.81-1c-.26-.51-.3-1.08.13-1.31,1.14-.58,1.8.74,2,.86.07.07.44.35.76.68A1.18,1.18,0,0,1,22.08,106Z"/><path class="cls-1" d="M147,94.7c-.36-.45,1.29-2,3.14-3.63.45-.37.89-.75,1.31-1.11a.92.92,0,0,0,.12-.13s.07,0,.17.06a.3.3,0,0,0,.12,0h0l-.14,0h.1c.11,0,.11,0,.15-.06a.45.45,0,0,0-.12.2c-.11.27-.05.16-.11.18a.38.38,0,0,0-.15,0,1.28,1.28,0,0,0-.35.08,1.82,1.82,0,0,0-.46.25,18,18,0,0,0-3.63,3.31c-1.41,1.62-2.35,3.46-2.81,3.29-.63-.21-.09-2.45,1.33-4.43a14.74,14.74,0,0,1,4-3.82,3.61,3.61,0,0,1,.88-.48,2.74,2.74,0,0,1,2,0,1.65,1.65,0,0,1,.74.64,1.67,1.67,0,0,1,.23,1,2,2,0,0,1-.73,1.39c-.58.5-1,.76-1.51,1.15C149.31,94,147.35,95.18,147,94.7Z"/><path class="cls-1" d="M147.45,94.42c-.3-.5,1.64-1.76,4.06-1.87a6,6,0,0,1,1.91.15,2,2,0,0,1,1.61,2,2.24,2.24,0,0,1-1.23,1.7,4.69,4.69,0,0,1-.77.34,18.31,18.31,0,0,1-4.75,1.1c-2.11.19-4.07-.18-4-.67.05-.67,1.89-.81,3.78-1.18a27.48,27.48,0,0,0,4.3-1.12,2,2,0,0,0,.47-.21l.06,0s0,0,0,0a6,6,0,0,0-1.3-.16C149.58,94.32,147.72,95,147.45,94.42Z"/><path class="cls-1" d="M145.35,96.7c-1.08-.28-.82-1-.88-1.08a1.06,1.06,0,0,1,.53-1.24c.58-.34,1-.19,1.2.13a2.63,2.63,0,0,1,.21,1.67A.8.8,0,0,1,145.35,96.7Z"/><path class="cls-1" d="M149.34,96.81a.77.77,0,0,1-1.18.17,2.35,2.35,0,0,1-.65-.8,2.06,2.06,0,0,1-.34-.9.76.76,0,0,1,.62-.92c1.29-.16,1.3.66,1.41.78A1.31,1.31,0,0,1,149.34,96.81Z"/><path class="cls-1" d="M151.34,96.77c-.66,1-1.65-.15-1.7-.31s-.91-1.26,0-1.66c1.22-.51,1.39.29,1.5.38A1.13,1.13,0,0,1,151.34,96.77Z"/><path class="cls-1" d="M150.16,96.3c-.72-.9.33-1.44.45-1.53s.91-.82,1.53,0a1,1,0,0,1-.29,1.6A1.07,1.07,0,0,1,150.16,96.3Z"/><path class="cls-1" d="M149.38,96a.84.84,0,0,1-1.34.49.89.89,0,0,1-.66-1.21c.46-1.26,1.22-.7,1.33-.66A.93.93,0,0,1,149.38,96Z"/><path class="cls-1" d="M149.39,96.63c0,.57-.5.81-1.07.84a4.21,4.21,0,0,1-1.27-.18c-.27,0-2.17-.66-1.69-1.58.6-1.15,1.91-.37,2.14-.36S149.34,95.46,149.39,96.63Z"/><path class="cls-1" d="M9.34,122.32c-.94-.58.19-2.35.24-2.64s.58-2.15,1.51-2c1.37.23.52,2.44.36,2.7S10.41,123,9.34,122.32Z"/><path class="cls-1" d="M23.63,125.17c-1.1-.12-.81-2.48-.89-2.79s-.39-2.49.53-2.72c1.35-.33,1.49,2.26,1.46,2.58S24.89,125.31,23.63,125.17Z"/><path class="cls-1" d="M4,105.83C4.08,107,2.24,106.94,2,107s-1.91.27-2-.71c-.15-1.33,1.57-1.25,1.8-1.27S3.83,104.62,4,105.83Z"/><path class="cls-1" d="M11.42,92.44c-.64,1-1.6,0-1.73,0s-1.18-.71-.64-1.53a1,1,0,0,1,1.74-.12C10.93,90.83,12.1,91.43,11.42,92.44Z"/><path class="cls-1" d="M24.79,97.48c-1.08-.39-.15-2.31-.06-2.56s.7-2.13,1.63-1.8c1.26.46.33,2.23.25,2.47S25.93,97.89,24.79,97.48Z"/><path class="cls-1" d="M142.26,82.52c-.88.73-1.61-.51-1.73-.64s-1-1.11-.24-1.74c1-.86,1.67.33,1.78.47S143.19,81.74,142.26,82.52Z"/><path class="cls-1" d="M155.63,80.86c-1-.64,0-1.6,0-1.74s.72-1.18,1.53-.64a1.06,1.06,0,0,1,.13,1.75C157.25,80.36,156.64,81.53,155.63,80.86Z"/><path class="cls-1" d="M150.49,107.82c-1.07.41-1.4-1.12-1.47-1.3s-.63-1.51.29-1.86c1.25-.47,1.51,1,1.57,1.16S151.63,107.4,150.49,107.82Z"/><path class="cls-1" d="M163.19,103.08c-.88.73-1.61-.51-1.72-.64s-1-1.11-.25-1.74c1-.85,1.67.34,1.78.47S164.13,102.3,163.19,103.08Z"/><path class="cls-1" d="M167.18,88.11c0,1.15-1.45.92-1.63.92s-1.53.06-1.53-.92c0-1.34,1.35-1.07,1.53-1.07S167.18,86.9,167.18,88.11Z"/><path class="cls-1" d="M115,159.51c.2.12-1.25,2.41-4.89,4a14.26,14.26,0,0,1-6.64,1.18A14.66,14.66,0,0,1,96,162.06a14.84,14.84,0,0,1-3-2.82,11.25,11.25,0,0,1-2.09-3.67,5.93,5.93,0,0,1-.25-2.24,3.63,3.63,0,0,1,1-2.24,3.19,3.19,0,0,1,2.33-.9,4.31,4.31,0,0,1,2.08.68,5.12,5.12,0,0,1,2.22,3,5.77,5.77,0,0,1-.1,3.09,7,7,0,0,1-2.07,3.15,6.21,6.21,0,0,1-3.36,1.54,7.87,7.87,0,0,1-5.63-1.87,36.94,36.94,0,0,1-4.71-5,12,12,0,0,0-2.52-2.18,8.31,8.31,0,0,0-3.07-1.1,11.77,11.77,0,0,0-6.38.95,18.64,18.64,0,0,0-4.78,3.21c-2.51,2.3-3.91,4.13-4.14,3.95s.81-2.24,3.24-4.88a17.72,17.72,0,0,1,5-3.77A13,13,0,0,1,77,149.68a10.21,10.21,0,0,1,3.8,1.29,13.26,13.26,0,0,1,3,2.49,39.24,39.24,0,0,0,4.49,4.72,5.92,5.92,0,0,0,4.18,1.47,4.27,4.27,0,0,0,2.28-1.05,5,5,0,0,0,1.46-2.24,3.17,3.17,0,0,0-1.28-3.78,1.49,1.49,0,0,0-1.93-.05,2.44,2.44,0,0,0-.29,2.48,9.44,9.44,0,0,0,1.69,3A13.37,13.37,0,0,0,97,160.53a13.53,13.53,0,0,0,6.51,2.53,14.27,14.27,0,0,0,6-.73C113,161.13,114.7,159.25,115,159.51Z"/><path class="cls-1" d="M123.35,153.69c.18.19-.29,1-1.44,1.71a8.39,8.39,0,0,1-4.88,1.24,8.15,8.15,0,0,1-2.84-.65,3.45,3.45,0,0,1-2.13-2.4,2.57,2.57,0,0,1,1.14-2.69,2.11,2.11,0,0,1,2-.05,2.65,2.65,0,0,1,1.17,1.16,2.82,2.82,0,0,1,.33,1.2,3.12,3.12,0,0,1-.29,1.37,5.58,5.58,0,0,1-1.72,2,16.21,16.21,0,0,1-2.11,1.42c-3,1.73-6.2,2-6.25,1.54-.11-.65,2.74-1.42,5.28-3.14,1.24-.82,2.65-1.87,3-2.65a.82.82,0,0,0-.24-1.12s-.07,0-.11,0a.67.67,0,0,0-.16.59,1.59,1.59,0,0,0,1,1,6.87,6.87,0,0,0,2.15.57,9.47,9.47,0,0,0,4.15-.53C122.42,153.85,123.14,153.45,123.35,153.69Z"/><path class="cls-1" d="M91,51.67c-.59,0-.54-4.55-.77-9.33s-.69-9.82-.84-10.91-.74-5.81-1.6-10.21-1.78-8.5-1.3-8.65c.63-.19,2.11,3.82,3.13,8.26a89.86,89.86,0,0,1,1.75,10.36,94.36,94.36,0,0,1,.74,11.1C92.11,47.16,91.56,51.71,91,51.67Z"/><path class="cls-1" d="M84.44,6.22c-.29,0-.51-.4-.72-.94a3,3,0,0,0-.87-1.42,1.11,1.11,0,0,0-.62-.2.34.34,0,0,0-.25.08c-.1.07-.11.45-.07.58A6.55,6.55,0,0,0,83.52,7c1,1.09,2.22,1.78,2.07,2.24-.19.65-1.94.34-3.35-.88A6.87,6.87,0,0,1,80,4.7a3.93,3.93,0,0,1-.06-.78,2.41,2.41,0,0,1,.54-1.46,2.25,2.25,0,0,1,1.86-.78A2.8,2.8,0,0,1,84,2.39a3.27,3.27,0,0,1,1,2.7C85,5.78,84.74,6.19,84.44,6.22Z"/><path class="cls-1" d="M85.24,8.5c-.46-.35.31-1.76.73-3.35a14.93,14.93,0,0,0,.47-2.3c.06-.65,0-.75-.06-.76S86.4,2,86,2a1.24,1.24,0,0,0-.58.24,1,1,0,0,0-.38.54c-.4,1.1.09,2.81-.43,2.92-.31.1-.67-.19-1-.77a3.93,3.93,0,0,1-.39-2.63A2.82,2.82,0,0,1,84.18.74,3,3,0,0,1,85.7,0a2.4,2.4,0,0,1,1.49.2A2.19,2.19,0,0,1,88,.88a3,3,0,0,1,.47,2.18,10.56,10.56,0,0,1-.69,2.69C87,7.57,85.71,8.88,85.24,8.5Z"/></g></g></svg>