<svg xmlns="http://www.w3.org/2000/svg" xmlns:xlink="http://www.w3.org/1999/xlink" viewBox="0 0 347.83 362"><defs><style>.cls-1,.cls-3{fill:#768745;}.cls-2{fill:url(#linear-gradient);}.cls-3{font-size:108.32px;font-family:Parisienne-Regular, Parisienne;}.cls-4{font-size:18.56px;fill:#cba78f;font-family:Montserrat-Medium, Montserrat;font-weight:500;letter-spacing:0.05em;}.cls-5{letter-spacing:0.06em;}.cls-6{letter-spacing:0.04em;}.cls-7{letter-spacing:0.04em;}.cls-8{letter-spacing:0.06em;}.cls-9{letter-spacing:0.05em;}.cls-10{fill:url(#linear-gradient-2);}</style><linearGradient id="linear-gradient" x1="49.73" y1="92.65" x2="347.83" y2="92.65" gradientUnits="userSpaceOnUse"><stop offset="0" stop-color="#fff7b8"/><stop offset="0" stop-color="#e6c684"/><stop offset="0.23" stop-color="#c09947"/><stop offset="0.41" stop-color="#e9c577"/><stop offset="0.59" stop-color="#9e6f06"/><stop offset="1" stop-color="#e5c98d"/></linearGradient><linearGradient id="linear-gradient-2" x1="144.84" y1="191.49" x2="169.48" y2="191.49" xlink:href="#linear-gradient"/></defs><title>logo-final</title><g id="Capa_2" data-name="Capa 2"><g id="Capa_1-2" data-name="Capa 1"><path class="cls-1" d="M320.79,201.39c-.9,86.66-71.64,156.89-158.52,156.89-87.43,0-158.55-71.12-158.55-158.55A157.87,157.87,0,0,1,39.88,99l-2.65-2.61A161.53,161.53,0,0,0,0,199.73C0,289.2,72.8,362,162.27,362c88.92,0,161.33-71.9,162.24-160.61Z"/><path class="cls-1" d="M314.79,201.39c-.9,83.35-69,150.89-152.52,150.89-84.12,0-152.55-68.43-152.55-152.55a151.84,151.84,0,0,1,34.47-96.47L42.86,102a153.68,153.68,0,0,0-35,97.78c0,85.14,69.27,154.41,154.41,154.41,84.59,0,153.47-68.37,154.37-152.75Z"/><path class="cls-2" d="M140.4,35.13c1.91-1.91,4.6-2.4,7.45-2.34s5.88.73,8.55,1.11a117.6,117.6,0,0,0,22.16,1.5c13.09.19,18.51-8.33,25.64-15,3.68-3.28,6.82-7,7.84-11.54,1.35-4.7-7-4.76-11.11-5.26C194.12,2.89,186.7.9,179.55.22s-14,0-19.18,4.36c-6,4.18-11.33,9-17.8,12.92-3.95,2.79-4.51,7.17-4.68,11-.16,2.68-.63,5.35-2.63,7.59-2.56,2-4.85,8.27-7.76,8.81A200,200,0,0,0,88.24,58.53a160,160,0,0,0-33,20.89c-1.51,1.72-7,4.51-5,6.84.8.38,2.25-.26,4-1.47.85-.64,1.9-1.29,2.94-2.08s2.15-1.66,3.34-2.46a124.12,124.12,0,0,1,12-8,174.69,174.69,0,0,1,16.92-9c5.19-1.85,10.23-5.85,16.11-5.5,5,.29,9.33,2.19,10.57,6.47.86,5.38.7,11.69,2,17.26s3.76,10.34,9.72,13.07c5.09,2.44,10.89,3.28,16.28,5.53,3.42.88,10.07,5.94,11.14-.05,1.46-6.37,4.09-13,.38-19.29-3-5.21-5.51-10.7-9.21-15.21A24.07,24.07,0,0,0,130,56.51c-4.52-.85-9-.33-13.46.38-2.28.35-4.29-.76-6.47-1.19-.33-.08-.82-.05-.87-.36s.45-.42.76-.54C122,50.59,134.7,47,148,45.56c6-1,12.16-.71,17.6,2.25,3.57,1.31,3.07,4.39,2.52,6.81a125.85,125.85,0,0,1-3.48,13.62,11.65,11.65,0,0,0,2.09,11.29A186.85,186.85,0,0,0,182,96.14c5.62,4.35,11.41-6.14,12.52-10.16A25.11,25.11,0,0,0,194,64.41c-3.38-6.75-10-12.59-19.38-15.48-3-1-5.53-2.8-8.5-3.89a.51.51,0,0,1-.28-.26c-.08-.29.24-.24.42-.24a128.55,128.55,0,0,1,16.66.91,167.61,167.61,0,0,1,23.59,4.36c7.87,2.09,15.13,4.77,20.23,7.89s8,6.63,7,10.19c-4.14,4.71-10,5-15.76,6.1s-11.27,2.88-14.23,10.18c-1.58,5.48-10.74,16-.55,19a23.77,23.77,0,0,0,5.34,1.08,27.66,27.66,0,0,0,5.16,0c3.28-.29,6.69-1.12,9.94-1.7,6.53-1.08,11.19-5.47,13.77-10.9a27,27,0,0,0,1.71-18,42.27,42.27,0,0,0-3.61-11.07c-.63-1.43,2.9.87,3.41,1.1,11.29,6.53,22.21,13.94,31.62,22.71a16.39,16.39,0,0,1,3.11,8.54c.18,3-.88,5.76-3.37,6.81a33.64,33.64,0,0,0-8.47,4,12.18,12.18,0,0,0-4.88,7.45c-1.19,3.56-3,7-4.19,10.38a31.19,31.19,0,0,0-1.36,5,14.17,14.17,0,0,0-.16,4.93c.67,1.2-.17,6.37-.73,9.95a11.41,11.41,0,0,0-.43,4.38c.29.79.86,1.18,2.5.22,3.86-2.26,8.29-4,11.62-7.22,4.78-4.12,9.38-6.87,12.91-10.3a17.09,17.09,0,0,0,4.17-6.2,19.82,19.82,0,0,0,.56-9.39,35.64,35.64,0,0,0-2.44-6.92l-1.07-2.24c-.35-.64-.69-1.21-1-1.82a14.76,14.76,0,0,1-1.3-4.42c-.31-1.94-.47-4.58-.9-8.29a38.12,38.12,0,0,1,4.94,5.05,54.75,54.75,0,0,1,4.48,5.65l4.1,5.88c1.23,2,2.49,4,3.82,5.89a10.53,10.53,0,0,1,1.72,3.1,14.79,14.79,0,0,1,.8,3,14.42,14.42,0,0,1-.25,5.57c-.95,3.68-2.75,7.09-3.79,10.65a18.6,18.6,0,0,0-.87,7.75,19.64,19.64,0,0,0,.82,3.32,18.61,18.61,0,0,0,1.32,3.25,118.53,118.53,0,0,0,9,12.72c2.19,3.46,4,7.35,6.21,11A34.86,34.86,0,0,0,315,184.19c3.42,3.42,5.64-1.91,6.78-5,.77-2.36,1.65-4.76,2.51-7.21a63.25,63.25,0,0,0,2.08-7.52,42.39,42.39,0,0,0,1-7.93,32.8,32.8,0,0,0-1.22-8.29c-.36-1.41-.63-2.85-1.06-4.25s-.89-2.79-1.36-4.16-1-2.7-1.52-4a19.58,19.58,0,0,0-1.89-3.67c-2.92-4.57-6.64-8-12.4-8.5-4.26-.66-9.29-.46-11.57-5.61-.77-1.52-1.41-3.15-2.26-4.63l-2.58-4.48a92.33,92.33,0,0,0-5.72-8.79,19,19,0,0,0-1.24-1.83c-.49-.56-1-1.13-1.49-1.7a18.73,18.73,0,0,1-2.57-3.51,25.09,25.09,0,0,1,5.73,1.55,15.62,15.62,0,0,1,3.12,1.93c1,.73,1.95,1.51,2.9,2.31l2.83,2.46c.87.89,1.74,1.78,2.64,2.65a97.64,97.64,0,0,0,8,5.92,45.87,45.87,0,0,0,4.29,2.48q1.1.57,2.22,1.05c.72.34,1.4.67,2.11,1,5.63,2.33,11.54,2.95,15.91-.49a11.07,11.07,0,0,1,3.83-1.89,24,24,0,0,0,10.61-6.41c3.33-3.54,4.9-8.52.22-13.46-5-4.77-9.94-9.15-15.58-12.48a75.29,75.29,0,0,0-8.22-4.56c-2.83-1.24-5.62-2.32-8.35-3.22a15.07,15.07,0,0,0-7.54-1.14,9.43,9.43,0,0,0-4.5,1.83c-2.44,1.79-4.34,4.28-8.2,5.79-5.16,1.64-5.12,7.26-6.53,11.72-.45,1.48-.74,1.57-2.49,1.17-1.37-.43-2.81-.59-4.14-1a6.06,6.06,0,0,1-3.68-2.11c-11.39-12.08-25.59-22-40.5-29.84-3.42-1.4,1.11-1.49,2.34-1.86,3.74-.49,7.76,2.15,11.74,2.52,7.66,2.1,12.36,1.13,16.27-.89s6.94-5.65,11.34-8.7c4.06-2.36,6.74-5.48,9.32-8.8a2.67,2.67,0,0,0,.59-2.71,7.38,7.38,0,0,0-2.68-3.08c-8.8-7.6-18.55-4.86-27.2-5.77-3.25-.56-6.86-1.65-10-1.85s-5.82.42-7.4,2.84c-3.22,4.37-2.57,10.1-2.9,15.29A28.27,28.27,0,0,1,236.1,52c-.77,2.88-.79,2.9-4.35,3.26a8,8,0,0,1-4.5-.78A133.63,133.63,0,0,0,211,47.89a155.72,155.72,0,0,0-63.72-6.22c-7.36.59-11.83,2-13.12,1.71S134.65,41,140.4,35.13ZM131.46,67l0,.09a.48.48,0,0,1,.53.25c5.71,2.49,9.72,7.78,15.85,9.4l0,0c-4.74-3.2-9-6.89-13.9-10a24.07,24.07,0,0,0-5.1-2.62c-3.59-1.31-6.48-3.74-9.89-5.39-2.3-1,1.24-1.26,5.49-.86s9.11,1.28,9.5,1.73c5.5,1.59,9,5,11.83,8.87s4.94,8.28,7.72,12.09a13.58,13.58,0,0,1,1.89,12.2,55.19,55.19,0,0,0-1.67,7.28c-.32,1.79-.7,2-2.47,1.31-8.75-4.69-17.31-6-23.27-9.25s-9.87-8.45-9.62-21.38a16.92,16.92,0,0,0-2.1-10.1c6.11.29,7.34,7.92,7.66,12.22.35,5.83,2.5,11,4.63,16.38.1.23.09.61.52.53-1.55-5.37-3.8-10.54-3.8-16.21a25,25,0,0,0-2-9.83c1.91.55,3.64,2.24,5.35,3.35,4.18,3.23,8.58,6.59,9.67,11.62,1.85,4.34,1.56,9.29,2.45,13.57a33.89,33.89,0,0,0-2.19-15.86v0c.9-.09,1.16.67,1.6,1.11a116,116,0,0,0,9.67,8.29c.34.16,1.26,1.2,1.52.71-6.7-6-12.95-12.71-19.3-19.23l-.61-.24ZM262.83,36.79c-.37-.15-.5.18-.59.38a35,35,0,0,1-5.94,8.55c-2.66,2.83-6.86,4.79-11.08,5.85,1.76-4.46,1.94-9.27,1.86-14.18-.13-.47.06-1.57-.69-1.7s-.23.67-.22,1.05c-.3,6.26.19,15.6-8.17,17.37-.74.2-1-.12-.78-.67,1.88-6.84-.66-14.71,2.53-21.26,2-4.46,7.36-4,13.34-2.07a27.15,27.15,0,0,0,7.54.76c2.57,0,5.14-.11,7.72-.12a21.64,21.64,0,0,1,15.45,5.11c1.84,1.5,2.15,2.45,1.26,3.72-3.74,6.69-13.19,9.27-18.3,15A10.31,10.31,0,0,1,262,57.36a19.38,19.38,0,0,1-6.05.81,38.89,38.89,0,0,1-6.6-.74A51.9,51.9,0,0,1,242.83,56c-.73,0-.87-.55-.2-.71,3.24-.64,5.68-3.1,9.34-2.81,2,.15,12.21,1.26,12.23-.54-.2-.56-1.56-.19-2.38-.2-1-.12-10.29.47-8.79-.87,3.47-1.72,6.77-3.77,10.18-5.72,1.71-1,3.44-1.92,5.23-2.79a38.94,38.94,0,0,1,5.7-2.07,13.46,13.46,0,0,0-4.05.24,22.44,22.44,0,0,0-3.92,1.35c-2.55,1.09-4.95,2.4-7.09,3.14,0-.11.11-.09.23-.07C260,42.1,263.39,39.83,262.83,36.79ZM214.74,92.21c3.35.53,6.13-1.06,9.24-1.4l.05-.09c-.12,0-.13,0,0,0a54.76,54.76,0,0,0-4.66,3.85l.14.15a53.57,53.57,0,0,0,8.07-6.25,55.16,55.16,0,0,0,6.58-7.41c.28,0,.22.25.21.41-.47,3.48-2.28,6.58-3.41,9.86l0,0c.8,0,.76-.7,1-1.11,1.94-4.33,4-8.63,4.37-13.48.36-1.19.44-2.6,1.26-3.59,2.79,10.74-1.43,23.19-12.54,27.05A50.08,50.08,0,0,1,214.1,103a25.15,25.15,0,0,1-5.75,0,22,22,0,0,1-5.87-1.53c-6.26-2.3,2.27-13.17,3.52-16.88,2.6-4.89,6.88-8.11,13.32-9.08,5.4-.78,11.22-2.11,14.86-5.73.36-.59,1.07-.31.9.33.55,5.24-3.85,6.79-9.09,8-2.63.6-5.42,1-8,1.67s-4.87,1.49-6.36,2.84h0c4-1.27,8-2.72,12.45-2.65a26.81,26.81,0,0,0,8.74-1.75c.36.26.05.55,0,.79a29.18,29.18,0,0,1-5.35,8.4c-3.28,3.15-8.64,3.37-12.68,4.82Zm44.95,28.26a38.28,38.28,0,0,0,11-7.8c-.81,2.4-1.61,4.54-2.37,6.41a34.23,34.23,0,0,1-2.45,5c-1.85,3-4.41,5.52-8.82,8.72-.95.61-.4,1,.26.3,3.68-2.49,5.62-4.35,6.24-4.65.32-.14.32.13.07.92a44,44,0,0,1-1.57,4.15c-.17.54-.58,1.14-.3,1.61h0c.69-1.4,1.38-2.82,2.07-4.23s1.3-2.86,1.95-4.27c1.33-2.88,2.73-5.81,4.34-8.63.37.07.22.44.2.7-.11,2.09-.29,4.2-.31,6.19a17.7,17.7,0,0,0,.35,5.85c.65-.58.28-1.17.29-1.75,0-2,.3-4.12.39-6.14s.26-4.22.38-6.32c.56-4.06,3-7.63,3.64-11.71.31-1.56,2.35,1.85,3.47,6a35.53,35.53,0,0,1,1.35,5.89,8.82,8.82,0,0,1,0,3.32,14.92,14.92,0,0,1-4.5,10,65.79,65.79,0,0,1-8.74,7.3A43.21,43.21,0,0,1,257,144.9c-1.49.6-6.23,4.41-5.89,2.38.47-4.43,3-10.56,1.79-15.92-.64-3,.28-6.14,1.51-9.2s3.17-6.21,4.33-9.4c1-3.21,3.25-5.05,6-6.49,1.36-.72,2.82-1.36,4.24-2a18.1,18.1,0,0,0,3.87-2.29.35.35,0,0,1,.59.36c-.54,8.57-7.24,13.93-13.69,18.09Zm61.2-16.7a105.75,105.75,0,0,0-11.41-6.14c-.29-.13-.78-.14-.82-.66a66.43,66.43,0,0,1,9.28.3c3.09.24,6.15.37,8.78-.4l0,.06a84.94,84.94,0,0,0-9.5-1,70.25,70.25,0,0,1-9.79-1c-.51-.17-1.47,0-1.76-.62,4.36-3.9,9.55-7.54,15.84-9a18.85,18.85,0,0,1,7.5,0c.4.08,1.2.5,1-.21-2.08-1.44-5.4-1-7.32-1a28.8,28.8,0,0,0-17,7.66,7.85,7.85,0,0,1-7.79,2c-10.59-1.32-3.95-.56-2.78-7.21-.26-.22-.42,0-.52.1l-4.09,5.37c-.23.73-3,.44-2.61-.49,1.18-2.24,1.06-5.09,1.83-7.55,1-2.49,3.26-3.78,5.76-4.89s5.21-2.05,6.8-4.09c4.36-3.24,11.51-1.7,19.42,2a108.8,108.8,0,0,1,11.46,7.24C336.66,87,340,89.85,343,92.36c2.44,2.25,4.44,4.65,3,6.78-2.66,5.41-6.37,9.29-11.86,10.5a14.56,14.56,0,0,0-5.94,2.42c-3,2.45-7.08,2.25-11.15.94a58.49,58.49,0,0,1-6.31-2.59,56.9,56.9,0,0,1-6-3.41,47.35,47.35,0,0,1-7-5.75,40.78,40.78,0,0,0-3.41-3c-1.16-1-2.32-1.92-3.5-2.81-.06-.39.31-.26.56-.25,2.25-.13,4.4,1.06,6.51,2.58s3.87,3.67,5.92,5.11c.73.44,2,2,2.61,1.41.15-.3-.37-.61-.66-.85s-2.94-2.54-5.08-4.45c-.53-.48-1-.94-1.47-1.36s-.85-.74-1.11-1c-.53-.57-.58-.89.24-.73,3,.33,5.77-.09,8.73,1.76A88,88,0,0,0,321,104.1Zm-18.58,31.91c.29-.08.39.24.49.48.6,1.45,1.22,2.9,1.86,4.33l1.66,4.44c.57,1.48,1.16,2.94,1.77,4.4s1.08,3,1.66,4.48c.4.8,1.39,3.61,2.22,3.42.3-.23,0-.62-.11-.91s-1.65-4.26-3-7.5-2.33-6-.88-4.43l3.25,2.72a32.24,32.24,0,0,1,3.16,2.89,42.42,42.42,0,0,1,5.51,6.87c.13.19.27.6.55.38s.12-.52,0-.76a50.43,50.43,0,0,0-6.12-7.88c-2.35-2.32-4.83-4.43-7.1-6.62a8.32,8.32,0,0,1-1.56-2,14,14,0,0,1-1.13-2.34c-.63-1.64-1.09-3.42-1.82-5-.09-.23-.21-.54,0-.71,3.81,2.34,8.33,3.69,12.42,5.88.34.18.93.6,1,.32a3.44,3.44,0,0,0-1.3-1.48,14.63,14.63,0,0,0-2.44-1.28c-1.78-.79-3.68-1.41-4.63-1.94a11.64,11.64,0,0,1-5.24-3.11,13.75,13.75,0,0,1-3-5.69c-.24-.56-.12-.81.43-.54,3.38,1.65,6.89,1.94,10.49,2.3a12.06,12.06,0,0,1,7.29,3.83,20.29,20.29,0,0,1,2.84,3.69,23.91,23.91,0,0,1,1.76,4.5l1.94,6.78c.48,2.29.93,4.58,1.24,6.85a26.6,26.6,0,0,1-1,13.1c-2.15,5.88-3.09,12.8-5.87,18.13-1.33,2-4-.92-6.37-4.6-1.21-1.83-2.31-3.89-3.29-5.6a43.06,43.06,0,0,1-2.06-3.8,45.33,45.33,0,0,0-3.68-6.48,57,57,0,0,0-4.73-5.47c-3.07-3.33-5.19-5.9-6.05-8.64a16.2,16.2,0,0,1-.55-7.91,32.23,32.23,0,0,1,1.05-4.17c.43-1.4.88-2.84,1.33-4.31a71.88,71.88,0,0,0,2.59-9.59c.36-.11.38.29.48.49.62,1.69,1.5,3.33,2.25,5a10.54,10.54,0,0,1,1.24,5.11,36,36,0,0,1-1.3,8.51c-.62,2.76-1.31,5.58-.63,8.31h0c.42-2.39,1.06-4.8,1.74-7.24S301.82,138.12,302.31,135.68Zm-122-106.25c-3.21-1.15-7-1.18-10.43-2.26a64.6,64.6,0,0,0-15.35-2,29.26,29.26,0,0,1,17.94-5.45c5.36.07,10.75,2.06,15.92,1.7a158.78,158.78,0,0,0-16.48-3.24c8-3.29,18.71-3.2,26.76-6.53,1.08-1.13-3,.5-3.69.6C181.1,15,166,16.24,154,22.67c-.64.55-1.33.36-.72-.42A33.45,33.45,0,0,1,169.25,9c4-1.45,3.21-2.25-.36-.39-3.24,1.51-6.69,2.81-9.48,4.82a24.1,24.1,0,0,0-8,9.5,5.21,5.21,0,0,1-2.49,2.41,53.93,53.93,0,0,0-7.49,4.94c-.39.48-.94.3-.84-.27.39-4.4.36-9.34,4.89-12.55,5.22-3.93,10.48-8.7,16.78-12a31,31,0,0,1,22.46-3.19c7.14,1.28,14.18,2.34,21.18,3.13,4.53.51,5.07,1.24,3.84,4.33a24.16,24.16,0,0,1-6.67,9C196.33,24,192.88,32.64,182,33.6,170.06,35,157.62,31,145.45,31.09c1.46-2.38,5.46-4.08,8.61-4C163.47,26,171.46,29.67,180.26,29.43Zm-7.35,51.88c-.06.32.1,1.89.58,1.13-.37-8.91,4-17.2,3.08-26.1-.15-1.68,1.92.43,4,3.06a51.26,51.26,0,0,1,4.32,6.29c1.22,5.11-2,10.25-2.75,15,.9,0,1.12-2,1.53-2.63,1.24-2.72,1.74-6.21,2.89-8.69a32.82,32.82,0,0,1,2.48,8.09c0,.25-.11.58.33.72.1-9-3.83-18.31-11.26-25.41-1-.62-.45-1.17.43-.51C191.42,58.77,197.47,71.35,194,82.7c-.72,5-3.52,8.9-7.32,12.27-1.92,2.12-3.69.63-5.27-1.11-3.73-4.64-7.89-9-11.68-13.64-2.65-3.14-4.11-6.93-2.82-10.64,1.74-6.12,3.43-12.46,3.44-18.8,3.36.79,3.9,5.32,4.25,7.61C175.21,66.3,172.52,73.46,172.91,81.31Zm144,96.85c-.56-2.29-.79-4.8-1.33-7.25a63.17,63.17,0,0,0-1.83-7.26c0-.32-.31-1,0-1.17.62.4,1.76,4.06,2.62,7.74S317.36,177.69,316.87,178.16Zm-18.12-27.47a1.06,1.06,0,0,1,.18-.59.58.58,0,0,1-.16.55Zm0,0c.11,0,.11,0,0,.05v-.09ZM148,76.75h-.14C147.88,76.67,147.94,76.74,148,76.75Zm173.86,27.49a6.5,6.5,0,0,1,2.5,1l.06.31a5,5,0,0,1-2.52-1.07Zm4,1.55c1.46,0,1.62,1.35,0,.33Zm-1.51-.56a2.06,2.06,0,0,1,1.51.57l0,.32a2.12,2.12,0,0,1-1.49-.58Zm-3.46-1.46c.33-.06.65.18,1,.47l0,.23c-.31.13-.62-.13-.94-.37Zm5.85-6.84H327c-.06.1-.15,0-.26-.07Zm-67.05,23.54a2.28,2.28,0,0,1-1.48.86v0a2,2,0,0,1,1.44-1Zm-2.33,1.28c-.15.46-.54.53-.86.68-.48,0,.66-.72.86-.65Zm.43-.18c.11-.21.24-.31.43-.21v0c-.1.21-.24.31-.43.21Zm0,0c-.1.23-.23.33-.42.21v0c.11-.2.25-.29.43-.21ZM212.52,92.3a1.41,1.41,0,0,1-1.76.15,15.26,15.26,0,0,1,1.8-.11Zm18.39-1c.22.8-.3,1.29-.79,1.8l0,0c-.09-.74.41-1.25.78-1.81Zm-11.86,3.7c-.43.5-.8,1.1-1.71.77v0c.56-.27,1-.77,1.62-.91Zm-4.31-2.84a2.69,2.69,0,0,1-2.21.1l0,0a3.54,3.54,0,0,1,2.21-.1Zm-3.08-9.58c.06.23-.1.31-.32.32-.51-.06,0-.51.31-.33Zm18.46,10.52c-.12.65-.63.08,0,0ZM219.5,94.77a.41.41,0,0,1-.45.28L219,95a.42.42,0,0,1,.41-.33Zm-2.16,1,0,.13,0-.09Z"/><text class="cls-3" transform="translate(49.73 236.01)"><tspan xml:space="preserve">C  L</tspan></text><text class="cls-4" transform="translate(106 301.76)">1<tspan class="cls-5" x="7.79" y="0">6</tspan><tspan class="cls-6" x="20.36" y="0">.</tspan><tspan x="25.27" y="0">0</tspan><tspan class="cls-7" x="38.58" y="0">9</tspan><tspan class="cls-8" x="50.73" y="0">.</tspan><tspan class="cls-9" x="56.06" y="0">2</tspan><tspan x="67.62" y="0">023</tspan></text><path class="cls-10" d="M144.84,193.7v-4.35h24.64v4.35Zm10,9.84V179.45h4.62v24.09Z"/></g></g></svg>