<svg xmlns="http://www.w3.org/2000/svg" viewBox="0 0 111.55 107.48"><defs><style>.cls-1{fill:#2a2728;}</style></defs><title>Recurso 9</title><g id="Capa_2" data-name="Capa 2"><g id="Capa_1-2" data-name="Capa 1"><path class="cls-1" d="M62.06,74.72c.06,0,.19.23.16.66a5,5,0,0,1-.52,1.72A16.69,16.69,0,0,1,57.8,82a30.63,30.63,0,0,1-7.4,4.87A41,41,0,0,1,40.57,90,52,52,0,0,1,30,90.9a43.1,43.1,0,0,1-9.71-1.18,32,32,0,0,1-11.2-5,24.05,24.05,0,0,1-3.35-2.91,20,20,0,0,1-4.12-6.28A14.87,14.87,0,0,1,.56,71a13.42,13.42,0,0,1,.63-5,17.21,17.21,0,0,1,6.15-8.17A29.7,29.7,0,0,1,16,53.34a46.21,46.21,0,0,1,8-1.82c4.72-.62,7.82-.3,7.82-.06,0,.41-3.06.57-7.58,1.5S13.54,55.55,8.63,59.45a15.38,15.38,0,0,0-5.32,7.18,11.78,11.78,0,0,0,.4,8,17.77,17.77,0,0,0,3.66,5.56,20.64,20.64,0,0,0,3,2.64,29.74,29.74,0,0,0,10.43,4.66A40.69,40.69,0,0,0,30,88.66a51.94,51.94,0,0,0,10.15-.73,37.56,37.56,0,0,0,16.67-7.09A20.86,20.86,0,0,0,61,76.67a8.43,8.43,0,0,0,.81-1.39C61.92,74.94,62,74.73,62.06,74.72Z"/><path class="cls-1" d="M86.79,47.58c.08-.13,1,.25,2.55,1s3.75,2,6.32,3.62A52.47,52.47,0,0,1,104,58.7a28.55,28.55,0,0,1,7,10.36,9.43,9.43,0,0,1,.58,3.48,5.74,5.74,0,0,1-1.37,3.55,10.46,10.46,0,0,1-6.11,3,26.06,26.06,0,0,1-11.86-.58,41.73,41.73,0,0,1-8.62-3.45A53,53,0,0,1,79,72.33a44.44,44.44,0,0,1-4.15-3.13,35.83,35.83,0,0,1-6-6.46,28.23,28.23,0,0,1-2.71-4.65,17.43,17.43,0,0,1-1.56-5.72,11,11,0,0,1,1.12-6.25A7.59,7.59,0,0,1,71,42.3a13.61,13.61,0,0,1,6.17.49,48.63,48.63,0,0,1,5.29,2,70.75,70.75,0,0,1,8.71,4.46c4.87,3,7.49,5.66,7.32,5.84s-3.13-2-8.05-4.57a84.34,84.34,0,0,0-8.69-4,50.45,50.45,0,0,0-5.11-1.77,11.85,11.85,0,0,0-5.23-.36,5.48,5.48,0,0,0-3.84,2.8,8.92,8.92,0,0,0-.81,5,15.35,15.35,0,0,0,1.38,5,26.2,26.2,0,0,0,2.52,4.28,33.33,33.33,0,0,0,5.61,6.06,41.32,41.32,0,0,0,3.93,3,50.3,50.3,0,0,0,4.42,2.62,39.93,39.93,0,0,0,8.15,3.26,24.13,24.13,0,0,0,10.84.58,8.46,8.46,0,0,0,4.87-2.26c1.12-1.21,1.08-3.1.45-4.93A27.29,27.29,0,0,0,102.64,60a58,58,0,0,0-7.81-6.56c-2.43-1.75-4.51-3.11-5.93-4.11S86.7,47.73,86.79,47.58Z"/><path class="cls-1" d="M55.4,58.54c-.18.28-1.24-.09-2.78-.73s-3.61-1.49-5.79-2.2a54.75,54.75,0,0,0-10.22-2.34,52.05,52.05,0,0,0-9.9-.22c-2.15.12-4.22.43-5.77.61s-2.59.3-2.67,0,.82-.89,2.34-1.45A28.55,28.55,0,0,1,26.51,51,41.91,41.91,0,0,1,36.87,51a44.14,44.14,0,0,1,10.67,2.58A30.81,30.81,0,0,1,53.3,56.5C54.74,57.47,55.57,58.25,55.4,58.54Z"/><path class="cls-1" d="M101.39,77.83c-.29.18-1.15-.78-2.38-2.27s-2.91-3.46-4.8-5.34a60.41,60.41,0,0,0-9.37-7.74,58.37,58.37,0,0,0-10.2-5.26c-2.3-1-4.62-1.66-6.34-2.24s-2.86-.92-2.81-1.2,1.28-.42,3.14-.22a35.28,35.28,0,0,1,6.75,1.69A48.33,48.33,0,0,1,86.06,60.6c.28.17.79.5,1.45,1s1.52,1,2.42,1.78a46.08,46.08,0,0,1,5.81,5.4,37,37,0,0,1,4.47,5.94C101.2,76.44,101.67,77.66,101.39,77.83Z"/><path class="cls-1" d="M77,87.16c-.17.27-1.61-.35-3.71-1.51a50.77,50.77,0,0,1-7.49-5,30.7,30.7,0,0,1-6.57-7.24A24.29,24.29,0,0,1,56.65,68a19.41,19.41,0,0,1-1-5.6,15.62,15.62,0,0,1,2.4-9,24.43,24.43,0,0,1,5.81-6.29c1.79-1.38,3.07-2.09,3.24-1.88s-.76,1.39-2.28,3a32.35,32.35,0,0,0-5,6.27,14.47,14.47,0,0,0-1.95,7.89,17.89,17.89,0,0,0,.9,5,22.43,22.43,0,0,0,2.32,4.84,32.29,32.29,0,0,0,6,6.83c2.42,2.13,5,4,6.91,5.41S77.15,86.86,77,87.16Z"/><path class="cls-1" d="M109.91,69.79c.12-.09.44.06.8.53a4.42,4.42,0,0,1,.81,2.31c.2,2.06-.75,4.6-1.92,6.82a37.13,37.13,0,0,1-3.85,6.25A21.06,21.06,0,0,1,102.63,89,16.38,16.38,0,0,1,99,91.28a12.27,12.27,0,0,1-7.14,1.08,19.47,19.47,0,0,1-3.39-1c-1-.38-1.88-.7-2.64-.91-1.5-.44-2.53-.31-2.61-.6s1-1,2.86-.84,4,1,6.09,1.27a11,11,0,0,0,5.88-1,14.42,14.42,0,0,0,3.18-2A18.76,18.76,0,0,0,104,84.3a45.88,45.88,0,0,0,3.76-5.84A15.65,15.65,0,0,0,110,72.64C110.23,71,109.61,70,109.91,69.79Z"/><path class="cls-1" d="M57.41,80.83c-.35-.11.32-2-.57-4.74A11,11,0,0,0,54.39,72a17,17,0,0,0-4.65-3.37,38.55,38.55,0,0,0-11.19-3.45,42.49,42.49,0,0,0-7-.45,45.48,45.48,0,0,0-6.68.74A42.45,42.45,0,0,0,14.4,69c-.86.44-1.71.9-2.51,1.36a20,20,0,0,0-2.18,1.53,12.71,12.71,0,0,0-3,3.42c-1.34,2.3-.8,4.16-1.13,4.22-.09,0-.19-.07-.32-.27a2.68,2.68,0,0,1-.34-1,6.12,6.12,0,0,1,.49-3.64,12.58,12.58,0,0,1,3.11-4.18,18.51,18.51,0,0,1,2.33-1.81c.85-.54,1.71-1,2.61-1.54a40.52,40.52,0,0,1,11-3.89,44.51,44.51,0,0,1,7.05-.76,42.49,42.49,0,0,1,7.43.44,37.87,37.87,0,0,1,11.84,3.83,17.54,17.54,0,0,1,5.06,4,11.41,11.41,0,0,1,2.47,5,7.83,7.83,0,0,1-.09,3.87C57.9,80.47,57.55,80.88,57.41,80.83Z"/><path class="cls-1" d="M65.29,78.49c.15,0,.44.71.67,2.1a17.3,17.3,0,0,1-.25,5.86,23,23,0,0,1-3.26,7.77,27.1,27.1,0,0,1-6.81,7.11,31.12,31.12,0,0,1-9.12,4.41,42.85,42.85,0,0,1-9.1,1.62A61.24,61.24,0,0,1,26,107a48.77,48.77,0,0,1-10.69-2.37,29,29,0,0,1-3.87-1.69,22.5,22.5,0,0,1-3.85-2.49A19.9,19.9,0,0,1,4.2,97a18.11,18.11,0,0,1-2.38-4.27,27.65,27.65,0,0,1-1.75-9A53.32,53.32,0,0,1,.31,76c.47-4.43,1-7.26,1.3-7.23s.28,2.94.16,7.32a67.05,67.05,0,0,0,.16,7.49A27.37,27.37,0,0,0,3.77,92,16.32,16.32,0,0,0,9,98.69a19.92,19.92,0,0,0,3.5,2.24,26.49,26.49,0,0,0,3.6,1.56,47,47,0,0,0,10.18,2.27,59.33,59.33,0,0,0,11,.33,41.32,41.32,0,0,0,8.62-1.5,29.91,29.91,0,0,0,8.53-4,26.4,26.4,0,0,0,6.48-6.43,23.46,23.46,0,0,0,3.38-7.06C65.53,81.66,64.87,78.54,65.29,78.49Z"/><path class="cls-1" d="M80.62,86.45c-.27-.19-.14-.72,0-1.45a3.62,3.62,0,0,0-.12-2.23A1.19,1.19,0,0,0,79,82.3,2.07,2.07,0,0,0,78,83a3,3,0,0,0-.5,1.23,7.17,7.17,0,0,0,.09,2.62c.18,1,.45,2,.52,2.82s0,1.38-.31,1.42-.71-.37-1.09-1a13.92,13.92,0,0,1-1.16-2.7,7.7,7.7,0,0,1-.28-3.52,5.1,5.1,0,0,1,.94-2.2,4.32,4.32,0,0,1,2.16-1.5,3.58,3.58,0,0,1,2.22,0,3.15,3.15,0,0,1,1.84,1.7A3.71,3.71,0,0,1,82.6,84,4.46,4.46,0,0,1,82,85.56C81.45,86.35,80.89,86.65,80.62,86.45Z"/><path class="cls-1" d="M82,85.61c-.14,0-.35,0-.48-.36a1.72,1.72,0,0,1,.09-1.37,2.72,2.72,0,0,1,3.86-1.16,3.74,3.74,0,0,1,1.7,3.92,4.76,4.76,0,0,1-1.11,2.21,6.13,6.13,0,0,1-1.73,1.37,10.33,10.33,0,0,1-3.13,1c-2.08.34-4,.51-4.15,0-.17-.74,1.69-1.46,3.68-2a12.32,12.32,0,0,0,2.51-.93,3.75,3.75,0,0,0,1.11-.86,2.55,2.55,0,0,0,.6-1.16,1.82,1.82,0,0,0-.59-1.69.89.89,0,0,0-.72-.22,1.84,1.84,0,0,0-.79.36C82.43,85,82.34,85.47,82,85.61Z"/><path class="cls-1" d="M2.23,74c-.1,0-.42-.79-.39-2.09a11,11,0,0,1,1.28-4.63A22.47,22.47,0,0,1,8.2,61a26.27,26.27,0,0,1,6.38-4.13c3-1.4,6.11-1.85,6.13-1.64s-2.9,1-5.77,2.4a28.27,28.27,0,0,0-6.14,4,23.87,23.87,0,0,0-4.93,6,12.37,12.37,0,0,0-1.44,4.27C2.27,73.14,2.39,74,2.23,74Z"/><path class="cls-1" d="M57.19,63.2c-.19.18-1.49-1-3-2.09a29.34,29.34,0,0,0-3.64-2.22,29.14,29.14,0,0,0-3.73-1.51c-1.66-.57-3.28-.89-3.25-1.11s1.74-.2,3.49.3a20.92,20.92,0,0,1,3.89,1.52,21.37,21.37,0,0,1,3.75,2.34C56.21,61.62,57.39,63,57.19,63.2Z"/><path class="cls-1" d="M4.37,72.91c.25.07.22.59.17,1.14s-.11,1.13-.12,1.25,0,.55-.06,1.19-.07,1-.29,1-.48-.45-.55-1a6.45,6.45,0,0,1,0-1.28,7.06,7.06,0,0,1,.18-1.33C3.85,73.34,4.1,72.84,4.37,72.91Z"/><path class="cls-1" d="M59.27,79.69c-.25-.06-.09-1.3-.18-2.61a13.12,13.12,0,0,0-.5-2.94,14,14,0,0,0-1.09-2.6c-.57-1.09-1.32-2-1.15-2.15s1.17.59,1.87,1.72a10.24,10.24,0,0,1,1.23,2.77,11.3,11.3,0,0,1,.49,3.18C59.94,78.47,59.53,79.75,59.27,79.69Z"/><path class="cls-1" d="M16.46,91.86c-.08.24-1.88-.29-3.66-1.18a26.53,26.53,0,0,1-3.87-2.39,25.06,25.06,0,0,1-3.24-2.8c-1.3-1.32-2.29-2.76-2.12-2.89S5,83.68,6.28,84.89a37.43,37.43,0,0,0,3.18,2.68,38.34,38.34,0,0,0,3.73,2.36C14.87,90.88,16.55,91.6,16.46,91.86Z"/><path class="cls-1" d="M12.54,91.87c-.07.24-1.27,0-2.45-.57a14.22,14.22,0,0,1-2.54-1.52,14,14,0,0,1-2.11-1.84c-.83-.88-1.42-1.86-1.25-2s1,.61,1.85,1.38a24.85,24.85,0,0,0,2,1.71,25.75,25.75,0,0,0,2.4,1.49C11.54,91.14,12.62,91.6,12.54,91.87Z"/><path class="cls-1" d="M10.4,92.93c-.08.24-.93,0-1.76-.32a12.47,12.47,0,0,1-1.82-1,10.92,10.92,0,0,1-1.54-1.22c-.62-.59-1.09-1.24-.93-1.39s.83.27,1.48.75,1.32,1,1.49,1.12.94.59,1.69,1S10.49,92.67,10.4,92.93Z"/><path class="cls-1" d="M86,51.1c-.16.22-2.15-1.23-4.53-2.26A28.89,28.89,0,0,0,78,47.55c-1-.3-1.85-.48-2.15-.54s-1.07-.2-2.08-.32a28.73,28.73,0,0,0-3.46-.16,9.64,9.64,0,0,0-3.14.41c-.77.29-1.15.72-1.24.64s.14-.69,1-1.17a7.81,7.81,0,0,1,3.34-.72,23.27,23.27,0,0,1,3.6.1c1.05.12,1.85.29,2.16.34s1.15.23,2.22.55a23.51,23.51,0,0,1,3.57,1.39C84.26,49.23,86.17,50.91,86,51.1Z"/><path class="cls-1" d="M99.79,59.81c.16-.2,2.24,1.29,4,3.31a28.07,28.07,0,0,1,3.61,5,12.23,12.23,0,0,1,.92,2,6,6,0,0,1,.13,3.79,4.27,4.27,0,0,1-2.4,2.6c-1,.34-1.6.08-1.57,0s.62-.13,1.34-.53a4,4,0,0,0,1.83-2.32,5.47,5.47,0,0,0-.18-3.24,11.7,11.7,0,0,0-.86-1.9,33,33,0,0,0-3.45-4.91C101.51,61.66,99.62,60,99.79,59.81Z"/><path class="cls-1" d="M106,70.38c.21-.15.9.78,1,2A6.27,6.27,0,0,1,106.8,75a5.89,5.89,0,0,1-1.21,2.2c-.72.86-1.72,1.25-1.8,1.05s.6-.8,1.15-1.58a6.71,6.71,0,0,0,1-1.93,7.14,7.14,0,0,0,.25-2.3C106.15,71.43,105.75,70.52,106,70.38Z"/><path class="cls-1" d="M89.9,88.52c0-.26,1.65-.06,3.34-.29a15,15,0,0,0,3.74-1,14.61,14.61,0,0,0,3.17-1.8c1.3-.93,2.27-2.09,2.45-2s-.6,1.53-1.93,2.61a12.39,12.39,0,0,1-3.35,2,13,13,0,0,1-4,1C91.5,89.22,89.84,88.78,89.9,88.52Z"/><path class="cls-1" d="M92.38,87.13c0-.26.79-.34,1.59-.53a14.45,14.45,0,0,0,1.8-.52,13,13,0,0,0,1.59-.78c.68-.37,1.28-.79,1.43-.63s-.28.85-1,1.34a7.29,7.29,0,0,1-1.72.9,7.69,7.69,0,0,1-2,.53C93.21,87.55,92.37,87.4,92.38,87.13Z"/><path class="cls-1" d="M93.08,86.05c-.18-.48,1.17-.86,1.33-.92s1.38-.52,1.53-.11c.21.57-1.06.9-1.22,1S93.26,86.57,93.08,86.05Z"/><path class="cls-1" d="M62.06,82.89c-.51.1-.7-1.4-.74-1.58s-.34-1.55.09-1.64c.6-.12.75,1.28.79,1.47S62.6,82.78,62.06,82.89Z"/><path class="cls-1" d="M60.63,82.56c-.18.19-.42.09-.57-.11a1.25,1.25,0,0,1-.2-.51,1.23,1.23,0,0,1,0-.52c.06-.23.23-.39.44-.32.54.2.4.57.44.65A.74.74,0,0,1,60.63,82.56Z"/><path class="cls-1" d="M44.13,39.87c-.27.19-1-.54-2.11-1.47a7.27,7.27,0,0,0-4.53-1.92,4.34,4.34,0,0,0-2.39.71,2.88,2.88,0,0,0-1.2,1.69,4.45,4.45,0,0,0,.33,2.83A5.64,5.64,0,0,0,36.08,44a16.39,16.39,0,0,0,4.84,2.29A26.72,26.72,0,0,1,46,48.31c1.33.77,2,1.59,1.81,1.79s-1.1-.07-2.42-.47-3.13-.84-5.12-1.36a16.09,16.09,0,0,1-5.6-2.5,7.65,7.65,0,0,1-2.53-3.13,7.35,7.35,0,0,1-.5-1.51,6.1,6.1,0,0,1,0-2.82,5.07,5.07,0,0,1,2.14-3,6.28,6.28,0,0,1,3.67-1,6.87,6.87,0,0,1,3.39,1.07,8.64,8.64,0,0,1,2.16,1.93C44.09,38.67,44.4,39.69,44.13,39.87Z"/><path class="cls-1" d="M48.12,50.49c-.13.06-.46-.25-.69-1a5.53,5.53,0,0,1,.14-3.11,18.32,18.32,0,0,1,1.83-3.81,28.73,28.73,0,0,0,2.06-4.07,22.64,22.64,0,0,0,1.66-8.64,9.92,9.92,0,0,0-.6-3.08,5.28,5.28,0,0,0-.84-1.47A3.9,3.9,0,0,0,47.94,24a5.57,5.57,0,0,0-3,1.56A7.81,7.81,0,0,0,43,29a13.81,13.81,0,0,0,.39,7.54c.65,2,1.42,3.19,1.18,3.37s-1.48-.74-2.53-2.82A13.29,13.29,0,0,1,41,28.51,9.48,9.48,0,0,1,43.29,24a7.5,7.5,0,0,1,4.31-2.25,6.26,6.26,0,0,1,3.95.63,5.8,5.8,0,0,1,1.85,1.53A7.33,7.33,0,0,1,54.62,26a11.7,11.7,0,0,1,.76,3.82,22.69,22.69,0,0,1-2,9.56A25.69,25.69,0,0,1,51,43.58a25.87,25.87,0,0,0-2,3.32,7,7,0,0,0-.67,2.49C48.25,50,48.29,50.42,48.12,50.49Z"/><path class="cls-1" d="M68.46,31.57c-.33-.06-.2-1.52-.28-3.64a11,11,0,0,0-2.46-7,6,6,0,0,0-3.25-2,5.07,5.07,0,0,0-3.33.46,3.82,3.82,0,0,0-2.07,3.31A8.27,8.27,0,0,0,58.15,27c.51,1,1.22,2.13,1.94,3.37a19.74,19.74,0,0,1,1.84,4.13,18.35,18.35,0,0,1,.7,8c-.32,2.13-1,3.41-1.19,3.33s-.23-1.45-.26-3.44a22.34,22.34,0,0,0-1.24-7.22,20.22,20.22,0,0,0-1.76-3.66c-.71-1.17-1.46-2.33-2-3.48A12.38,12.38,0,0,1,55,24.77a9,9,0,0,1-.14-2.13,6.5,6.5,0,0,1,.51-2.26,6,6,0,0,1,2.74-2.93,7.18,7.18,0,0,1,4.84-.65,8,8,0,0,1,4.4,2.76,10.19,10.19,0,0,1,2.12,4.38,12.6,12.6,0,0,1,.21,4C69.39,30.27,68.78,31.63,68.46,31.57Z"/><path class="cls-1" d="M68.36,33c-.15,0-.33-.33-.34-1a4.9,4.9,0,0,1,.78-2.5,10.41,10.41,0,0,1,2.47-2.67,13.34,13.34,0,0,1,3.66-2.15,6,6,0,0,1,4.83.25,4.36,4.36,0,0,1,1.79,1.82A4.89,4.89,0,0,1,82.09,29a6.15,6.15,0,0,1-1,3.4,8.18,8.18,0,0,1-1.31,1.49,15,15,0,0,1-4,2.46c-2,.93-4.4,1.86-6.59,3A19.72,19.72,0,0,0,63.81,43c-1.22,1.22-1.81,2.23-2.08,2.11s-.15-1.43,1-3a16,16,0,0,1,5.41-4.63c2.3-1.29,4.75-2.26,6.64-3.15a13.51,13.51,0,0,0,3.5-2.08A4.4,4.4,0,0,0,79.82,29a2.31,2.31,0,0,0-1.15-2.12,3.88,3.88,0,0,0-3.07-.19,13.22,13.22,0,0,0-3.22,1.64,12,12,0,0,0-2.37,2C68.81,31.71,68.72,33,68.36,33Z"/><path class="cls-1" d="M70.54,63.12c-.1-.13,0-.39.27-.75a4.44,4.44,0,0,0,.72-1.31,1.25,1.25,0,0,0,0-.72.46.46,0,0,0-.34-.32,1.71,1.71,0,0,0-.87,0,6.49,6.49,0,0,0-1.25.46,25.51,25.51,0,0,0-7.43,5.23c-.34.33-1.2,1.23-2.28,2.45S57,71,55.77,72.45a4.36,4.36,0,0,0-1,2c-.05.47.15.75.74,1a8.89,8.89,0,0,1,1.63.68c.41.29.52.6.43.69s-.4.1-.75.1a14.05,14.05,0,0,1-1.68-.06,2.69,2.69,0,0,1-1.43-.62,2.47,2.47,0,0,1-.8-1.79,5.58,5.58,0,0,1,1.21-3.21c1.18-1.61,2.44-3.2,3.55-4.47s2-2.21,2.4-2.55a28.91,28.91,0,0,1,2.77-2.49,20,20,0,0,1,5.46-3.13,4.68,4.68,0,0,1,3.7-.22A2.26,2.26,0,0,1,73.19,60a2.66,2.66,0,0,1-.3,1.61A3.27,3.27,0,0,1,71.36,63C70.93,63.22,70.65,63.25,70.54,63.12Z"/><path class="cls-1" d="M71.21,63.06c-.18-.28.83-1,1-2.52a2.62,2.62,0,0,0-.84-2.13,2.55,2.55,0,0,0-2.47-.62c-1.93.52-3.75,2.67-5.35,4.09l-3.23,3-3.07,2.88c-1.44,1.43-3.59,3-4.14,4.76a2.58,2.58,0,0,0,.3,2.43,4.1,4.1,0,0,0,2.07,1.24c1.54.44,2.72.54,2.7.84s-1.11.74-3,.58A5,5,0,0,1,52,76.18a4,4,0,0,1-1-2,5,5,0,0,1,.1-2.24,8,8,0,0,1,2.17-3.5c.88-.89,1.69-1.62,2.44-2.33l3.08-2.87,3.21-3c.81-.74,1.64-1.55,2.65-2.42a8.91,8.91,0,0,1,3.8-2.09,4.78,4.78,0,0,1,2.4.12,4.48,4.48,0,0,1,1.9,1.28,4,4,0,0,1,.92,3.68,3.53,3.53,0,0,1-1.45,2.08C71.65,63.2,71.29,63.2,71.21,63.06Z"/><path class="cls-1" d="M66.81,57.34c.39.51-1.07,2-2.68,3.42S60.76,63.68,60.39,64s-2,1.78-3.51,3.1-3.07,2.49-3.47,2.11c-.54-.53.59-2.13,2-3.63a45.08,45.08,0,0,1,3.47-3.25,49.91,49.91,0,0,1,3.89-3.22C64.56,57.82,66.39,56.79,66.81,57.34Z"/><path class="cls-1" d="M74.85,77.27a.91.91,0,0,1-1.56.08,1,1,0,0,1-.22-1.5c.94-1.19,1.51-.34,1.62-.26S75.71,76.2,74.85,77.27Z"/><path class="cls-1" d="M84.44,77.48a1,1,0,0,1-.15-1.68,1.06,1.06,0,0,1,1.55-.48c1.27.83.41,1.58.34,1.7A1.11,1.11,0,0,1,84.44,77.48Z"/><path class="cls-1" d="M92.41,83.68c.48,1.2-.43,1.29-.53,1.33s-.84.41-1.25-.62c-.56-1.4.31-1.42.41-1.46S91.9,82.41,92.41,83.68Z"/><path class="cls-1" d="M49.44,32.27c-.26-.08,0-.92.08-1.76a3.61,3.61,0,0,0-.11-1.8,2.08,2.08,0,0,0-1.12-1.05,1.59,1.59,0,0,0-.88-.12c-.24,0-.42.11-.5,0s0-.35.28-.57a1.67,1.67,0,0,1,1.37-.14,2.59,2.59,0,0,1,1.68,1.52,2.86,2.86,0,0,1,.22.87,4.09,4.09,0,0,1-.11,1.42C50.12,31.61,49.68,32.36,49.44,32.27Z"/><path class="cls-1" d="M61.09,25.51c-.22.13-.61-.25-.93-.78a3.16,3.16,0,0,1-.41-1.43,2.13,2.13,0,0,1,.46-1.41A1.36,1.36,0,0,1,61,21.4c.25,0,.41,0,.42.14,0,.3-.31.47-.48.84a1.89,1.89,0,0,0-.25.89,3.33,3.33,0,0,0,.28,1.08C61.11,24.84,61.32,25.36,61.09,25.51Z"/><path class="cls-1" d="M46.69,87c.08.12-.8.74-1.76,2.08-.49.66-1,1.49-1.64,2.37A11.76,11.76,0,0,1,40.91,94a16,16,0,0,1-6.22,2.77,35,35,0,0,1-4,.61c-.54.06-2,.18-3.79.31a36.78,36.78,0,0,0-6.1.86,8.28,8.28,0,0,0-4.71,2.85A12.24,12.24,0,0,0,15,103.58c-.13,0-.24-1.14.65-2.55a6.82,6.82,0,0,1,2-2,10.88,10.88,0,0,1,3-1.33,33.68,33.68,0,0,1,6.26-1l3.77-.3a34.45,34.45,0,0,0,3.88-.61,15.68,15.68,0,0,0,5.9-2.55c1.83-1.31,2.94-3.32,4.08-4.6S46.64,86.86,46.69,87Z"/><path class="cls-1" d="M48.64,86.15a9.27,9.27,0,0,1-1.33,2.55,29.25,29.25,0,0,1-4,5.17,15.25,15.25,0,0,1-5.91,3.78,22.3,22.3,0,0,1-4.09.9c-.55.08-2,.24-3.92.37a35.39,35.39,0,0,0-6.3.88,13.24,13.24,0,0,0-5.23,2.54c-1.22,1-1.73,1.94-1.85,1.86s.25-1.12,1.45-2.29A12.61,12.61,0,0,1,22.88,99a32.58,32.58,0,0,1,6.45-1c1.89-.14,3.33-.28,3.87-.36a21.5,21.5,0,0,0,3.92-.87,14.78,14.78,0,0,0,5.61-3.53,37.51,37.51,0,0,0,4.09-4.89C47.84,87,48.52,86.07,48.64,86.15Z"/><path class="cls-1" d="M64.83,87.16c-.26,0-.3-1.28-.57-2.58a17.13,17.13,0,0,0-.84-2.91,16.61,16.61,0,0,0-1.32-2.53c-.65-1.07-1.43-2-1.27-2.12s1.19.56,2,1.64a12.1,12.1,0,0,1,1.46,2.67,12.83,12.83,0,0,1,.85,3.11C65.29,85.85,65.1,87.18,64.83,87.16Z"/><path class="cls-1" d="M65.13,83.28c-.26,0-.51-.73-.86-1.51A14.51,14.51,0,0,0,63.38,80a15,15,0,0,0-1.09-1.49c-.51-.63-1-1.17-.91-1.35s.9.16,1.52.77a8,8,0,0,1,1.24,1.59,8.82,8.82,0,0,1,.92,1.91C65.36,82.35,65.4,83.23,65.13,83.28Z"/><path class="cls-1" d="M65.64,82.18c-.47.23-1.51-2.11-1.65-2.39s-1.22-2.41-.82-2.61,1.49,1.93,1.63,2.21S66.13,81.94,65.64,82.18Z"/><path class="cls-1" d="M63.48,79c-.43.29-1-.75-1.08-.87s-.71-1-.35-1.27c.51-.33,1,.65,1.1.77S63.94,78.69,63.48,79Z"/><path class="cls-1" d="M61.77,76.47c.52,0,.42.49.42.55s0,.52-.42.52c-.6,0-.48-.46-.48-.52A.45.45,0,0,1,61.77,76.47Z"/><path class="cls-1" d="M103.69,60.18c-.18.19-2.28-1.68-4.61-3.52s-4.9-3.66-5.47-4-3-2-5.44-3.41-4.73-2.6-4.63-2.8,2.57.72,5,2.07a64.25,64.25,0,0,1,5.53,3.39A67,67,0,0,1,99.61,56C101.92,57.93,103.88,60,103.69,60.18Z"/><path class="cls-1" d="M.22,79.66c-.52,0,0-5.59.08-6.27s.44-5.86.88-5.82c.6,0,.07,5.21,0,5.89S.77,79.7.22,79.66Z"/><path class="cls-1" d="M23.66,39.25c-.07.25-2-.16-4-.66l-2.9-.76c-.21-.06-.4-.09-.64-.18a1.16,1.16,0,0,1-.64-.55.86.86,0,0,1,0-.81.85.85,0,0,1,.37-.33,1.63,1.63,0,0,1,.83-.17,2.26,2.26,0,0,1,.6.08,2.19,2.19,0,0,1,.33.12l.27.13,2.53,1.24c1.74.88,3.35,1.76,3.26,2s-1.84-.4-3.63-1.2c-.89-.4-1.8-.82-2.54-1.18a1.45,1.45,0,0,0-1.24-.19s0,.06-.09,0,0,0,0,0h0c.09,0,.08,0,.08,0s.24.15.69.25l2.89.81C21.85,38.36,23.73,39,23.66,39.25Z"/><path class="cls-1" d="M19.31,37.69c-.23.47-1.5-.26-1.66-.34s-1.41-.65-1.21-1.05,1.44.16,1.6.24S19.54,37.2,19.31,37.69Z"/><path class="cls-1" d="M29.91,23.55c-.22.15-1.55-1.72-3.39-3.27a20.64,20.64,0,0,0-2.77-2l-.6-.36-.23-.12a.69.69,0,0,1-.22-.18.66.66,0,0,1-.14-.49,1,1,0,0,1,.41-.75,1.29,1.29,0,0,1,.39-.23,1.32,1.32,0,0,1,1.08.09,3.35,3.35,0,0,1,1,1l2.06,2.57c1.42,1.81,2.7,3.54,2.53,3.68s-1.69-1.4-3.18-3.14l-2.11-2.54A2.64,2.64,0,0,0,24,17c-.22-.11-.28-.08-.36-.05a.42.42,0,0,0-.13.07l0,0h0l.07,0,.63.37a18.26,18.26,0,0,1,2.87,2.16C29,21.35,30.14,23.41,29.91,23.55Z"/><path class="cls-1" d="M25.8,18.48c-.26.45-1.32-.27-1.46-.35s-1.18-.63-1-1,1.28.17,1.41.24S26.07,18,25.8,18.48Z"/><path class="cls-1" d="M46.14,12.76c-.24,0-.54-2-1.37-4.06-.38-1-.84-2.06-1.22-2.91A1.42,1.42,0,0,0,43,5.15l-.1,0h0s0,0,0,.2a10.43,10.43,0,0,0,.48,1c.38.78.85,1.73,1.32,2.67.9,1.87,1.69,3.66,1.5,3.77S45,11.2,44,9.36c-.5-.95-1-1.9-1.39-2.67-.2-.42-.38-.7-.52-1.07A1.39,1.39,0,0,1,42,5a1,1,0,0,1,.2-.48.84.84,0,0,1,.45-.29,1.11,1.11,0,0,1,.72.1,2.18,2.18,0,0,1,1,1.08c.38.86.83,1.92,1.19,3C46.34,10.56,46.43,12.75,46.14,12.76Z"/><path class="cls-1" d="M44.21,8.21c-.47.23-1.19-1.45-1.29-1.65S42,4.84,42.43,4.64,43.62,6,43.72,6.16,44.7,8,44.21,8.21Z"/><path class="cls-1" d="M64.6,8.77c-.24,0-.48-1.84-.66-3.91-.08-1.05-.16-2.13-.23-3.05,0-.49-.08-.85-.16-.88s-.07,0-.07,0,0-.1,0-.11,0,0,0,0l.14-.2,0,.2c.07.5.4,2.65.75,4.67s.69,3.92.48,4S64,7.64,63.53,5.62s-.75-4.2-.82-4.7l0-.2V.61l0-.13A.78.78,0,0,1,63.36,0a1,1,0,0,1,.81.26,2.13,2.13,0,0,1,.44,1.48c0,.92.11,2,.16,3.05C64.86,6.88,64.86,8.76,64.6,8.77Z"/><path class="cls-1" d="M79.64,14.58c-.14-.18.91-1.14,2.1-2.3.6-.58,1.24-1.21,1.81-1.79l.78-.81.09-.09h0l-.16.14-1.69,2c-1.22,1.38-2.4,2.63-2.57,2.49s.78-1.59,1.92-3c.58-.73,1.13-1.43,1.7-2.07l.26-.23a4.46,4.46,0,0,1,.43-.28,1.68,1.68,0,0,1,.72-.2,1,1,0,0,1,.7.26l.21.24.18.21L85,10.3l-.8.83c-.58.58-1.25,1.2-1.9,1.75C81,14,79.79,14.77,79.64,14.58Z"/><path class="cls-1" d="M82.7,10.5c-.36-.37.53-1.12.63-1.22s.84-.88,1.15-.56-.42,1.1-.52,1.2S83.09,10.88,82.7,10.5Z"/><path class="cls-1" d="M90.11,25.6c-.06-.26,2-.83,4.15-1.38l3.11-.74c.21-.05.28-.11.27-.11a.19.19,0,0,0,0-.11.38.38,0,0,0-.23-.2.91.91,0,0,0-.46,0,8.45,8.45,0,0,0-1,.37c-.81.32-1.78.75-2.72,1.2-1.87.89-3.55,1.89-3.67,1.71s1.41-1.46,3.29-2.46a30.13,30.13,0,0,1,2.76-1.29,8.9,8.9,0,0,1,1.15-.41,1.9,1.9,0,0,1,.89,0,1.24,1.24,0,0,1,.81.68,1,1,0,0,1,0,.95,1.24,1.24,0,0,1-.83.54l-3.14.69C92.25,25.5,90.17,25.86,90.11,25.6Z"/><path class="cls-1" d="M93.89,24.24c-.19-.17,0-.6.45-.92a3.55,3.55,0,0,1,1-.56,3.49,3.49,0,0,1,1-.26c.48,0,.91.08.9.3s-.38.41-.75.53-.77.22-.86.26-.48.23-.85.43S94.09,24.42,93.89,24.24Z"/><path class="cls-1" d="M96.23,23.11c-.08-.51.42-.48.48-.49s.51-.11.58.33c.09.6-.38.55-.44.55A.45.45,0,0,1,96.23,23.11Z"/><path class="cls-1" d="M95.17,23.27c-.08-.51,1.07-.58,1.21-.6s1.19-.21,1.26.23c.09.59-1,.63-1.12.66S95.26,23.81,95.17,23.27Z"/><path class="cls-1" d="M88.44,39c0-.26,1.83-.65,3.83-1l2.86-.47a1.62,1.62,0,0,0,.77-.33C96.07,37,96,37,96,37s0,0,0,0a1.94,1.94,0,0,0-.78.15c-.76.21-1.68.5-2.58.79-1.79.58-3.44,1.2-3.53,1s1.46-1.12,3.25-1.79c.9-.34,1.84-.65,2.61-.87a2.34,2.34,0,0,1,1.26-.15,1,1,0,0,1,.71.84,1.14,1.14,0,0,1-.45.9,2.47,2.47,0,0,1-1.22.55l-2.87.4C90.38,39.06,88.48,39.23,88.44,39Z"/><path class="cls-1" d="M92,38c-.15-.21.17-.56.6-.81a4.5,4.5,0,0,1,1.05-.41,4,4,0,0,1,1-.18c.47,0,.89.11.89.33s-.39.41-.78.51l-.91.2-.93.32C92.56,38,92.16,38.18,92,38Z"/><path class="cls-1" d="M95.58,37c0,.26-.39.32-.76.38l-.84.14-.78.21c-.34.09-.67.18-.8,0s.1-.56.47-.76a3.13,3.13,0,0,1,.9-.32,3.43,3.43,0,0,1,1-.1C95.22,36.51,95.62,36.68,95.58,37Z"/><path class="cls-1" d="M94.84,38c-.46-.23,0-.84,0-.92s.32-.7.71-.5c.55.27.13.83.09.91S95.33,38.22,94.84,38Z"/><path class="cls-1" d="M93.44,38c-.07-.25.17-.42.41-.57l.56-.33c.14,0,.81-.74,1.15-.51s.15.5-.06.76a2.29,2.29,0,0,1-.58.49,2.41,2.41,0,0,1-.72.36C93.85,38.25,93.5,38.21,93.44,38Z"/></g></g></svg>