<svg xmlns="http://www.w3.org/2000/svg" viewBox="0 0 97.75 115.6"><defs><style>.cls-1{fill:none;stroke:#000;stroke-miterlimit:10;stroke-width:2px;}</style></defs><title>Recurso 8</title><g id="Capa_2" data-name="Capa 2"><g id="Capa_1-2" data-name="Capa 1"><circle class="cls-1" cx="48.87" cy="66.72" r="47.88"/><circle class="cls-1" cx="48.87" cy="66.72" r="37.62"/><line class="cls-1" x1="48.45" y1="35.52" x2="48.45" y2="46.63"/><line class="cls-1" x1="48.45" y1="90.23" x2="48.45" y2="101.35"/><line class="cls-1" x1="81.36" y1="68.84" x2="70.25" y2="68.7"/><line class="cls-1" x1="26.65" y1="68.16" x2="15.54" y2="68.03"/><circle class="cls-1" cx="49.3" cy="68" r="4.27"/><line class="cls-1" x1="32.2" y1="49.2" x2="46.1" y2="65.2"/><line class="cls-1" x1="48.45" y1="10.73" x2="48.45" y2="19.28"/><path class="cls-1" d="M47.59,3c1.88-1.87,4.09-2.47,5.13-1.71,1.54,1.12.11,4.85,0,5.13a9.87,9.87,0,0,1-5.13,5.13"/><path class="cls-1" d="M48.3,3C46.43,1.16,44.21.56,43.17,1.32c-1.53,1.12-.11,4.85,0,5.13a9.87,9.87,0,0,0,5.13,5.13"/><polygon class="cls-1" points="48.45 3.03 47.59 3.03 47.59 3.03 48.45 3.03 48.45 3.03"/></g></g></svg>